G04 #@! TF.GenerationSoftware,KiCad,Pcbnew,(5.1.2)-1*
G04 #@! TF.CreationDate,2021-06-27T21:29:46+09:00*
G04 #@! TF.ProjectId,IR,49522e6b-6963-4616-945f-706362585858,v1.1*
G04 #@! TF.SameCoordinates,Original*
G04 #@! TF.FileFunction,Legend,Bot*
G04 #@! TF.FilePolarity,Positive*
%FSLAX46Y46*%
G04 Gerber Fmt 4.6, Leading zero omitted, Abs format (unit mm)*
G04 Created by KiCad (PCBNEW (5.1.2)-1) date 2021-06-27 21:29:46*
%MOMM*%
%LPD*%
G04 APERTURE LIST*
%ADD10C,0.150000*%
%ADD11C,0.200000*%
%ADD12C,0.120000*%
%ADD13C,3.600000*%
%ADD14O,2.200000X1.924000*%
%ADD15C,1.400000*%
%ADD16C,0.050000*%
%ADD17C,1.275000*%
%ADD18R,2.100000X2.100000*%
%ADD19O,2.100000X2.100000*%
%ADD20C,1.000000*%
G04 APERTURE END LIST*
D10*
X204600000Y-115061904D02*
X204552380Y-114966666D01*
X204552380Y-114823809D01*
X204600000Y-114680952D01*
X204695238Y-114585714D01*
X204790476Y-114538095D01*
X204980952Y-114490476D01*
X205123809Y-114490476D01*
X205314285Y-114538095D01*
X205409523Y-114585714D01*
X205504761Y-114680952D01*
X205552380Y-114823809D01*
X205552380Y-114919047D01*
X205504761Y-115061904D01*
X205457142Y-115109523D01*
X205123809Y-115109523D01*
X205123809Y-114919047D01*
X205071428Y-111919047D02*
X205071428Y-112680952D01*
X205380952Y-109671428D02*
X204619047Y-109671428D01*
X205000000Y-110052380D02*
X205000000Y-109290476D01*
X204452380Y-106766666D02*
X205452380Y-107100000D01*
X204452380Y-107433333D01*
D11*
X202019047Y-102661904D02*
X202019047Y-101861904D01*
X201676190Y-101938095D02*
X201638095Y-101900000D01*
X201561904Y-101861904D01*
X201371428Y-101861904D01*
X201295238Y-101900000D01*
X201257142Y-101938095D01*
X201219047Y-102014285D01*
X201219047Y-102090476D01*
X201257142Y-102204761D01*
X201714285Y-102661904D01*
X201219047Y-102661904D01*
X200419047Y-102585714D02*
X200457142Y-102623809D01*
X200571428Y-102661904D01*
X200647619Y-102661904D01*
X200761904Y-102623809D01*
X200838095Y-102547619D01*
X200876190Y-102471428D01*
X200914285Y-102319047D01*
X200914285Y-102204761D01*
X200876190Y-102052380D01*
X200838095Y-101976190D01*
X200761904Y-101900000D01*
X200647619Y-101861904D01*
X200571428Y-101861904D01*
X200457142Y-101900000D01*
X200419047Y-101938095D01*
X199009523Y-102661904D02*
X199276190Y-102280952D01*
X199466666Y-102661904D02*
X199466666Y-101861904D01*
X199161904Y-101861904D01*
X199085714Y-101900000D01*
X199047619Y-101938095D01*
X199009523Y-102014285D01*
X199009523Y-102128571D01*
X199047619Y-102204761D01*
X199085714Y-102242857D01*
X199161904Y-102280952D01*
X199466666Y-102280952D01*
X198704761Y-102623809D02*
X198590476Y-102661904D01*
X198400000Y-102661904D01*
X198323809Y-102623809D01*
X198285714Y-102585714D01*
X198247619Y-102509523D01*
X198247619Y-102433333D01*
X198285714Y-102357142D01*
X198323809Y-102319047D01*
X198400000Y-102280952D01*
X198552380Y-102242857D01*
X198628571Y-102204761D01*
X198666666Y-102166666D01*
X198704761Y-102090476D01*
X198704761Y-102014285D01*
X198666666Y-101938095D01*
X198628571Y-101900000D01*
X198552380Y-101861904D01*
X198361904Y-101861904D01*
X198247619Y-101900000D01*
X197561904Y-102128571D02*
X197561904Y-102661904D01*
X197752380Y-101823809D02*
X197942857Y-102395238D01*
X197447619Y-102395238D01*
X197180952Y-101938095D02*
X197142857Y-101900000D01*
X197066666Y-101861904D01*
X196876190Y-101861904D01*
X196800000Y-101900000D01*
X196761904Y-101938095D01*
X196723809Y-102014285D01*
X196723809Y-102090476D01*
X196761904Y-102204761D01*
X197219047Y-102661904D01*
X196723809Y-102661904D01*
X196419047Y-101938095D02*
X196380952Y-101900000D01*
X196304761Y-101861904D01*
X196114285Y-101861904D01*
X196038095Y-101900000D01*
X196000000Y-101938095D01*
X195961904Y-102014285D01*
X195961904Y-102090476D01*
X196000000Y-102204761D01*
X196457142Y-102661904D01*
X195961904Y-102661904D01*
X195047619Y-101823809D02*
X195733333Y-102852380D01*
X194438095Y-102128571D02*
X194438095Y-102661904D01*
X194628571Y-101823809D02*
X194819047Y-102395238D01*
X194323809Y-102395238D01*
X193904761Y-102204761D02*
X193980952Y-102166666D01*
X194019047Y-102128571D01*
X194057142Y-102052380D01*
X194057142Y-102014285D01*
X194019047Y-101938095D01*
X193980952Y-101900000D01*
X193904761Y-101861904D01*
X193752380Y-101861904D01*
X193676190Y-101900000D01*
X193638095Y-101938095D01*
X193600000Y-102014285D01*
X193600000Y-102052380D01*
X193638095Y-102128571D01*
X193676190Y-102166666D01*
X193752380Y-102204761D01*
X193904761Y-102204761D01*
X193980952Y-102242857D01*
X194019047Y-102280952D01*
X194057142Y-102357142D01*
X194057142Y-102509523D01*
X194019047Y-102585714D01*
X193980952Y-102623809D01*
X193904761Y-102661904D01*
X193752380Y-102661904D01*
X193676190Y-102623809D01*
X193638095Y-102585714D01*
X193600000Y-102509523D01*
X193600000Y-102357142D01*
X193638095Y-102280952D01*
X193676190Y-102242857D01*
X193752380Y-102204761D01*
X192876190Y-101861904D02*
X193257142Y-101861904D01*
X193295238Y-102242857D01*
X193257142Y-102204761D01*
X193180952Y-102166666D01*
X192990476Y-102166666D01*
X192914285Y-102204761D01*
X192876190Y-102242857D01*
X192838095Y-102319047D01*
X192838095Y-102509523D01*
X192876190Y-102585714D01*
X192914285Y-102623809D01*
X192990476Y-102661904D01*
X193180952Y-102661904D01*
X193257142Y-102623809D01*
X193295238Y-102585714D01*
X191428571Y-102585714D02*
X191466666Y-102623809D01*
X191580952Y-102661904D01*
X191657142Y-102661904D01*
X191771428Y-102623809D01*
X191847619Y-102547619D01*
X191885714Y-102471428D01*
X191923809Y-102319047D01*
X191923809Y-102204761D01*
X191885714Y-102052380D01*
X191847619Y-101976190D01*
X191771428Y-101900000D01*
X191657142Y-101861904D01*
X191580952Y-101861904D01*
X191466666Y-101900000D01*
X191428571Y-101938095D01*
X190971428Y-102661904D02*
X191047619Y-102623809D01*
X191085714Y-102585714D01*
X191123809Y-102509523D01*
X191123809Y-102280952D01*
X191085714Y-102204761D01*
X191047619Y-102166666D01*
X190971428Y-102128571D01*
X190857142Y-102128571D01*
X190780952Y-102166666D01*
X190742857Y-102204761D01*
X190704761Y-102280952D01*
X190704761Y-102509523D01*
X190742857Y-102585714D01*
X190780952Y-102623809D01*
X190857142Y-102661904D01*
X190971428Y-102661904D01*
X190361904Y-102128571D02*
X190361904Y-102661904D01*
X190361904Y-102204761D02*
X190323809Y-102166666D01*
X190247619Y-102128571D01*
X190133333Y-102128571D01*
X190057142Y-102166666D01*
X190019047Y-102242857D01*
X190019047Y-102661904D01*
X189714285Y-102128571D02*
X189523809Y-102661904D01*
X189333333Y-102128571D01*
X188723809Y-102623809D02*
X188800000Y-102661904D01*
X188952380Y-102661904D01*
X189028571Y-102623809D01*
X189066666Y-102547619D01*
X189066666Y-102242857D01*
X189028571Y-102166666D01*
X188952380Y-102128571D01*
X188800000Y-102128571D01*
X188723809Y-102166666D01*
X188685714Y-102242857D01*
X188685714Y-102319047D01*
X189066666Y-102395238D01*
X188342857Y-102661904D02*
X188342857Y-102128571D01*
X188342857Y-102280952D02*
X188304761Y-102204761D01*
X188266666Y-102166666D01*
X188190476Y-102128571D01*
X188114285Y-102128571D01*
X187961904Y-102128571D02*
X187657142Y-102128571D01*
X187847619Y-101861904D02*
X187847619Y-102547619D01*
X187809523Y-102623809D01*
X187733333Y-102661904D01*
X187657142Y-102661904D01*
X187085714Y-102623809D02*
X187161904Y-102661904D01*
X187314285Y-102661904D01*
X187390476Y-102623809D01*
X187428571Y-102547619D01*
X187428571Y-102242857D01*
X187390476Y-102166666D01*
X187314285Y-102128571D01*
X187161904Y-102128571D01*
X187085714Y-102166666D01*
X187047619Y-102242857D01*
X187047619Y-102319047D01*
X187428571Y-102395238D01*
X186704761Y-102661904D02*
X186704761Y-102128571D01*
X186704761Y-102280952D02*
X186666666Y-102204761D01*
X186628571Y-102166666D01*
X186552380Y-102128571D01*
X186476190Y-102128571D01*
X200133333Y-103338095D02*
X200095238Y-103300000D01*
X200019047Y-103261904D01*
X199828571Y-103261904D01*
X199752380Y-103300000D01*
X199714285Y-103338095D01*
X199676190Y-103414285D01*
X199676190Y-103490476D01*
X199714285Y-103604761D01*
X200171428Y-104061904D01*
X199676190Y-104061904D01*
X198914285Y-104061904D02*
X199371428Y-104061904D01*
X199142857Y-104061904D02*
X199142857Y-103261904D01*
X199219047Y-103376190D01*
X199295238Y-103452380D01*
X199371428Y-103490476D01*
X198419047Y-103261904D02*
X198342857Y-103261904D01*
X198266666Y-103300000D01*
X198228571Y-103338095D01*
X198190476Y-103414285D01*
X198152380Y-103566666D01*
X198152380Y-103757142D01*
X198190476Y-103909523D01*
X198228571Y-103985714D01*
X198266666Y-104023809D01*
X198342857Y-104061904D01*
X198419047Y-104061904D01*
X198495238Y-104023809D01*
X198533333Y-103985714D01*
X198571428Y-103909523D01*
X198609523Y-103757142D01*
X198609523Y-103566666D01*
X198571428Y-103414285D01*
X198533333Y-103338095D01*
X198495238Y-103300000D01*
X198419047Y-103261904D01*
X197466666Y-103261904D02*
X197619047Y-103261904D01*
X197695238Y-103300000D01*
X197733333Y-103338095D01*
X197809523Y-103452380D01*
X197847619Y-103604761D01*
X197847619Y-103909523D01*
X197809523Y-103985714D01*
X197771428Y-104023809D01*
X197695238Y-104061904D01*
X197542857Y-104061904D01*
X197466666Y-104023809D01*
X197428571Y-103985714D01*
X197390476Y-103909523D01*
X197390476Y-103719047D01*
X197428571Y-103642857D01*
X197466666Y-103604761D01*
X197542857Y-103566666D01*
X197695238Y-103566666D01*
X197771428Y-103604761D01*
X197809523Y-103642857D01*
X197847619Y-103719047D01*
X195371428Y-103985714D02*
X195409523Y-104023809D01*
X195523809Y-104061904D01*
X195600000Y-104061904D01*
X195714285Y-104023809D01*
X195790476Y-103947619D01*
X195828571Y-103871428D01*
X195866666Y-103719047D01*
X195866666Y-103604761D01*
X195828571Y-103452380D01*
X195790476Y-103376190D01*
X195714285Y-103300000D01*
X195600000Y-103261904D01*
X195523809Y-103261904D01*
X195409523Y-103300000D01*
X195371428Y-103338095D01*
X195028571Y-104061904D02*
X195028571Y-103528571D01*
X195028571Y-103680952D02*
X194990476Y-103604761D01*
X194952380Y-103566666D01*
X194876190Y-103528571D01*
X194800000Y-103528571D01*
X194228571Y-104023809D02*
X194304761Y-104061904D01*
X194457142Y-104061904D01*
X194533333Y-104023809D01*
X194571428Y-103947619D01*
X194571428Y-103642857D01*
X194533333Y-103566666D01*
X194457142Y-103528571D01*
X194304761Y-103528571D01*
X194228571Y-103566666D01*
X194190476Y-103642857D01*
X194190476Y-103719047D01*
X194571428Y-103795238D01*
X193885714Y-104023809D02*
X193809523Y-104061904D01*
X193657142Y-104061904D01*
X193580952Y-104023809D01*
X193542857Y-103947619D01*
X193542857Y-103909523D01*
X193580952Y-103833333D01*
X193657142Y-103795238D01*
X193771428Y-103795238D01*
X193847619Y-103757142D01*
X193885714Y-103680952D01*
X193885714Y-103642857D01*
X193847619Y-103566666D01*
X193771428Y-103528571D01*
X193657142Y-103528571D01*
X193580952Y-103566666D01*
X192857142Y-104023809D02*
X192933333Y-104061904D01*
X193085714Y-104061904D01*
X193161904Y-104023809D01*
X193200000Y-103985714D01*
X193238095Y-103909523D01*
X193238095Y-103680952D01*
X193200000Y-103604761D01*
X193161904Y-103566666D01*
X193085714Y-103528571D01*
X192933333Y-103528571D01*
X192857142Y-103566666D01*
X192209523Y-104023809D02*
X192285714Y-104061904D01*
X192438095Y-104061904D01*
X192514285Y-104023809D01*
X192552380Y-103947619D01*
X192552380Y-103642857D01*
X192514285Y-103566666D01*
X192438095Y-103528571D01*
X192285714Y-103528571D01*
X192209523Y-103566666D01*
X192171428Y-103642857D01*
X192171428Y-103719047D01*
X192552380Y-103795238D01*
X191828571Y-103528571D02*
X191828571Y-104061904D01*
X191828571Y-103604761D02*
X191790476Y-103566666D01*
X191714285Y-103528571D01*
X191600000Y-103528571D01*
X191523809Y-103566666D01*
X191485714Y-103642857D01*
X191485714Y-104061904D01*
X191219047Y-103528571D02*
X190914285Y-103528571D01*
X191104761Y-103261904D02*
X191104761Y-103947619D01*
X191066666Y-104023809D01*
X190990476Y-104061904D01*
X190914285Y-104061904D01*
X190114285Y-103528571D02*
X189923809Y-104061904D01*
X189733333Y-103528571D01*
X189009523Y-104061904D02*
X189466666Y-104061904D01*
X189238095Y-104061904D02*
X189238095Y-103261904D01*
X189314285Y-103376190D01*
X189390476Y-103452380D01*
X189466666Y-103490476D01*
X188666666Y-103985714D02*
X188628571Y-104023809D01*
X188666666Y-104061904D01*
X188704761Y-104023809D01*
X188666666Y-103985714D01*
X188666666Y-104061904D01*
X187866666Y-104061904D02*
X188323809Y-104061904D01*
X188095238Y-104061904D02*
X188095238Y-103261904D01*
X188171428Y-103376190D01*
X188247619Y-103452380D01*
X188323809Y-103490476D01*
D12*
X198862779Y-114390000D02*
X198537221Y-114390000D01*
X198862779Y-115410000D02*
X198537221Y-115410000D01*
X203310000Y-108062779D02*
X203310000Y-107737221D01*
X202290000Y-108062779D02*
X202290000Y-107737221D01*
X203310000Y-114037221D02*
X203310000Y-114362779D01*
X202290000Y-114037221D02*
X202290000Y-114362779D01*
X203310000Y-110925221D02*
X203310000Y-111250779D01*
X202290000Y-110925221D02*
X202290000Y-111250779D01*
X196400000Y-108440000D02*
X198350000Y-108440000D01*
X196400000Y-108440000D02*
X194450000Y-108440000D01*
X196400000Y-113560000D02*
X198350000Y-113560000D01*
X196400000Y-113560000D02*
X192950000Y-113560000D01*
D10*
X198866666Y-116757142D02*
X198914285Y-116804761D01*
X199057142Y-116852380D01*
X199152380Y-116852380D01*
X199295238Y-116804761D01*
X199390476Y-116709523D01*
X199438095Y-116614285D01*
X199485714Y-116423809D01*
X199485714Y-116280952D01*
X199438095Y-116090476D01*
X199390476Y-115995238D01*
X199295238Y-115900000D01*
X199152380Y-115852380D01*
X199057142Y-115852380D01*
X198914285Y-115900000D01*
X198866666Y-115947619D01*
X198533333Y-115852380D02*
X197866666Y-115852380D01*
X198295238Y-116852380D01*
X201852380Y-107157142D02*
X201376190Y-106823809D01*
X201852380Y-106585714D02*
X200852380Y-106585714D01*
X200852380Y-106966666D01*
X200900000Y-107061904D01*
X200947619Y-107109523D01*
X201042857Y-107157142D01*
X201185714Y-107157142D01*
X201280952Y-107109523D01*
X201328571Y-107061904D01*
X201376190Y-106966666D01*
X201376190Y-106585714D01*
X201852380Y-108109523D02*
X201852380Y-107538095D01*
X201852380Y-107823809D02*
X200852380Y-107823809D01*
X200995238Y-107728571D01*
X201090476Y-107633333D01*
X201138095Y-107538095D01*
X200852380Y-108966666D02*
X200852380Y-108776190D01*
X200900000Y-108680952D01*
X200947619Y-108633333D01*
X201090476Y-108538095D01*
X201280952Y-108490476D01*
X201661904Y-108490476D01*
X201757142Y-108538095D01*
X201804761Y-108585714D01*
X201852380Y-108680952D01*
X201852380Y-108871428D01*
X201804761Y-108966666D01*
X201757142Y-109014285D01*
X201661904Y-109061904D01*
X201423809Y-109061904D01*
X201328571Y-109014285D01*
X201280952Y-108966666D01*
X201233333Y-108871428D01*
X201233333Y-108680952D01*
X201280952Y-108585714D01*
X201328571Y-108538095D01*
X201423809Y-108490476D01*
X201852380Y-113557142D02*
X201376190Y-113223809D01*
X201852380Y-112985714D02*
X200852380Y-112985714D01*
X200852380Y-113366666D01*
X200900000Y-113461904D01*
X200947619Y-113509523D01*
X201042857Y-113557142D01*
X201185714Y-113557142D01*
X201280952Y-113509523D01*
X201328571Y-113461904D01*
X201376190Y-113366666D01*
X201376190Y-112985714D01*
X201852380Y-114509523D02*
X201852380Y-113938095D01*
X201852380Y-114223809D02*
X200852380Y-114223809D01*
X200995238Y-114128571D01*
X201090476Y-114033333D01*
X201138095Y-113938095D01*
X200852380Y-114842857D02*
X200852380Y-115509523D01*
X201852380Y-115080952D01*
X201952380Y-110457642D02*
X201476190Y-110124309D01*
X201952380Y-109886214D02*
X200952380Y-109886214D01*
X200952380Y-110267166D01*
X201000000Y-110362404D01*
X201047619Y-110410023D01*
X201142857Y-110457642D01*
X201285714Y-110457642D01*
X201380952Y-110410023D01*
X201428571Y-110362404D01*
X201476190Y-110267166D01*
X201476190Y-109886214D01*
X200952380Y-110790976D02*
X201952380Y-111457642D01*
X200952380Y-111457642D02*
X201952380Y-110790976D01*
X201047619Y-111790976D02*
X201000000Y-111838595D01*
X200952380Y-111933833D01*
X200952380Y-112171928D01*
X201000000Y-112267166D01*
X201047619Y-112314785D01*
X201142857Y-112362404D01*
X201238095Y-112362404D01*
X201380952Y-112314785D01*
X201952380Y-111743357D01*
X201952380Y-112362404D01*
X194536904Y-113952380D02*
X194536904Y-114761904D01*
X194489285Y-114857142D01*
X194441666Y-114904761D01*
X194346428Y-114952380D01*
X194155952Y-114952380D01*
X194060714Y-114904761D01*
X194013095Y-114857142D01*
X193965476Y-114761904D01*
X193965476Y-113952380D01*
X193584523Y-113952380D02*
X192965476Y-113952380D01*
X193298809Y-114333333D01*
X193155952Y-114333333D01*
X193060714Y-114380952D01*
X193013095Y-114428571D01*
X192965476Y-114523809D01*
X192965476Y-114761904D01*
X193013095Y-114857142D01*
X193060714Y-114904761D01*
X193155952Y-114952380D01*
X193441666Y-114952380D01*
X193536904Y-114904761D01*
X193584523Y-114857142D01*
%LPC*%
D13*
X180000000Y-120000000D03*
D14*
X185200000Y-114000000D03*
X185200000Y-112000000D03*
X185200000Y-110000000D03*
X185200000Y-108000000D03*
D15*
X202200000Y-117500000D03*
X208200000Y-101400000D03*
X208200000Y-104000000D03*
D13*
X180000000Y-102000000D03*
D16*
G36*
X199837493Y-114226535D02*
G01*
X199868435Y-114231125D01*
X199898778Y-114238725D01*
X199928230Y-114249263D01*
X199956508Y-114262638D01*
X199983338Y-114278719D01*
X200008463Y-114297353D01*
X200031640Y-114318360D01*
X200052647Y-114341537D01*
X200071281Y-114366662D01*
X200087362Y-114393492D01*
X200100737Y-114421770D01*
X200111275Y-114451222D01*
X200118875Y-114481565D01*
X200123465Y-114512507D01*
X200125000Y-114543750D01*
X200125000Y-115256250D01*
X200123465Y-115287493D01*
X200118875Y-115318435D01*
X200111275Y-115348778D01*
X200100737Y-115378230D01*
X200087362Y-115406508D01*
X200071281Y-115433338D01*
X200052647Y-115458463D01*
X200031640Y-115481640D01*
X200008463Y-115502647D01*
X199983338Y-115521281D01*
X199956508Y-115537362D01*
X199928230Y-115550737D01*
X199898778Y-115561275D01*
X199868435Y-115568875D01*
X199837493Y-115573465D01*
X199806250Y-115575000D01*
X199168750Y-115575000D01*
X199137507Y-115573465D01*
X199106565Y-115568875D01*
X199076222Y-115561275D01*
X199046770Y-115550737D01*
X199018492Y-115537362D01*
X198991662Y-115521281D01*
X198966537Y-115502647D01*
X198943360Y-115481640D01*
X198922353Y-115458463D01*
X198903719Y-115433338D01*
X198887638Y-115406508D01*
X198874263Y-115378230D01*
X198863725Y-115348778D01*
X198856125Y-115318435D01*
X198851535Y-115287493D01*
X198850000Y-115256250D01*
X198850000Y-114543750D01*
X198851535Y-114512507D01*
X198856125Y-114481565D01*
X198863725Y-114451222D01*
X198874263Y-114421770D01*
X198887638Y-114393492D01*
X198903719Y-114366662D01*
X198922353Y-114341537D01*
X198943360Y-114318360D01*
X198966537Y-114297353D01*
X198991662Y-114278719D01*
X199018492Y-114262638D01*
X199046770Y-114249263D01*
X199076222Y-114238725D01*
X199106565Y-114231125D01*
X199137507Y-114226535D01*
X199168750Y-114225000D01*
X199806250Y-114225000D01*
X199837493Y-114226535D01*
X199837493Y-114226535D01*
G37*
D17*
X199487500Y-114900000D03*
D16*
G36*
X198262493Y-114226535D02*
G01*
X198293435Y-114231125D01*
X198323778Y-114238725D01*
X198353230Y-114249263D01*
X198381508Y-114262638D01*
X198408338Y-114278719D01*
X198433463Y-114297353D01*
X198456640Y-114318360D01*
X198477647Y-114341537D01*
X198496281Y-114366662D01*
X198512362Y-114393492D01*
X198525737Y-114421770D01*
X198536275Y-114451222D01*
X198543875Y-114481565D01*
X198548465Y-114512507D01*
X198550000Y-114543750D01*
X198550000Y-115256250D01*
X198548465Y-115287493D01*
X198543875Y-115318435D01*
X198536275Y-115348778D01*
X198525737Y-115378230D01*
X198512362Y-115406508D01*
X198496281Y-115433338D01*
X198477647Y-115458463D01*
X198456640Y-115481640D01*
X198433463Y-115502647D01*
X198408338Y-115521281D01*
X198381508Y-115537362D01*
X198353230Y-115550737D01*
X198323778Y-115561275D01*
X198293435Y-115568875D01*
X198262493Y-115573465D01*
X198231250Y-115575000D01*
X197593750Y-115575000D01*
X197562507Y-115573465D01*
X197531565Y-115568875D01*
X197501222Y-115561275D01*
X197471770Y-115550737D01*
X197443492Y-115537362D01*
X197416662Y-115521281D01*
X197391537Y-115502647D01*
X197368360Y-115481640D01*
X197347353Y-115458463D01*
X197328719Y-115433338D01*
X197312638Y-115406508D01*
X197299263Y-115378230D01*
X197288725Y-115348778D01*
X197281125Y-115318435D01*
X197276535Y-115287493D01*
X197275000Y-115256250D01*
X197275000Y-114543750D01*
X197276535Y-114512507D01*
X197281125Y-114481565D01*
X197288725Y-114451222D01*
X197299263Y-114421770D01*
X197312638Y-114393492D01*
X197328719Y-114366662D01*
X197347353Y-114341537D01*
X197368360Y-114318360D01*
X197391537Y-114297353D01*
X197416662Y-114278719D01*
X197443492Y-114262638D01*
X197471770Y-114249263D01*
X197501222Y-114238725D01*
X197531565Y-114231125D01*
X197562507Y-114226535D01*
X197593750Y-114225000D01*
X198231250Y-114225000D01*
X198262493Y-114226535D01*
X198262493Y-114226535D01*
G37*
D17*
X197912500Y-114900000D03*
D18*
X206700000Y-107160000D03*
D19*
X206700000Y-109700000D03*
X206700000Y-112240000D03*
X206700000Y-114780000D03*
D16*
G36*
X203187493Y-108051535D02*
G01*
X203218435Y-108056125D01*
X203248778Y-108063725D01*
X203278230Y-108074263D01*
X203306508Y-108087638D01*
X203333338Y-108103719D01*
X203358463Y-108122353D01*
X203381640Y-108143360D01*
X203402647Y-108166537D01*
X203421281Y-108191662D01*
X203437362Y-108218492D01*
X203450737Y-108246770D01*
X203461275Y-108276222D01*
X203468875Y-108306565D01*
X203473465Y-108337507D01*
X203475000Y-108368750D01*
X203475000Y-109006250D01*
X203473465Y-109037493D01*
X203468875Y-109068435D01*
X203461275Y-109098778D01*
X203450737Y-109128230D01*
X203437362Y-109156508D01*
X203421281Y-109183338D01*
X203402647Y-109208463D01*
X203381640Y-109231640D01*
X203358463Y-109252647D01*
X203333338Y-109271281D01*
X203306508Y-109287362D01*
X203278230Y-109300737D01*
X203248778Y-109311275D01*
X203218435Y-109318875D01*
X203187493Y-109323465D01*
X203156250Y-109325000D01*
X202443750Y-109325000D01*
X202412507Y-109323465D01*
X202381565Y-109318875D01*
X202351222Y-109311275D01*
X202321770Y-109300737D01*
X202293492Y-109287362D01*
X202266662Y-109271281D01*
X202241537Y-109252647D01*
X202218360Y-109231640D01*
X202197353Y-109208463D01*
X202178719Y-109183338D01*
X202162638Y-109156508D01*
X202149263Y-109128230D01*
X202138725Y-109098778D01*
X202131125Y-109068435D01*
X202126535Y-109037493D01*
X202125000Y-109006250D01*
X202125000Y-108368750D01*
X202126535Y-108337507D01*
X202131125Y-108306565D01*
X202138725Y-108276222D01*
X202149263Y-108246770D01*
X202162638Y-108218492D01*
X202178719Y-108191662D01*
X202197353Y-108166537D01*
X202218360Y-108143360D01*
X202241537Y-108122353D01*
X202266662Y-108103719D01*
X202293492Y-108087638D01*
X202321770Y-108074263D01*
X202351222Y-108063725D01*
X202381565Y-108056125D01*
X202412507Y-108051535D01*
X202443750Y-108050000D01*
X203156250Y-108050000D01*
X203187493Y-108051535D01*
X203187493Y-108051535D01*
G37*
D17*
X202800000Y-108687500D03*
D16*
G36*
X203187493Y-106476535D02*
G01*
X203218435Y-106481125D01*
X203248778Y-106488725D01*
X203278230Y-106499263D01*
X203306508Y-106512638D01*
X203333338Y-106528719D01*
X203358463Y-106547353D01*
X203381640Y-106568360D01*
X203402647Y-106591537D01*
X203421281Y-106616662D01*
X203437362Y-106643492D01*
X203450737Y-106671770D01*
X203461275Y-106701222D01*
X203468875Y-106731565D01*
X203473465Y-106762507D01*
X203475000Y-106793750D01*
X203475000Y-107431250D01*
X203473465Y-107462493D01*
X203468875Y-107493435D01*
X203461275Y-107523778D01*
X203450737Y-107553230D01*
X203437362Y-107581508D01*
X203421281Y-107608338D01*
X203402647Y-107633463D01*
X203381640Y-107656640D01*
X203358463Y-107677647D01*
X203333338Y-107696281D01*
X203306508Y-107712362D01*
X203278230Y-107725737D01*
X203248778Y-107736275D01*
X203218435Y-107743875D01*
X203187493Y-107748465D01*
X203156250Y-107750000D01*
X202443750Y-107750000D01*
X202412507Y-107748465D01*
X202381565Y-107743875D01*
X202351222Y-107736275D01*
X202321770Y-107725737D01*
X202293492Y-107712362D01*
X202266662Y-107696281D01*
X202241537Y-107677647D01*
X202218360Y-107656640D01*
X202197353Y-107633463D01*
X202178719Y-107608338D01*
X202162638Y-107581508D01*
X202149263Y-107553230D01*
X202138725Y-107523778D01*
X202131125Y-107493435D01*
X202126535Y-107462493D01*
X202125000Y-107431250D01*
X202125000Y-106793750D01*
X202126535Y-106762507D01*
X202131125Y-106731565D01*
X202138725Y-106701222D01*
X202149263Y-106671770D01*
X202162638Y-106643492D01*
X202178719Y-106616662D01*
X202197353Y-106591537D01*
X202218360Y-106568360D01*
X202241537Y-106547353D01*
X202266662Y-106528719D01*
X202293492Y-106512638D01*
X202321770Y-106499263D01*
X202351222Y-106488725D01*
X202381565Y-106481125D01*
X202412507Y-106476535D01*
X202443750Y-106475000D01*
X203156250Y-106475000D01*
X203187493Y-106476535D01*
X203187493Y-106476535D01*
G37*
D17*
X202800000Y-107112500D03*
D16*
G36*
X203187493Y-114351535D02*
G01*
X203218435Y-114356125D01*
X203248778Y-114363725D01*
X203278230Y-114374263D01*
X203306508Y-114387638D01*
X203333338Y-114403719D01*
X203358463Y-114422353D01*
X203381640Y-114443360D01*
X203402647Y-114466537D01*
X203421281Y-114491662D01*
X203437362Y-114518492D01*
X203450737Y-114546770D01*
X203461275Y-114576222D01*
X203468875Y-114606565D01*
X203473465Y-114637507D01*
X203475000Y-114668750D01*
X203475000Y-115306250D01*
X203473465Y-115337493D01*
X203468875Y-115368435D01*
X203461275Y-115398778D01*
X203450737Y-115428230D01*
X203437362Y-115456508D01*
X203421281Y-115483338D01*
X203402647Y-115508463D01*
X203381640Y-115531640D01*
X203358463Y-115552647D01*
X203333338Y-115571281D01*
X203306508Y-115587362D01*
X203278230Y-115600737D01*
X203248778Y-115611275D01*
X203218435Y-115618875D01*
X203187493Y-115623465D01*
X203156250Y-115625000D01*
X202443750Y-115625000D01*
X202412507Y-115623465D01*
X202381565Y-115618875D01*
X202351222Y-115611275D01*
X202321770Y-115600737D01*
X202293492Y-115587362D01*
X202266662Y-115571281D01*
X202241537Y-115552647D01*
X202218360Y-115531640D01*
X202197353Y-115508463D01*
X202178719Y-115483338D01*
X202162638Y-115456508D01*
X202149263Y-115428230D01*
X202138725Y-115398778D01*
X202131125Y-115368435D01*
X202126535Y-115337493D01*
X202125000Y-115306250D01*
X202125000Y-114668750D01*
X202126535Y-114637507D01*
X202131125Y-114606565D01*
X202138725Y-114576222D01*
X202149263Y-114546770D01*
X202162638Y-114518492D01*
X202178719Y-114491662D01*
X202197353Y-114466537D01*
X202218360Y-114443360D01*
X202241537Y-114422353D01*
X202266662Y-114403719D01*
X202293492Y-114387638D01*
X202321770Y-114374263D01*
X202351222Y-114363725D01*
X202381565Y-114356125D01*
X202412507Y-114351535D01*
X202443750Y-114350000D01*
X203156250Y-114350000D01*
X203187493Y-114351535D01*
X203187493Y-114351535D01*
G37*
D17*
X202800000Y-114987500D03*
D16*
G36*
X203187493Y-112776535D02*
G01*
X203218435Y-112781125D01*
X203248778Y-112788725D01*
X203278230Y-112799263D01*
X203306508Y-112812638D01*
X203333338Y-112828719D01*
X203358463Y-112847353D01*
X203381640Y-112868360D01*
X203402647Y-112891537D01*
X203421281Y-112916662D01*
X203437362Y-112943492D01*
X203450737Y-112971770D01*
X203461275Y-113001222D01*
X203468875Y-113031565D01*
X203473465Y-113062507D01*
X203475000Y-113093750D01*
X203475000Y-113731250D01*
X203473465Y-113762493D01*
X203468875Y-113793435D01*
X203461275Y-113823778D01*
X203450737Y-113853230D01*
X203437362Y-113881508D01*
X203421281Y-113908338D01*
X203402647Y-113933463D01*
X203381640Y-113956640D01*
X203358463Y-113977647D01*
X203333338Y-113996281D01*
X203306508Y-114012362D01*
X203278230Y-114025737D01*
X203248778Y-114036275D01*
X203218435Y-114043875D01*
X203187493Y-114048465D01*
X203156250Y-114050000D01*
X202443750Y-114050000D01*
X202412507Y-114048465D01*
X202381565Y-114043875D01*
X202351222Y-114036275D01*
X202321770Y-114025737D01*
X202293492Y-114012362D01*
X202266662Y-113996281D01*
X202241537Y-113977647D01*
X202218360Y-113956640D01*
X202197353Y-113933463D01*
X202178719Y-113908338D01*
X202162638Y-113881508D01*
X202149263Y-113853230D01*
X202138725Y-113823778D01*
X202131125Y-113793435D01*
X202126535Y-113762493D01*
X202125000Y-113731250D01*
X202125000Y-113093750D01*
X202126535Y-113062507D01*
X202131125Y-113031565D01*
X202138725Y-113001222D01*
X202149263Y-112971770D01*
X202162638Y-112943492D01*
X202178719Y-112916662D01*
X202197353Y-112891537D01*
X202218360Y-112868360D01*
X202241537Y-112847353D01*
X202266662Y-112828719D01*
X202293492Y-112812638D01*
X202321770Y-112799263D01*
X202351222Y-112788725D01*
X202381565Y-112781125D01*
X202412507Y-112776535D01*
X202443750Y-112775000D01*
X203156250Y-112775000D01*
X203187493Y-112776535D01*
X203187493Y-112776535D01*
G37*
D17*
X202800000Y-113412500D03*
D16*
G36*
X203187493Y-111239535D02*
G01*
X203218435Y-111244125D01*
X203248778Y-111251725D01*
X203278230Y-111262263D01*
X203306508Y-111275638D01*
X203333338Y-111291719D01*
X203358463Y-111310353D01*
X203381640Y-111331360D01*
X203402647Y-111354537D01*
X203421281Y-111379662D01*
X203437362Y-111406492D01*
X203450737Y-111434770D01*
X203461275Y-111464222D01*
X203468875Y-111494565D01*
X203473465Y-111525507D01*
X203475000Y-111556750D01*
X203475000Y-112194250D01*
X203473465Y-112225493D01*
X203468875Y-112256435D01*
X203461275Y-112286778D01*
X203450737Y-112316230D01*
X203437362Y-112344508D01*
X203421281Y-112371338D01*
X203402647Y-112396463D01*
X203381640Y-112419640D01*
X203358463Y-112440647D01*
X203333338Y-112459281D01*
X203306508Y-112475362D01*
X203278230Y-112488737D01*
X203248778Y-112499275D01*
X203218435Y-112506875D01*
X203187493Y-112511465D01*
X203156250Y-112513000D01*
X202443750Y-112513000D01*
X202412507Y-112511465D01*
X202381565Y-112506875D01*
X202351222Y-112499275D01*
X202321770Y-112488737D01*
X202293492Y-112475362D01*
X202266662Y-112459281D01*
X202241537Y-112440647D01*
X202218360Y-112419640D01*
X202197353Y-112396463D01*
X202178719Y-112371338D01*
X202162638Y-112344508D01*
X202149263Y-112316230D01*
X202138725Y-112286778D01*
X202131125Y-112256435D01*
X202126535Y-112225493D01*
X202125000Y-112194250D01*
X202125000Y-111556750D01*
X202126535Y-111525507D01*
X202131125Y-111494565D01*
X202138725Y-111464222D01*
X202149263Y-111434770D01*
X202162638Y-111406492D01*
X202178719Y-111379662D01*
X202197353Y-111354537D01*
X202218360Y-111331360D01*
X202241537Y-111310353D01*
X202266662Y-111291719D01*
X202293492Y-111275638D01*
X202321770Y-111262263D01*
X202351222Y-111251725D01*
X202381565Y-111244125D01*
X202412507Y-111239535D01*
X202443750Y-111238000D01*
X203156250Y-111238000D01*
X203187493Y-111239535D01*
X203187493Y-111239535D01*
G37*
D17*
X202800000Y-111875500D03*
D16*
G36*
X203187493Y-109664535D02*
G01*
X203218435Y-109669125D01*
X203248778Y-109676725D01*
X203278230Y-109687263D01*
X203306508Y-109700638D01*
X203333338Y-109716719D01*
X203358463Y-109735353D01*
X203381640Y-109756360D01*
X203402647Y-109779537D01*
X203421281Y-109804662D01*
X203437362Y-109831492D01*
X203450737Y-109859770D01*
X203461275Y-109889222D01*
X203468875Y-109919565D01*
X203473465Y-109950507D01*
X203475000Y-109981750D01*
X203475000Y-110619250D01*
X203473465Y-110650493D01*
X203468875Y-110681435D01*
X203461275Y-110711778D01*
X203450737Y-110741230D01*
X203437362Y-110769508D01*
X203421281Y-110796338D01*
X203402647Y-110821463D01*
X203381640Y-110844640D01*
X203358463Y-110865647D01*
X203333338Y-110884281D01*
X203306508Y-110900362D01*
X203278230Y-110913737D01*
X203248778Y-110924275D01*
X203218435Y-110931875D01*
X203187493Y-110936465D01*
X203156250Y-110938000D01*
X202443750Y-110938000D01*
X202412507Y-110936465D01*
X202381565Y-110931875D01*
X202351222Y-110924275D01*
X202321770Y-110913737D01*
X202293492Y-110900362D01*
X202266662Y-110884281D01*
X202241537Y-110865647D01*
X202218360Y-110844640D01*
X202197353Y-110821463D01*
X202178719Y-110796338D01*
X202162638Y-110769508D01*
X202149263Y-110741230D01*
X202138725Y-110711778D01*
X202131125Y-110681435D01*
X202126535Y-110650493D01*
X202125000Y-110619250D01*
X202125000Y-109981750D01*
X202126535Y-109950507D01*
X202131125Y-109919565D01*
X202138725Y-109889222D01*
X202149263Y-109859770D01*
X202162638Y-109831492D01*
X202178719Y-109804662D01*
X202197353Y-109779537D01*
X202218360Y-109756360D01*
X202241537Y-109735353D01*
X202266662Y-109716719D01*
X202293492Y-109700638D01*
X202321770Y-109687263D01*
X202351222Y-109676725D01*
X202381565Y-109669125D01*
X202412507Y-109664535D01*
X202443750Y-109663000D01*
X203156250Y-109663000D01*
X203187493Y-109664535D01*
X203187493Y-109664535D01*
G37*
D17*
X202800000Y-110300500D03*
D16*
G36*
X194674504Y-112406204D02*
G01*
X194698773Y-112409804D01*
X194722571Y-112415765D01*
X194745671Y-112424030D01*
X194767849Y-112434520D01*
X194788893Y-112447133D01*
X194808598Y-112461747D01*
X194826777Y-112478223D01*
X194843253Y-112496402D01*
X194857867Y-112516107D01*
X194870480Y-112537151D01*
X194880970Y-112559329D01*
X194889235Y-112582429D01*
X194895196Y-112606227D01*
X194898796Y-112630496D01*
X194900000Y-112655000D01*
X194900000Y-113155000D01*
X194898796Y-113179504D01*
X194895196Y-113203773D01*
X194889235Y-113227571D01*
X194880970Y-113250671D01*
X194870480Y-113272849D01*
X194857867Y-113293893D01*
X194843253Y-113313598D01*
X194826777Y-113331777D01*
X194808598Y-113348253D01*
X194788893Y-113362867D01*
X194767849Y-113375480D01*
X194745671Y-113385970D01*
X194722571Y-113394235D01*
X194698773Y-113400196D01*
X194674504Y-113403796D01*
X194650000Y-113405000D01*
X193000000Y-113405000D01*
X192975496Y-113403796D01*
X192951227Y-113400196D01*
X192927429Y-113394235D01*
X192904329Y-113385970D01*
X192882151Y-113375480D01*
X192861107Y-113362867D01*
X192841402Y-113348253D01*
X192823223Y-113331777D01*
X192806747Y-113313598D01*
X192792133Y-113293893D01*
X192779520Y-113272849D01*
X192769030Y-113250671D01*
X192760765Y-113227571D01*
X192754804Y-113203773D01*
X192751204Y-113179504D01*
X192750000Y-113155000D01*
X192750000Y-112655000D01*
X192751204Y-112630496D01*
X192754804Y-112606227D01*
X192760765Y-112582429D01*
X192769030Y-112559329D01*
X192779520Y-112537151D01*
X192792133Y-112516107D01*
X192806747Y-112496402D01*
X192823223Y-112478223D01*
X192841402Y-112461747D01*
X192861107Y-112447133D01*
X192882151Y-112434520D01*
X192904329Y-112424030D01*
X192927429Y-112415765D01*
X192951227Y-112409804D01*
X192975496Y-112406204D01*
X193000000Y-112405000D01*
X194650000Y-112405000D01*
X194674504Y-112406204D01*
X194674504Y-112406204D01*
G37*
D20*
X193825000Y-112905000D03*
D16*
G36*
X194674504Y-111136204D02*
G01*
X194698773Y-111139804D01*
X194722571Y-111145765D01*
X194745671Y-111154030D01*
X194767849Y-111164520D01*
X194788893Y-111177133D01*
X194808598Y-111191747D01*
X194826777Y-111208223D01*
X194843253Y-111226402D01*
X194857867Y-111246107D01*
X194870480Y-111267151D01*
X194880970Y-111289329D01*
X194889235Y-111312429D01*
X194895196Y-111336227D01*
X194898796Y-111360496D01*
X194900000Y-111385000D01*
X194900000Y-111885000D01*
X194898796Y-111909504D01*
X194895196Y-111933773D01*
X194889235Y-111957571D01*
X194880970Y-111980671D01*
X194870480Y-112002849D01*
X194857867Y-112023893D01*
X194843253Y-112043598D01*
X194826777Y-112061777D01*
X194808598Y-112078253D01*
X194788893Y-112092867D01*
X194767849Y-112105480D01*
X194745671Y-112115970D01*
X194722571Y-112124235D01*
X194698773Y-112130196D01*
X194674504Y-112133796D01*
X194650000Y-112135000D01*
X193000000Y-112135000D01*
X192975496Y-112133796D01*
X192951227Y-112130196D01*
X192927429Y-112124235D01*
X192904329Y-112115970D01*
X192882151Y-112105480D01*
X192861107Y-112092867D01*
X192841402Y-112078253D01*
X192823223Y-112061777D01*
X192806747Y-112043598D01*
X192792133Y-112023893D01*
X192779520Y-112002849D01*
X192769030Y-111980671D01*
X192760765Y-111957571D01*
X192754804Y-111933773D01*
X192751204Y-111909504D01*
X192750000Y-111885000D01*
X192750000Y-111385000D01*
X192751204Y-111360496D01*
X192754804Y-111336227D01*
X192760765Y-111312429D01*
X192769030Y-111289329D01*
X192779520Y-111267151D01*
X192792133Y-111246107D01*
X192806747Y-111226402D01*
X192823223Y-111208223D01*
X192841402Y-111191747D01*
X192861107Y-111177133D01*
X192882151Y-111164520D01*
X192904329Y-111154030D01*
X192927429Y-111145765D01*
X192951227Y-111139804D01*
X192975496Y-111136204D01*
X193000000Y-111135000D01*
X194650000Y-111135000D01*
X194674504Y-111136204D01*
X194674504Y-111136204D01*
G37*
D20*
X193825000Y-111635000D03*
D16*
G36*
X194674504Y-109866204D02*
G01*
X194698773Y-109869804D01*
X194722571Y-109875765D01*
X194745671Y-109884030D01*
X194767849Y-109894520D01*
X194788893Y-109907133D01*
X194808598Y-109921747D01*
X194826777Y-109938223D01*
X194843253Y-109956402D01*
X194857867Y-109976107D01*
X194870480Y-109997151D01*
X194880970Y-110019329D01*
X194889235Y-110042429D01*
X194895196Y-110066227D01*
X194898796Y-110090496D01*
X194900000Y-110115000D01*
X194900000Y-110615000D01*
X194898796Y-110639504D01*
X194895196Y-110663773D01*
X194889235Y-110687571D01*
X194880970Y-110710671D01*
X194870480Y-110732849D01*
X194857867Y-110753893D01*
X194843253Y-110773598D01*
X194826777Y-110791777D01*
X194808598Y-110808253D01*
X194788893Y-110822867D01*
X194767849Y-110835480D01*
X194745671Y-110845970D01*
X194722571Y-110854235D01*
X194698773Y-110860196D01*
X194674504Y-110863796D01*
X194650000Y-110865000D01*
X193000000Y-110865000D01*
X192975496Y-110863796D01*
X192951227Y-110860196D01*
X192927429Y-110854235D01*
X192904329Y-110845970D01*
X192882151Y-110835480D01*
X192861107Y-110822867D01*
X192841402Y-110808253D01*
X192823223Y-110791777D01*
X192806747Y-110773598D01*
X192792133Y-110753893D01*
X192779520Y-110732849D01*
X192769030Y-110710671D01*
X192760765Y-110687571D01*
X192754804Y-110663773D01*
X192751204Y-110639504D01*
X192750000Y-110615000D01*
X192750000Y-110115000D01*
X192751204Y-110090496D01*
X192754804Y-110066227D01*
X192760765Y-110042429D01*
X192769030Y-110019329D01*
X192779520Y-109997151D01*
X192792133Y-109976107D01*
X192806747Y-109956402D01*
X192823223Y-109938223D01*
X192841402Y-109921747D01*
X192861107Y-109907133D01*
X192882151Y-109894520D01*
X192904329Y-109884030D01*
X192927429Y-109875765D01*
X192951227Y-109869804D01*
X192975496Y-109866204D01*
X193000000Y-109865000D01*
X194650000Y-109865000D01*
X194674504Y-109866204D01*
X194674504Y-109866204D01*
G37*
D20*
X193825000Y-110365000D03*
D16*
G36*
X194674504Y-108596204D02*
G01*
X194698773Y-108599804D01*
X194722571Y-108605765D01*
X194745671Y-108614030D01*
X194767849Y-108624520D01*
X194788893Y-108637133D01*
X194808598Y-108651747D01*
X194826777Y-108668223D01*
X194843253Y-108686402D01*
X194857867Y-108706107D01*
X194870480Y-108727151D01*
X194880970Y-108749329D01*
X194889235Y-108772429D01*
X194895196Y-108796227D01*
X194898796Y-108820496D01*
X194900000Y-108845000D01*
X194900000Y-109345000D01*
X194898796Y-109369504D01*
X194895196Y-109393773D01*
X194889235Y-109417571D01*
X194880970Y-109440671D01*
X194870480Y-109462849D01*
X194857867Y-109483893D01*
X194843253Y-109503598D01*
X194826777Y-109521777D01*
X194808598Y-109538253D01*
X194788893Y-109552867D01*
X194767849Y-109565480D01*
X194745671Y-109575970D01*
X194722571Y-109584235D01*
X194698773Y-109590196D01*
X194674504Y-109593796D01*
X194650000Y-109595000D01*
X193000000Y-109595000D01*
X192975496Y-109593796D01*
X192951227Y-109590196D01*
X192927429Y-109584235D01*
X192904329Y-109575970D01*
X192882151Y-109565480D01*
X192861107Y-109552867D01*
X192841402Y-109538253D01*
X192823223Y-109521777D01*
X192806747Y-109503598D01*
X192792133Y-109483893D01*
X192779520Y-109462849D01*
X192769030Y-109440671D01*
X192760765Y-109417571D01*
X192754804Y-109393773D01*
X192751204Y-109369504D01*
X192750000Y-109345000D01*
X192750000Y-108845000D01*
X192751204Y-108820496D01*
X192754804Y-108796227D01*
X192760765Y-108772429D01*
X192769030Y-108749329D01*
X192779520Y-108727151D01*
X192792133Y-108706107D01*
X192806747Y-108686402D01*
X192823223Y-108668223D01*
X192841402Y-108651747D01*
X192861107Y-108637133D01*
X192882151Y-108624520D01*
X192904329Y-108614030D01*
X192927429Y-108605765D01*
X192951227Y-108599804D01*
X192975496Y-108596204D01*
X193000000Y-108595000D01*
X194650000Y-108595000D01*
X194674504Y-108596204D01*
X194674504Y-108596204D01*
G37*
D20*
X193825000Y-109095000D03*
D16*
G36*
X199824504Y-108596204D02*
G01*
X199848773Y-108599804D01*
X199872571Y-108605765D01*
X199895671Y-108614030D01*
X199917849Y-108624520D01*
X199938893Y-108637133D01*
X199958598Y-108651747D01*
X199976777Y-108668223D01*
X199993253Y-108686402D01*
X200007867Y-108706107D01*
X200020480Y-108727151D01*
X200030970Y-108749329D01*
X200039235Y-108772429D01*
X200045196Y-108796227D01*
X200048796Y-108820496D01*
X200050000Y-108845000D01*
X200050000Y-109345000D01*
X200048796Y-109369504D01*
X200045196Y-109393773D01*
X200039235Y-109417571D01*
X200030970Y-109440671D01*
X200020480Y-109462849D01*
X200007867Y-109483893D01*
X199993253Y-109503598D01*
X199976777Y-109521777D01*
X199958598Y-109538253D01*
X199938893Y-109552867D01*
X199917849Y-109565480D01*
X199895671Y-109575970D01*
X199872571Y-109584235D01*
X199848773Y-109590196D01*
X199824504Y-109593796D01*
X199800000Y-109595000D01*
X198150000Y-109595000D01*
X198125496Y-109593796D01*
X198101227Y-109590196D01*
X198077429Y-109584235D01*
X198054329Y-109575970D01*
X198032151Y-109565480D01*
X198011107Y-109552867D01*
X197991402Y-109538253D01*
X197973223Y-109521777D01*
X197956747Y-109503598D01*
X197942133Y-109483893D01*
X197929520Y-109462849D01*
X197919030Y-109440671D01*
X197910765Y-109417571D01*
X197904804Y-109393773D01*
X197901204Y-109369504D01*
X197900000Y-109345000D01*
X197900000Y-108845000D01*
X197901204Y-108820496D01*
X197904804Y-108796227D01*
X197910765Y-108772429D01*
X197919030Y-108749329D01*
X197929520Y-108727151D01*
X197942133Y-108706107D01*
X197956747Y-108686402D01*
X197973223Y-108668223D01*
X197991402Y-108651747D01*
X198011107Y-108637133D01*
X198032151Y-108624520D01*
X198054329Y-108614030D01*
X198077429Y-108605765D01*
X198101227Y-108599804D01*
X198125496Y-108596204D01*
X198150000Y-108595000D01*
X199800000Y-108595000D01*
X199824504Y-108596204D01*
X199824504Y-108596204D01*
G37*
D20*
X198975000Y-109095000D03*
D16*
G36*
X199824504Y-109866204D02*
G01*
X199848773Y-109869804D01*
X199872571Y-109875765D01*
X199895671Y-109884030D01*
X199917849Y-109894520D01*
X199938893Y-109907133D01*
X199958598Y-109921747D01*
X199976777Y-109938223D01*
X199993253Y-109956402D01*
X200007867Y-109976107D01*
X200020480Y-109997151D01*
X200030970Y-110019329D01*
X200039235Y-110042429D01*
X200045196Y-110066227D01*
X200048796Y-110090496D01*
X200050000Y-110115000D01*
X200050000Y-110615000D01*
X200048796Y-110639504D01*
X200045196Y-110663773D01*
X200039235Y-110687571D01*
X200030970Y-110710671D01*
X200020480Y-110732849D01*
X200007867Y-110753893D01*
X199993253Y-110773598D01*
X199976777Y-110791777D01*
X199958598Y-110808253D01*
X199938893Y-110822867D01*
X199917849Y-110835480D01*
X199895671Y-110845970D01*
X199872571Y-110854235D01*
X199848773Y-110860196D01*
X199824504Y-110863796D01*
X199800000Y-110865000D01*
X198150000Y-110865000D01*
X198125496Y-110863796D01*
X198101227Y-110860196D01*
X198077429Y-110854235D01*
X198054329Y-110845970D01*
X198032151Y-110835480D01*
X198011107Y-110822867D01*
X197991402Y-110808253D01*
X197973223Y-110791777D01*
X197956747Y-110773598D01*
X197942133Y-110753893D01*
X197929520Y-110732849D01*
X197919030Y-110710671D01*
X197910765Y-110687571D01*
X197904804Y-110663773D01*
X197901204Y-110639504D01*
X197900000Y-110615000D01*
X197900000Y-110115000D01*
X197901204Y-110090496D01*
X197904804Y-110066227D01*
X197910765Y-110042429D01*
X197919030Y-110019329D01*
X197929520Y-109997151D01*
X197942133Y-109976107D01*
X197956747Y-109956402D01*
X197973223Y-109938223D01*
X197991402Y-109921747D01*
X198011107Y-109907133D01*
X198032151Y-109894520D01*
X198054329Y-109884030D01*
X198077429Y-109875765D01*
X198101227Y-109869804D01*
X198125496Y-109866204D01*
X198150000Y-109865000D01*
X199800000Y-109865000D01*
X199824504Y-109866204D01*
X199824504Y-109866204D01*
G37*
D20*
X198975000Y-110365000D03*
D16*
G36*
X199824504Y-111136204D02*
G01*
X199848773Y-111139804D01*
X199872571Y-111145765D01*
X199895671Y-111154030D01*
X199917849Y-111164520D01*
X199938893Y-111177133D01*
X199958598Y-111191747D01*
X199976777Y-111208223D01*
X199993253Y-111226402D01*
X200007867Y-111246107D01*
X200020480Y-111267151D01*
X200030970Y-111289329D01*
X200039235Y-111312429D01*
X200045196Y-111336227D01*
X200048796Y-111360496D01*
X200050000Y-111385000D01*
X200050000Y-111885000D01*
X200048796Y-111909504D01*
X200045196Y-111933773D01*
X200039235Y-111957571D01*
X200030970Y-111980671D01*
X200020480Y-112002849D01*
X200007867Y-112023893D01*
X199993253Y-112043598D01*
X199976777Y-112061777D01*
X199958598Y-112078253D01*
X199938893Y-112092867D01*
X199917849Y-112105480D01*
X199895671Y-112115970D01*
X199872571Y-112124235D01*
X199848773Y-112130196D01*
X199824504Y-112133796D01*
X199800000Y-112135000D01*
X198150000Y-112135000D01*
X198125496Y-112133796D01*
X198101227Y-112130196D01*
X198077429Y-112124235D01*
X198054329Y-112115970D01*
X198032151Y-112105480D01*
X198011107Y-112092867D01*
X197991402Y-112078253D01*
X197973223Y-112061777D01*
X197956747Y-112043598D01*
X197942133Y-112023893D01*
X197929520Y-112002849D01*
X197919030Y-111980671D01*
X197910765Y-111957571D01*
X197904804Y-111933773D01*
X197901204Y-111909504D01*
X197900000Y-111885000D01*
X197900000Y-111385000D01*
X197901204Y-111360496D01*
X197904804Y-111336227D01*
X197910765Y-111312429D01*
X197919030Y-111289329D01*
X197929520Y-111267151D01*
X197942133Y-111246107D01*
X197956747Y-111226402D01*
X197973223Y-111208223D01*
X197991402Y-111191747D01*
X198011107Y-111177133D01*
X198032151Y-111164520D01*
X198054329Y-111154030D01*
X198077429Y-111145765D01*
X198101227Y-111139804D01*
X198125496Y-111136204D01*
X198150000Y-111135000D01*
X199800000Y-111135000D01*
X199824504Y-111136204D01*
X199824504Y-111136204D01*
G37*
D20*
X198975000Y-111635000D03*
D16*
G36*
X199824504Y-112406204D02*
G01*
X199848773Y-112409804D01*
X199872571Y-112415765D01*
X199895671Y-112424030D01*
X199917849Y-112434520D01*
X199938893Y-112447133D01*
X199958598Y-112461747D01*
X199976777Y-112478223D01*
X199993253Y-112496402D01*
X200007867Y-112516107D01*
X200020480Y-112537151D01*
X200030970Y-112559329D01*
X200039235Y-112582429D01*
X200045196Y-112606227D01*
X200048796Y-112630496D01*
X200050000Y-112655000D01*
X200050000Y-113155000D01*
X200048796Y-113179504D01*
X200045196Y-113203773D01*
X200039235Y-113227571D01*
X200030970Y-113250671D01*
X200020480Y-113272849D01*
X200007867Y-113293893D01*
X199993253Y-113313598D01*
X199976777Y-113331777D01*
X199958598Y-113348253D01*
X199938893Y-113362867D01*
X199917849Y-113375480D01*
X199895671Y-113385970D01*
X199872571Y-113394235D01*
X199848773Y-113400196D01*
X199824504Y-113403796D01*
X199800000Y-113405000D01*
X198150000Y-113405000D01*
X198125496Y-113403796D01*
X198101227Y-113400196D01*
X198077429Y-113394235D01*
X198054329Y-113385970D01*
X198032151Y-113375480D01*
X198011107Y-113362867D01*
X197991402Y-113348253D01*
X197973223Y-113331777D01*
X197956747Y-113313598D01*
X197942133Y-113293893D01*
X197929520Y-113272849D01*
X197919030Y-113250671D01*
X197910765Y-113227571D01*
X197904804Y-113203773D01*
X197901204Y-113179504D01*
X197900000Y-113155000D01*
X197900000Y-112655000D01*
X197901204Y-112630496D01*
X197904804Y-112606227D01*
X197910765Y-112582429D01*
X197919030Y-112559329D01*
X197929520Y-112537151D01*
X197942133Y-112516107D01*
X197956747Y-112496402D01*
X197973223Y-112478223D01*
X197991402Y-112461747D01*
X198011107Y-112447133D01*
X198032151Y-112434520D01*
X198054329Y-112424030D01*
X198077429Y-112415765D01*
X198101227Y-112409804D01*
X198125496Y-112406204D01*
X198150000Y-112405000D01*
X199800000Y-112405000D01*
X199824504Y-112406204D01*
X199824504Y-112406204D01*
G37*
D20*
X198975000Y-112905000D03*
M02*
