G04 #@! TF.GenerationSoftware,KiCad,Pcbnew,(5.1.2)-1*
G04 #@! TF.CreationDate,2021-06-27T21:29:46+09:00*
G04 #@! TF.ProjectId,IR,49522e6b-6963-4616-945f-706362585858,v1.1*
G04 #@! TF.SameCoordinates,Original*
G04 #@! TF.FileFunction,Copper,L1,Top*
G04 #@! TF.FilePolarity,Positive*
%FSLAX46Y46*%
G04 Gerber Fmt 4.6, Leading zero omitted, Abs format (unit mm)*
G04 Created by KiCad (PCBNEW (5.1.2)-1) date 2021-06-27 21:29:46*
%MOMM*%
%LPD*%
G04 APERTURE LIST*
%ADD10O,1.800000X1.524000*%
%ADD11C,0.050000*%
%ADD12C,0.875000*%
%ADD13C,0.975000*%
%ADD14R,0.650000X1.060000*%
%ADD15R,4.500000X2.000000*%
%ADD16C,1.000000*%
%ADD17R,0.450000X1.500000*%
%ADD18R,1.700000X1.700000*%
%ADD19O,1.700000X1.700000*%
%ADD20R,0.450000X0.700000*%
%ADD21C,0.800000*%
%ADD22C,0.300000*%
%ADD23C,0.254000*%
G04 APERTURE END LIST*
D10*
X185200000Y-114000000D03*
X185200000Y-112000000D03*
X185200000Y-110000000D03*
X185200000Y-108000000D03*
D11*
G36*
X192215691Y-116526053D02*
G01*
X192236926Y-116529203D01*
X192257750Y-116534419D01*
X192277962Y-116541651D01*
X192297368Y-116550830D01*
X192315781Y-116561866D01*
X192333024Y-116574654D01*
X192348930Y-116589070D01*
X192363346Y-116604976D01*
X192376134Y-116622219D01*
X192387170Y-116640632D01*
X192396349Y-116660038D01*
X192403581Y-116680250D01*
X192408797Y-116701074D01*
X192411947Y-116722309D01*
X192413000Y-116743750D01*
X192413000Y-117256250D01*
X192411947Y-117277691D01*
X192408797Y-117298926D01*
X192403581Y-117319750D01*
X192396349Y-117339962D01*
X192387170Y-117359368D01*
X192376134Y-117377781D01*
X192363346Y-117395024D01*
X192348930Y-117410930D01*
X192333024Y-117425346D01*
X192315781Y-117438134D01*
X192297368Y-117449170D01*
X192277962Y-117458349D01*
X192257750Y-117465581D01*
X192236926Y-117470797D01*
X192215691Y-117473947D01*
X192194250Y-117475000D01*
X191756750Y-117475000D01*
X191735309Y-117473947D01*
X191714074Y-117470797D01*
X191693250Y-117465581D01*
X191673038Y-117458349D01*
X191653632Y-117449170D01*
X191635219Y-117438134D01*
X191617976Y-117425346D01*
X191602070Y-117410930D01*
X191587654Y-117395024D01*
X191574866Y-117377781D01*
X191563830Y-117359368D01*
X191554651Y-117339962D01*
X191547419Y-117319750D01*
X191542203Y-117298926D01*
X191539053Y-117277691D01*
X191538000Y-117256250D01*
X191538000Y-116743750D01*
X191539053Y-116722309D01*
X191542203Y-116701074D01*
X191547419Y-116680250D01*
X191554651Y-116660038D01*
X191563830Y-116640632D01*
X191574866Y-116622219D01*
X191587654Y-116604976D01*
X191602070Y-116589070D01*
X191617976Y-116574654D01*
X191635219Y-116561866D01*
X191653632Y-116550830D01*
X191673038Y-116541651D01*
X191693250Y-116534419D01*
X191714074Y-116529203D01*
X191735309Y-116526053D01*
X191756750Y-116525000D01*
X192194250Y-116525000D01*
X192215691Y-116526053D01*
X192215691Y-116526053D01*
G37*
D12*
X191975500Y-117000000D03*
D11*
G36*
X190640691Y-116526053D02*
G01*
X190661926Y-116529203D01*
X190682750Y-116534419D01*
X190702962Y-116541651D01*
X190722368Y-116550830D01*
X190740781Y-116561866D01*
X190758024Y-116574654D01*
X190773930Y-116589070D01*
X190788346Y-116604976D01*
X190801134Y-116622219D01*
X190812170Y-116640632D01*
X190821349Y-116660038D01*
X190828581Y-116680250D01*
X190833797Y-116701074D01*
X190836947Y-116722309D01*
X190838000Y-116743750D01*
X190838000Y-117256250D01*
X190836947Y-117277691D01*
X190833797Y-117298926D01*
X190828581Y-117319750D01*
X190821349Y-117339962D01*
X190812170Y-117359368D01*
X190801134Y-117377781D01*
X190788346Y-117395024D01*
X190773930Y-117410930D01*
X190758024Y-117425346D01*
X190740781Y-117438134D01*
X190722368Y-117449170D01*
X190702962Y-117458349D01*
X190682750Y-117465581D01*
X190661926Y-117470797D01*
X190640691Y-117473947D01*
X190619250Y-117475000D01*
X190181750Y-117475000D01*
X190160309Y-117473947D01*
X190139074Y-117470797D01*
X190118250Y-117465581D01*
X190098038Y-117458349D01*
X190078632Y-117449170D01*
X190060219Y-117438134D01*
X190042976Y-117425346D01*
X190027070Y-117410930D01*
X190012654Y-117395024D01*
X189999866Y-117377781D01*
X189988830Y-117359368D01*
X189979651Y-117339962D01*
X189972419Y-117319750D01*
X189967203Y-117298926D01*
X189964053Y-117277691D01*
X189963000Y-117256250D01*
X189963000Y-116743750D01*
X189964053Y-116722309D01*
X189967203Y-116701074D01*
X189972419Y-116680250D01*
X189979651Y-116660038D01*
X189988830Y-116640632D01*
X189999866Y-116622219D01*
X190012654Y-116604976D01*
X190027070Y-116589070D01*
X190042976Y-116574654D01*
X190060219Y-116561866D01*
X190078632Y-116550830D01*
X190098038Y-116541651D01*
X190118250Y-116534419D01*
X190139074Y-116529203D01*
X190160309Y-116526053D01*
X190181750Y-116525000D01*
X190619250Y-116525000D01*
X190640691Y-116526053D01*
X190640691Y-116526053D01*
G37*
D12*
X190400500Y-117000000D03*
D11*
G36*
X192205142Y-114301174D02*
G01*
X192228803Y-114304684D01*
X192252007Y-114310496D01*
X192274529Y-114318554D01*
X192296153Y-114328782D01*
X192316670Y-114341079D01*
X192335883Y-114355329D01*
X192353607Y-114371393D01*
X192369671Y-114389117D01*
X192383921Y-114408330D01*
X192396218Y-114428847D01*
X192406446Y-114450471D01*
X192414504Y-114472993D01*
X192420316Y-114496197D01*
X192423826Y-114519858D01*
X192425000Y-114543750D01*
X192425000Y-115456250D01*
X192423826Y-115480142D01*
X192420316Y-115503803D01*
X192414504Y-115527007D01*
X192406446Y-115549529D01*
X192396218Y-115571153D01*
X192383921Y-115591670D01*
X192369671Y-115610883D01*
X192353607Y-115628607D01*
X192335883Y-115644671D01*
X192316670Y-115658921D01*
X192296153Y-115671218D01*
X192274529Y-115681446D01*
X192252007Y-115689504D01*
X192228803Y-115695316D01*
X192205142Y-115698826D01*
X192181250Y-115700000D01*
X191693750Y-115700000D01*
X191669858Y-115698826D01*
X191646197Y-115695316D01*
X191622993Y-115689504D01*
X191600471Y-115681446D01*
X191578847Y-115671218D01*
X191558330Y-115658921D01*
X191539117Y-115644671D01*
X191521393Y-115628607D01*
X191505329Y-115610883D01*
X191491079Y-115591670D01*
X191478782Y-115571153D01*
X191468554Y-115549529D01*
X191460496Y-115527007D01*
X191454684Y-115503803D01*
X191451174Y-115480142D01*
X191450000Y-115456250D01*
X191450000Y-114543750D01*
X191451174Y-114519858D01*
X191454684Y-114496197D01*
X191460496Y-114472993D01*
X191468554Y-114450471D01*
X191478782Y-114428847D01*
X191491079Y-114408330D01*
X191505329Y-114389117D01*
X191521393Y-114371393D01*
X191539117Y-114355329D01*
X191558330Y-114341079D01*
X191578847Y-114328782D01*
X191600471Y-114318554D01*
X191622993Y-114310496D01*
X191646197Y-114304684D01*
X191669858Y-114301174D01*
X191693750Y-114300000D01*
X192181250Y-114300000D01*
X192205142Y-114301174D01*
X192205142Y-114301174D01*
G37*
D13*
X191937500Y-115000000D03*
D11*
G36*
X190330142Y-114301174D02*
G01*
X190353803Y-114304684D01*
X190377007Y-114310496D01*
X190399529Y-114318554D01*
X190421153Y-114328782D01*
X190441670Y-114341079D01*
X190460883Y-114355329D01*
X190478607Y-114371393D01*
X190494671Y-114389117D01*
X190508921Y-114408330D01*
X190521218Y-114428847D01*
X190531446Y-114450471D01*
X190539504Y-114472993D01*
X190545316Y-114496197D01*
X190548826Y-114519858D01*
X190550000Y-114543750D01*
X190550000Y-115456250D01*
X190548826Y-115480142D01*
X190545316Y-115503803D01*
X190539504Y-115527007D01*
X190531446Y-115549529D01*
X190521218Y-115571153D01*
X190508921Y-115591670D01*
X190494671Y-115610883D01*
X190478607Y-115628607D01*
X190460883Y-115644671D01*
X190441670Y-115658921D01*
X190421153Y-115671218D01*
X190399529Y-115681446D01*
X190377007Y-115689504D01*
X190353803Y-115695316D01*
X190330142Y-115698826D01*
X190306250Y-115700000D01*
X189818750Y-115700000D01*
X189794858Y-115698826D01*
X189771197Y-115695316D01*
X189747993Y-115689504D01*
X189725471Y-115681446D01*
X189703847Y-115671218D01*
X189683330Y-115658921D01*
X189664117Y-115644671D01*
X189646393Y-115628607D01*
X189630329Y-115610883D01*
X189616079Y-115591670D01*
X189603782Y-115571153D01*
X189593554Y-115549529D01*
X189585496Y-115527007D01*
X189579684Y-115503803D01*
X189576174Y-115480142D01*
X189575000Y-115456250D01*
X189575000Y-114543750D01*
X189576174Y-114519858D01*
X189579684Y-114496197D01*
X189585496Y-114472993D01*
X189593554Y-114450471D01*
X189603782Y-114428847D01*
X189616079Y-114408330D01*
X189630329Y-114389117D01*
X189646393Y-114371393D01*
X189664117Y-114355329D01*
X189683330Y-114341079D01*
X189703847Y-114328782D01*
X189725471Y-114318554D01*
X189747993Y-114310496D01*
X189771197Y-114304684D01*
X189794858Y-114301174D01*
X189818750Y-114300000D01*
X190306250Y-114300000D01*
X190330142Y-114301174D01*
X190330142Y-114301174D01*
G37*
D13*
X190062500Y-115000000D03*
D11*
G36*
X192277691Y-106776053D02*
G01*
X192298926Y-106779203D01*
X192319750Y-106784419D01*
X192339962Y-106791651D01*
X192359368Y-106800830D01*
X192377781Y-106811866D01*
X192395024Y-106824654D01*
X192410930Y-106839070D01*
X192425346Y-106854976D01*
X192438134Y-106872219D01*
X192449170Y-106890632D01*
X192458349Y-106910038D01*
X192465581Y-106930250D01*
X192470797Y-106951074D01*
X192473947Y-106972309D01*
X192475000Y-106993750D01*
X192475000Y-107431250D01*
X192473947Y-107452691D01*
X192470797Y-107473926D01*
X192465581Y-107494750D01*
X192458349Y-107514962D01*
X192449170Y-107534368D01*
X192438134Y-107552781D01*
X192425346Y-107570024D01*
X192410930Y-107585930D01*
X192395024Y-107600346D01*
X192377781Y-107613134D01*
X192359368Y-107624170D01*
X192339962Y-107633349D01*
X192319750Y-107640581D01*
X192298926Y-107645797D01*
X192277691Y-107648947D01*
X192256250Y-107650000D01*
X191743750Y-107650000D01*
X191722309Y-107648947D01*
X191701074Y-107645797D01*
X191680250Y-107640581D01*
X191660038Y-107633349D01*
X191640632Y-107624170D01*
X191622219Y-107613134D01*
X191604976Y-107600346D01*
X191589070Y-107585930D01*
X191574654Y-107570024D01*
X191561866Y-107552781D01*
X191550830Y-107534368D01*
X191541651Y-107514962D01*
X191534419Y-107494750D01*
X191529203Y-107473926D01*
X191526053Y-107452691D01*
X191525000Y-107431250D01*
X191525000Y-106993750D01*
X191526053Y-106972309D01*
X191529203Y-106951074D01*
X191534419Y-106930250D01*
X191541651Y-106910038D01*
X191550830Y-106890632D01*
X191561866Y-106872219D01*
X191574654Y-106854976D01*
X191589070Y-106839070D01*
X191604976Y-106824654D01*
X191622219Y-106811866D01*
X191640632Y-106800830D01*
X191660038Y-106791651D01*
X191680250Y-106784419D01*
X191701074Y-106779203D01*
X191722309Y-106776053D01*
X191743750Y-106775000D01*
X192256250Y-106775000D01*
X192277691Y-106776053D01*
X192277691Y-106776053D01*
G37*
D12*
X192000000Y-107212500D03*
D11*
G36*
X192277691Y-108351053D02*
G01*
X192298926Y-108354203D01*
X192319750Y-108359419D01*
X192339962Y-108366651D01*
X192359368Y-108375830D01*
X192377781Y-108386866D01*
X192395024Y-108399654D01*
X192410930Y-108414070D01*
X192425346Y-108429976D01*
X192438134Y-108447219D01*
X192449170Y-108465632D01*
X192458349Y-108485038D01*
X192465581Y-108505250D01*
X192470797Y-108526074D01*
X192473947Y-108547309D01*
X192475000Y-108568750D01*
X192475000Y-109006250D01*
X192473947Y-109027691D01*
X192470797Y-109048926D01*
X192465581Y-109069750D01*
X192458349Y-109089962D01*
X192449170Y-109109368D01*
X192438134Y-109127781D01*
X192425346Y-109145024D01*
X192410930Y-109160930D01*
X192395024Y-109175346D01*
X192377781Y-109188134D01*
X192359368Y-109199170D01*
X192339962Y-109208349D01*
X192319750Y-109215581D01*
X192298926Y-109220797D01*
X192277691Y-109223947D01*
X192256250Y-109225000D01*
X191743750Y-109225000D01*
X191722309Y-109223947D01*
X191701074Y-109220797D01*
X191680250Y-109215581D01*
X191660038Y-109208349D01*
X191640632Y-109199170D01*
X191622219Y-109188134D01*
X191604976Y-109175346D01*
X191589070Y-109160930D01*
X191574654Y-109145024D01*
X191561866Y-109127781D01*
X191550830Y-109109368D01*
X191541651Y-109089962D01*
X191534419Y-109069750D01*
X191529203Y-109048926D01*
X191526053Y-109027691D01*
X191525000Y-109006250D01*
X191525000Y-108568750D01*
X191526053Y-108547309D01*
X191529203Y-108526074D01*
X191534419Y-108505250D01*
X191541651Y-108485038D01*
X191550830Y-108465632D01*
X191561866Y-108447219D01*
X191574654Y-108429976D01*
X191589070Y-108414070D01*
X191604976Y-108399654D01*
X191622219Y-108386866D01*
X191640632Y-108375830D01*
X191660038Y-108366651D01*
X191680250Y-108359419D01*
X191701074Y-108354203D01*
X191722309Y-108351053D01*
X191743750Y-108350000D01*
X192256250Y-108350000D01*
X192277691Y-108351053D01*
X192277691Y-108351053D01*
G37*
D12*
X192000000Y-108787500D03*
D11*
G36*
X190580142Y-108251174D02*
G01*
X190603803Y-108254684D01*
X190627007Y-108260496D01*
X190649529Y-108268554D01*
X190671153Y-108278782D01*
X190691670Y-108291079D01*
X190710883Y-108305329D01*
X190728607Y-108321393D01*
X190744671Y-108339117D01*
X190758921Y-108358330D01*
X190771218Y-108378847D01*
X190781446Y-108400471D01*
X190789504Y-108422993D01*
X190795316Y-108446197D01*
X190798826Y-108469858D01*
X190800000Y-108493750D01*
X190800000Y-108981250D01*
X190798826Y-109005142D01*
X190795316Y-109028803D01*
X190789504Y-109052007D01*
X190781446Y-109074529D01*
X190771218Y-109096153D01*
X190758921Y-109116670D01*
X190744671Y-109135883D01*
X190728607Y-109153607D01*
X190710883Y-109169671D01*
X190691670Y-109183921D01*
X190671153Y-109196218D01*
X190649529Y-109206446D01*
X190627007Y-109214504D01*
X190603803Y-109220316D01*
X190580142Y-109223826D01*
X190556250Y-109225000D01*
X189643750Y-109225000D01*
X189619858Y-109223826D01*
X189596197Y-109220316D01*
X189572993Y-109214504D01*
X189550471Y-109206446D01*
X189528847Y-109196218D01*
X189508330Y-109183921D01*
X189489117Y-109169671D01*
X189471393Y-109153607D01*
X189455329Y-109135883D01*
X189441079Y-109116670D01*
X189428782Y-109096153D01*
X189418554Y-109074529D01*
X189410496Y-109052007D01*
X189404684Y-109028803D01*
X189401174Y-109005142D01*
X189400000Y-108981250D01*
X189400000Y-108493750D01*
X189401174Y-108469858D01*
X189404684Y-108446197D01*
X189410496Y-108422993D01*
X189418554Y-108400471D01*
X189428782Y-108378847D01*
X189441079Y-108358330D01*
X189455329Y-108339117D01*
X189471393Y-108321393D01*
X189489117Y-108305329D01*
X189508330Y-108291079D01*
X189528847Y-108278782D01*
X189550471Y-108268554D01*
X189572993Y-108260496D01*
X189596197Y-108254684D01*
X189619858Y-108251174D01*
X189643750Y-108250000D01*
X190556250Y-108250000D01*
X190580142Y-108251174D01*
X190580142Y-108251174D01*
G37*
D13*
X190100000Y-108737500D03*
D11*
G36*
X190580142Y-106376174D02*
G01*
X190603803Y-106379684D01*
X190627007Y-106385496D01*
X190649529Y-106393554D01*
X190671153Y-106403782D01*
X190691670Y-106416079D01*
X190710883Y-106430329D01*
X190728607Y-106446393D01*
X190744671Y-106464117D01*
X190758921Y-106483330D01*
X190771218Y-106503847D01*
X190781446Y-106525471D01*
X190789504Y-106547993D01*
X190795316Y-106571197D01*
X190798826Y-106594858D01*
X190800000Y-106618750D01*
X190800000Y-107106250D01*
X190798826Y-107130142D01*
X190795316Y-107153803D01*
X190789504Y-107177007D01*
X190781446Y-107199529D01*
X190771218Y-107221153D01*
X190758921Y-107241670D01*
X190744671Y-107260883D01*
X190728607Y-107278607D01*
X190710883Y-107294671D01*
X190691670Y-107308921D01*
X190671153Y-107321218D01*
X190649529Y-107331446D01*
X190627007Y-107339504D01*
X190603803Y-107345316D01*
X190580142Y-107348826D01*
X190556250Y-107350000D01*
X189643750Y-107350000D01*
X189619858Y-107348826D01*
X189596197Y-107345316D01*
X189572993Y-107339504D01*
X189550471Y-107331446D01*
X189528847Y-107321218D01*
X189508330Y-107308921D01*
X189489117Y-107294671D01*
X189471393Y-107278607D01*
X189455329Y-107260883D01*
X189441079Y-107241670D01*
X189428782Y-107221153D01*
X189418554Y-107199529D01*
X189410496Y-107177007D01*
X189404684Y-107153803D01*
X189401174Y-107130142D01*
X189400000Y-107106250D01*
X189400000Y-106618750D01*
X189401174Y-106594858D01*
X189404684Y-106571197D01*
X189410496Y-106547993D01*
X189418554Y-106525471D01*
X189428782Y-106503847D01*
X189441079Y-106483330D01*
X189455329Y-106464117D01*
X189471393Y-106446393D01*
X189489117Y-106430329D01*
X189508330Y-106416079D01*
X189528847Y-106403782D01*
X189550471Y-106393554D01*
X189572993Y-106385496D01*
X189596197Y-106379684D01*
X189619858Y-106376174D01*
X189643750Y-106375000D01*
X190556250Y-106375000D01*
X190580142Y-106376174D01*
X190580142Y-106376174D01*
G37*
D13*
X190100000Y-106862500D03*
D11*
G36*
X203327691Y-104226053D02*
G01*
X203348926Y-104229203D01*
X203369750Y-104234419D01*
X203389962Y-104241651D01*
X203409368Y-104250830D01*
X203427781Y-104261866D01*
X203445024Y-104274654D01*
X203460930Y-104289070D01*
X203475346Y-104304976D01*
X203488134Y-104322219D01*
X203499170Y-104340632D01*
X203508349Y-104360038D01*
X203515581Y-104380250D01*
X203520797Y-104401074D01*
X203523947Y-104422309D01*
X203525000Y-104443750D01*
X203525000Y-104956250D01*
X203523947Y-104977691D01*
X203520797Y-104998926D01*
X203515581Y-105019750D01*
X203508349Y-105039962D01*
X203499170Y-105059368D01*
X203488134Y-105077781D01*
X203475346Y-105095024D01*
X203460930Y-105110930D01*
X203445024Y-105125346D01*
X203427781Y-105138134D01*
X203409368Y-105149170D01*
X203389962Y-105158349D01*
X203369750Y-105165581D01*
X203348926Y-105170797D01*
X203327691Y-105173947D01*
X203306250Y-105175000D01*
X202868750Y-105175000D01*
X202847309Y-105173947D01*
X202826074Y-105170797D01*
X202805250Y-105165581D01*
X202785038Y-105158349D01*
X202765632Y-105149170D01*
X202747219Y-105138134D01*
X202729976Y-105125346D01*
X202714070Y-105110930D01*
X202699654Y-105095024D01*
X202686866Y-105077781D01*
X202675830Y-105059368D01*
X202666651Y-105039962D01*
X202659419Y-105019750D01*
X202654203Y-104998926D01*
X202651053Y-104977691D01*
X202650000Y-104956250D01*
X202650000Y-104443750D01*
X202651053Y-104422309D01*
X202654203Y-104401074D01*
X202659419Y-104380250D01*
X202666651Y-104360038D01*
X202675830Y-104340632D01*
X202686866Y-104322219D01*
X202699654Y-104304976D01*
X202714070Y-104289070D01*
X202729976Y-104274654D01*
X202747219Y-104261866D01*
X202765632Y-104250830D01*
X202785038Y-104241651D01*
X202805250Y-104234419D01*
X202826074Y-104229203D01*
X202847309Y-104226053D01*
X202868750Y-104225000D01*
X203306250Y-104225000D01*
X203327691Y-104226053D01*
X203327691Y-104226053D01*
G37*
D12*
X203087500Y-104700000D03*
D11*
G36*
X201752691Y-104226053D02*
G01*
X201773926Y-104229203D01*
X201794750Y-104234419D01*
X201814962Y-104241651D01*
X201834368Y-104250830D01*
X201852781Y-104261866D01*
X201870024Y-104274654D01*
X201885930Y-104289070D01*
X201900346Y-104304976D01*
X201913134Y-104322219D01*
X201924170Y-104340632D01*
X201933349Y-104360038D01*
X201940581Y-104380250D01*
X201945797Y-104401074D01*
X201948947Y-104422309D01*
X201950000Y-104443750D01*
X201950000Y-104956250D01*
X201948947Y-104977691D01*
X201945797Y-104998926D01*
X201940581Y-105019750D01*
X201933349Y-105039962D01*
X201924170Y-105059368D01*
X201913134Y-105077781D01*
X201900346Y-105095024D01*
X201885930Y-105110930D01*
X201870024Y-105125346D01*
X201852781Y-105138134D01*
X201834368Y-105149170D01*
X201814962Y-105158349D01*
X201794750Y-105165581D01*
X201773926Y-105170797D01*
X201752691Y-105173947D01*
X201731250Y-105175000D01*
X201293750Y-105175000D01*
X201272309Y-105173947D01*
X201251074Y-105170797D01*
X201230250Y-105165581D01*
X201210038Y-105158349D01*
X201190632Y-105149170D01*
X201172219Y-105138134D01*
X201154976Y-105125346D01*
X201139070Y-105110930D01*
X201124654Y-105095024D01*
X201111866Y-105077781D01*
X201100830Y-105059368D01*
X201091651Y-105039962D01*
X201084419Y-105019750D01*
X201079203Y-104998926D01*
X201076053Y-104977691D01*
X201075000Y-104956250D01*
X201075000Y-104443750D01*
X201076053Y-104422309D01*
X201079203Y-104401074D01*
X201084419Y-104380250D01*
X201091651Y-104360038D01*
X201100830Y-104340632D01*
X201111866Y-104322219D01*
X201124654Y-104304976D01*
X201139070Y-104289070D01*
X201154976Y-104274654D01*
X201172219Y-104261866D01*
X201190632Y-104250830D01*
X201210038Y-104241651D01*
X201230250Y-104234419D01*
X201251074Y-104229203D01*
X201272309Y-104226053D01*
X201293750Y-104225000D01*
X201731250Y-104225000D01*
X201752691Y-104226053D01*
X201752691Y-104226053D01*
G37*
D12*
X201512500Y-104700000D03*
D11*
G36*
X186227691Y-104726053D02*
G01*
X186248926Y-104729203D01*
X186269750Y-104734419D01*
X186289962Y-104741651D01*
X186309368Y-104750830D01*
X186327781Y-104761866D01*
X186345024Y-104774654D01*
X186360930Y-104789070D01*
X186375346Y-104804976D01*
X186388134Y-104822219D01*
X186399170Y-104840632D01*
X186408349Y-104860038D01*
X186415581Y-104880250D01*
X186420797Y-104901074D01*
X186423947Y-104922309D01*
X186425000Y-104943750D01*
X186425000Y-105456250D01*
X186423947Y-105477691D01*
X186420797Y-105498926D01*
X186415581Y-105519750D01*
X186408349Y-105539962D01*
X186399170Y-105559368D01*
X186388134Y-105577781D01*
X186375346Y-105595024D01*
X186360930Y-105610930D01*
X186345024Y-105625346D01*
X186327781Y-105638134D01*
X186309368Y-105649170D01*
X186289962Y-105658349D01*
X186269750Y-105665581D01*
X186248926Y-105670797D01*
X186227691Y-105673947D01*
X186206250Y-105675000D01*
X185768750Y-105675000D01*
X185747309Y-105673947D01*
X185726074Y-105670797D01*
X185705250Y-105665581D01*
X185685038Y-105658349D01*
X185665632Y-105649170D01*
X185647219Y-105638134D01*
X185629976Y-105625346D01*
X185614070Y-105610930D01*
X185599654Y-105595024D01*
X185586866Y-105577781D01*
X185575830Y-105559368D01*
X185566651Y-105539962D01*
X185559419Y-105519750D01*
X185554203Y-105498926D01*
X185551053Y-105477691D01*
X185550000Y-105456250D01*
X185550000Y-104943750D01*
X185551053Y-104922309D01*
X185554203Y-104901074D01*
X185559419Y-104880250D01*
X185566651Y-104860038D01*
X185575830Y-104840632D01*
X185586866Y-104822219D01*
X185599654Y-104804976D01*
X185614070Y-104789070D01*
X185629976Y-104774654D01*
X185647219Y-104761866D01*
X185665632Y-104750830D01*
X185685038Y-104741651D01*
X185705250Y-104734419D01*
X185726074Y-104729203D01*
X185747309Y-104726053D01*
X185768750Y-104725000D01*
X186206250Y-104725000D01*
X186227691Y-104726053D01*
X186227691Y-104726053D01*
G37*
D12*
X185987500Y-105200000D03*
D11*
G36*
X184652691Y-104726053D02*
G01*
X184673926Y-104729203D01*
X184694750Y-104734419D01*
X184714962Y-104741651D01*
X184734368Y-104750830D01*
X184752781Y-104761866D01*
X184770024Y-104774654D01*
X184785930Y-104789070D01*
X184800346Y-104804976D01*
X184813134Y-104822219D01*
X184824170Y-104840632D01*
X184833349Y-104860038D01*
X184840581Y-104880250D01*
X184845797Y-104901074D01*
X184848947Y-104922309D01*
X184850000Y-104943750D01*
X184850000Y-105456250D01*
X184848947Y-105477691D01*
X184845797Y-105498926D01*
X184840581Y-105519750D01*
X184833349Y-105539962D01*
X184824170Y-105559368D01*
X184813134Y-105577781D01*
X184800346Y-105595024D01*
X184785930Y-105610930D01*
X184770024Y-105625346D01*
X184752781Y-105638134D01*
X184734368Y-105649170D01*
X184714962Y-105658349D01*
X184694750Y-105665581D01*
X184673926Y-105670797D01*
X184652691Y-105673947D01*
X184631250Y-105675000D01*
X184193750Y-105675000D01*
X184172309Y-105673947D01*
X184151074Y-105670797D01*
X184130250Y-105665581D01*
X184110038Y-105658349D01*
X184090632Y-105649170D01*
X184072219Y-105638134D01*
X184054976Y-105625346D01*
X184039070Y-105610930D01*
X184024654Y-105595024D01*
X184011866Y-105577781D01*
X184000830Y-105559368D01*
X183991651Y-105539962D01*
X183984419Y-105519750D01*
X183979203Y-105498926D01*
X183976053Y-105477691D01*
X183975000Y-105456250D01*
X183975000Y-104943750D01*
X183976053Y-104922309D01*
X183979203Y-104901074D01*
X183984419Y-104880250D01*
X183991651Y-104860038D01*
X184000830Y-104840632D01*
X184011866Y-104822219D01*
X184024654Y-104804976D01*
X184039070Y-104789070D01*
X184054976Y-104774654D01*
X184072219Y-104761866D01*
X184090632Y-104750830D01*
X184110038Y-104741651D01*
X184130250Y-104734419D01*
X184151074Y-104729203D01*
X184172309Y-104726053D01*
X184193750Y-104725000D01*
X184631250Y-104725000D01*
X184652691Y-104726053D01*
X184652691Y-104726053D01*
G37*
D12*
X184412500Y-105200000D03*
D11*
G36*
X184652691Y-102826053D02*
G01*
X184673926Y-102829203D01*
X184694750Y-102834419D01*
X184714962Y-102841651D01*
X184734368Y-102850830D01*
X184752781Y-102861866D01*
X184770024Y-102874654D01*
X184785930Y-102889070D01*
X184800346Y-102904976D01*
X184813134Y-102922219D01*
X184824170Y-102940632D01*
X184833349Y-102960038D01*
X184840581Y-102980250D01*
X184845797Y-103001074D01*
X184848947Y-103022309D01*
X184850000Y-103043750D01*
X184850000Y-103556250D01*
X184848947Y-103577691D01*
X184845797Y-103598926D01*
X184840581Y-103619750D01*
X184833349Y-103639962D01*
X184824170Y-103659368D01*
X184813134Y-103677781D01*
X184800346Y-103695024D01*
X184785930Y-103710930D01*
X184770024Y-103725346D01*
X184752781Y-103738134D01*
X184734368Y-103749170D01*
X184714962Y-103758349D01*
X184694750Y-103765581D01*
X184673926Y-103770797D01*
X184652691Y-103773947D01*
X184631250Y-103775000D01*
X184193750Y-103775000D01*
X184172309Y-103773947D01*
X184151074Y-103770797D01*
X184130250Y-103765581D01*
X184110038Y-103758349D01*
X184090632Y-103749170D01*
X184072219Y-103738134D01*
X184054976Y-103725346D01*
X184039070Y-103710930D01*
X184024654Y-103695024D01*
X184011866Y-103677781D01*
X184000830Y-103659368D01*
X183991651Y-103639962D01*
X183984419Y-103619750D01*
X183979203Y-103598926D01*
X183976053Y-103577691D01*
X183975000Y-103556250D01*
X183975000Y-103043750D01*
X183976053Y-103022309D01*
X183979203Y-103001074D01*
X183984419Y-102980250D01*
X183991651Y-102960038D01*
X184000830Y-102940632D01*
X184011866Y-102922219D01*
X184024654Y-102904976D01*
X184039070Y-102889070D01*
X184054976Y-102874654D01*
X184072219Y-102861866D01*
X184090632Y-102850830D01*
X184110038Y-102841651D01*
X184130250Y-102834419D01*
X184151074Y-102829203D01*
X184172309Y-102826053D01*
X184193750Y-102825000D01*
X184631250Y-102825000D01*
X184652691Y-102826053D01*
X184652691Y-102826053D01*
G37*
D12*
X184412500Y-103300000D03*
D11*
G36*
X186227691Y-102826053D02*
G01*
X186248926Y-102829203D01*
X186269750Y-102834419D01*
X186289962Y-102841651D01*
X186309368Y-102850830D01*
X186327781Y-102861866D01*
X186345024Y-102874654D01*
X186360930Y-102889070D01*
X186375346Y-102904976D01*
X186388134Y-102922219D01*
X186399170Y-102940632D01*
X186408349Y-102960038D01*
X186415581Y-102980250D01*
X186420797Y-103001074D01*
X186423947Y-103022309D01*
X186425000Y-103043750D01*
X186425000Y-103556250D01*
X186423947Y-103577691D01*
X186420797Y-103598926D01*
X186415581Y-103619750D01*
X186408349Y-103639962D01*
X186399170Y-103659368D01*
X186388134Y-103677781D01*
X186375346Y-103695024D01*
X186360930Y-103710930D01*
X186345024Y-103725346D01*
X186327781Y-103738134D01*
X186309368Y-103749170D01*
X186289962Y-103758349D01*
X186269750Y-103765581D01*
X186248926Y-103770797D01*
X186227691Y-103773947D01*
X186206250Y-103775000D01*
X185768750Y-103775000D01*
X185747309Y-103773947D01*
X185726074Y-103770797D01*
X185705250Y-103765581D01*
X185685038Y-103758349D01*
X185665632Y-103749170D01*
X185647219Y-103738134D01*
X185629976Y-103725346D01*
X185614070Y-103710930D01*
X185599654Y-103695024D01*
X185586866Y-103677781D01*
X185575830Y-103659368D01*
X185566651Y-103639962D01*
X185559419Y-103619750D01*
X185554203Y-103598926D01*
X185551053Y-103577691D01*
X185550000Y-103556250D01*
X185550000Y-103043750D01*
X185551053Y-103022309D01*
X185554203Y-103001074D01*
X185559419Y-102980250D01*
X185566651Y-102960038D01*
X185575830Y-102940632D01*
X185586866Y-102922219D01*
X185599654Y-102904976D01*
X185614070Y-102889070D01*
X185629976Y-102874654D01*
X185647219Y-102861866D01*
X185665632Y-102850830D01*
X185685038Y-102841651D01*
X185705250Y-102834419D01*
X185726074Y-102829203D01*
X185747309Y-102826053D01*
X185768750Y-102825000D01*
X186206250Y-102825000D01*
X186227691Y-102826053D01*
X186227691Y-102826053D01*
G37*
D12*
X185987500Y-103300000D03*
D11*
G36*
X193352691Y-120626053D02*
G01*
X193373926Y-120629203D01*
X193394750Y-120634419D01*
X193414962Y-120641651D01*
X193434368Y-120650830D01*
X193452781Y-120661866D01*
X193470024Y-120674654D01*
X193485930Y-120689070D01*
X193500346Y-120704976D01*
X193513134Y-120722219D01*
X193524170Y-120740632D01*
X193533349Y-120760038D01*
X193540581Y-120780250D01*
X193545797Y-120801074D01*
X193548947Y-120822309D01*
X193550000Y-120843750D01*
X193550000Y-121356250D01*
X193548947Y-121377691D01*
X193545797Y-121398926D01*
X193540581Y-121419750D01*
X193533349Y-121439962D01*
X193524170Y-121459368D01*
X193513134Y-121477781D01*
X193500346Y-121495024D01*
X193485930Y-121510930D01*
X193470024Y-121525346D01*
X193452781Y-121538134D01*
X193434368Y-121549170D01*
X193414962Y-121558349D01*
X193394750Y-121565581D01*
X193373926Y-121570797D01*
X193352691Y-121573947D01*
X193331250Y-121575000D01*
X192893750Y-121575000D01*
X192872309Y-121573947D01*
X192851074Y-121570797D01*
X192830250Y-121565581D01*
X192810038Y-121558349D01*
X192790632Y-121549170D01*
X192772219Y-121538134D01*
X192754976Y-121525346D01*
X192739070Y-121510930D01*
X192724654Y-121495024D01*
X192711866Y-121477781D01*
X192700830Y-121459368D01*
X192691651Y-121439962D01*
X192684419Y-121419750D01*
X192679203Y-121398926D01*
X192676053Y-121377691D01*
X192675000Y-121356250D01*
X192675000Y-120843750D01*
X192676053Y-120822309D01*
X192679203Y-120801074D01*
X192684419Y-120780250D01*
X192691651Y-120760038D01*
X192700830Y-120740632D01*
X192711866Y-120722219D01*
X192724654Y-120704976D01*
X192739070Y-120689070D01*
X192754976Y-120674654D01*
X192772219Y-120661866D01*
X192790632Y-120650830D01*
X192810038Y-120641651D01*
X192830250Y-120634419D01*
X192851074Y-120629203D01*
X192872309Y-120626053D01*
X192893750Y-120625000D01*
X193331250Y-120625000D01*
X193352691Y-120626053D01*
X193352691Y-120626053D01*
G37*
D12*
X193112500Y-121100000D03*
D11*
G36*
X194927691Y-120626053D02*
G01*
X194948926Y-120629203D01*
X194969750Y-120634419D01*
X194989962Y-120641651D01*
X195009368Y-120650830D01*
X195027781Y-120661866D01*
X195045024Y-120674654D01*
X195060930Y-120689070D01*
X195075346Y-120704976D01*
X195088134Y-120722219D01*
X195099170Y-120740632D01*
X195108349Y-120760038D01*
X195115581Y-120780250D01*
X195120797Y-120801074D01*
X195123947Y-120822309D01*
X195125000Y-120843750D01*
X195125000Y-121356250D01*
X195123947Y-121377691D01*
X195120797Y-121398926D01*
X195115581Y-121419750D01*
X195108349Y-121439962D01*
X195099170Y-121459368D01*
X195088134Y-121477781D01*
X195075346Y-121495024D01*
X195060930Y-121510930D01*
X195045024Y-121525346D01*
X195027781Y-121538134D01*
X195009368Y-121549170D01*
X194989962Y-121558349D01*
X194969750Y-121565581D01*
X194948926Y-121570797D01*
X194927691Y-121573947D01*
X194906250Y-121575000D01*
X194468750Y-121575000D01*
X194447309Y-121573947D01*
X194426074Y-121570797D01*
X194405250Y-121565581D01*
X194385038Y-121558349D01*
X194365632Y-121549170D01*
X194347219Y-121538134D01*
X194329976Y-121525346D01*
X194314070Y-121510930D01*
X194299654Y-121495024D01*
X194286866Y-121477781D01*
X194275830Y-121459368D01*
X194266651Y-121439962D01*
X194259419Y-121419750D01*
X194254203Y-121398926D01*
X194251053Y-121377691D01*
X194250000Y-121356250D01*
X194250000Y-120843750D01*
X194251053Y-120822309D01*
X194254203Y-120801074D01*
X194259419Y-120780250D01*
X194266651Y-120760038D01*
X194275830Y-120740632D01*
X194286866Y-120722219D01*
X194299654Y-120704976D01*
X194314070Y-120689070D01*
X194329976Y-120674654D01*
X194347219Y-120661866D01*
X194365632Y-120650830D01*
X194385038Y-120641651D01*
X194405250Y-120634419D01*
X194426074Y-120629203D01*
X194447309Y-120626053D01*
X194468750Y-120625000D01*
X194906250Y-120625000D01*
X194927691Y-120626053D01*
X194927691Y-120626053D01*
G37*
D12*
X194687500Y-121100000D03*
D11*
G36*
X191627691Y-120626053D02*
G01*
X191648926Y-120629203D01*
X191669750Y-120634419D01*
X191689962Y-120641651D01*
X191709368Y-120650830D01*
X191727781Y-120661866D01*
X191745024Y-120674654D01*
X191760930Y-120689070D01*
X191775346Y-120704976D01*
X191788134Y-120722219D01*
X191799170Y-120740632D01*
X191808349Y-120760038D01*
X191815581Y-120780250D01*
X191820797Y-120801074D01*
X191823947Y-120822309D01*
X191825000Y-120843750D01*
X191825000Y-121356250D01*
X191823947Y-121377691D01*
X191820797Y-121398926D01*
X191815581Y-121419750D01*
X191808349Y-121439962D01*
X191799170Y-121459368D01*
X191788134Y-121477781D01*
X191775346Y-121495024D01*
X191760930Y-121510930D01*
X191745024Y-121525346D01*
X191727781Y-121538134D01*
X191709368Y-121549170D01*
X191689962Y-121558349D01*
X191669750Y-121565581D01*
X191648926Y-121570797D01*
X191627691Y-121573947D01*
X191606250Y-121575000D01*
X191168750Y-121575000D01*
X191147309Y-121573947D01*
X191126074Y-121570797D01*
X191105250Y-121565581D01*
X191085038Y-121558349D01*
X191065632Y-121549170D01*
X191047219Y-121538134D01*
X191029976Y-121525346D01*
X191014070Y-121510930D01*
X190999654Y-121495024D01*
X190986866Y-121477781D01*
X190975830Y-121459368D01*
X190966651Y-121439962D01*
X190959419Y-121419750D01*
X190954203Y-121398926D01*
X190951053Y-121377691D01*
X190950000Y-121356250D01*
X190950000Y-120843750D01*
X190951053Y-120822309D01*
X190954203Y-120801074D01*
X190959419Y-120780250D01*
X190966651Y-120760038D01*
X190975830Y-120740632D01*
X190986866Y-120722219D01*
X190999654Y-120704976D01*
X191014070Y-120689070D01*
X191029976Y-120674654D01*
X191047219Y-120661866D01*
X191065632Y-120650830D01*
X191085038Y-120641651D01*
X191105250Y-120634419D01*
X191126074Y-120629203D01*
X191147309Y-120626053D01*
X191168750Y-120625000D01*
X191606250Y-120625000D01*
X191627691Y-120626053D01*
X191627691Y-120626053D01*
G37*
D12*
X191387500Y-121100000D03*
D11*
G36*
X190052691Y-120626053D02*
G01*
X190073926Y-120629203D01*
X190094750Y-120634419D01*
X190114962Y-120641651D01*
X190134368Y-120650830D01*
X190152781Y-120661866D01*
X190170024Y-120674654D01*
X190185930Y-120689070D01*
X190200346Y-120704976D01*
X190213134Y-120722219D01*
X190224170Y-120740632D01*
X190233349Y-120760038D01*
X190240581Y-120780250D01*
X190245797Y-120801074D01*
X190248947Y-120822309D01*
X190250000Y-120843750D01*
X190250000Y-121356250D01*
X190248947Y-121377691D01*
X190245797Y-121398926D01*
X190240581Y-121419750D01*
X190233349Y-121439962D01*
X190224170Y-121459368D01*
X190213134Y-121477781D01*
X190200346Y-121495024D01*
X190185930Y-121510930D01*
X190170024Y-121525346D01*
X190152781Y-121538134D01*
X190134368Y-121549170D01*
X190114962Y-121558349D01*
X190094750Y-121565581D01*
X190073926Y-121570797D01*
X190052691Y-121573947D01*
X190031250Y-121575000D01*
X189593750Y-121575000D01*
X189572309Y-121573947D01*
X189551074Y-121570797D01*
X189530250Y-121565581D01*
X189510038Y-121558349D01*
X189490632Y-121549170D01*
X189472219Y-121538134D01*
X189454976Y-121525346D01*
X189439070Y-121510930D01*
X189424654Y-121495024D01*
X189411866Y-121477781D01*
X189400830Y-121459368D01*
X189391651Y-121439962D01*
X189384419Y-121419750D01*
X189379203Y-121398926D01*
X189376053Y-121377691D01*
X189375000Y-121356250D01*
X189375000Y-120843750D01*
X189376053Y-120822309D01*
X189379203Y-120801074D01*
X189384419Y-120780250D01*
X189391651Y-120760038D01*
X189400830Y-120740632D01*
X189411866Y-120722219D01*
X189424654Y-120704976D01*
X189439070Y-120689070D01*
X189454976Y-120674654D01*
X189472219Y-120661866D01*
X189490632Y-120650830D01*
X189510038Y-120641651D01*
X189530250Y-120634419D01*
X189551074Y-120629203D01*
X189572309Y-120626053D01*
X189593750Y-120625000D01*
X190031250Y-120625000D01*
X190052691Y-120626053D01*
X190052691Y-120626053D01*
G37*
D12*
X189812500Y-121100000D03*
D11*
G36*
X206227691Y-118926053D02*
G01*
X206248926Y-118929203D01*
X206269750Y-118934419D01*
X206289962Y-118941651D01*
X206309368Y-118950830D01*
X206327781Y-118961866D01*
X206345024Y-118974654D01*
X206360930Y-118989070D01*
X206375346Y-119004976D01*
X206388134Y-119022219D01*
X206399170Y-119040632D01*
X206408349Y-119060038D01*
X206415581Y-119080250D01*
X206420797Y-119101074D01*
X206423947Y-119122309D01*
X206425000Y-119143750D01*
X206425000Y-119656250D01*
X206423947Y-119677691D01*
X206420797Y-119698926D01*
X206415581Y-119719750D01*
X206408349Y-119739962D01*
X206399170Y-119759368D01*
X206388134Y-119777781D01*
X206375346Y-119795024D01*
X206360930Y-119810930D01*
X206345024Y-119825346D01*
X206327781Y-119838134D01*
X206309368Y-119849170D01*
X206289962Y-119858349D01*
X206269750Y-119865581D01*
X206248926Y-119870797D01*
X206227691Y-119873947D01*
X206206250Y-119875000D01*
X205768750Y-119875000D01*
X205747309Y-119873947D01*
X205726074Y-119870797D01*
X205705250Y-119865581D01*
X205685038Y-119858349D01*
X205665632Y-119849170D01*
X205647219Y-119838134D01*
X205629976Y-119825346D01*
X205614070Y-119810930D01*
X205599654Y-119795024D01*
X205586866Y-119777781D01*
X205575830Y-119759368D01*
X205566651Y-119739962D01*
X205559419Y-119719750D01*
X205554203Y-119698926D01*
X205551053Y-119677691D01*
X205550000Y-119656250D01*
X205550000Y-119143750D01*
X205551053Y-119122309D01*
X205554203Y-119101074D01*
X205559419Y-119080250D01*
X205566651Y-119060038D01*
X205575830Y-119040632D01*
X205586866Y-119022219D01*
X205599654Y-119004976D01*
X205614070Y-118989070D01*
X205629976Y-118974654D01*
X205647219Y-118961866D01*
X205665632Y-118950830D01*
X205685038Y-118941651D01*
X205705250Y-118934419D01*
X205726074Y-118929203D01*
X205747309Y-118926053D01*
X205768750Y-118925000D01*
X206206250Y-118925000D01*
X206227691Y-118926053D01*
X206227691Y-118926053D01*
G37*
D12*
X205987500Y-119400000D03*
D11*
G36*
X204652691Y-118926053D02*
G01*
X204673926Y-118929203D01*
X204694750Y-118934419D01*
X204714962Y-118941651D01*
X204734368Y-118950830D01*
X204752781Y-118961866D01*
X204770024Y-118974654D01*
X204785930Y-118989070D01*
X204800346Y-119004976D01*
X204813134Y-119022219D01*
X204824170Y-119040632D01*
X204833349Y-119060038D01*
X204840581Y-119080250D01*
X204845797Y-119101074D01*
X204848947Y-119122309D01*
X204850000Y-119143750D01*
X204850000Y-119656250D01*
X204848947Y-119677691D01*
X204845797Y-119698926D01*
X204840581Y-119719750D01*
X204833349Y-119739962D01*
X204824170Y-119759368D01*
X204813134Y-119777781D01*
X204800346Y-119795024D01*
X204785930Y-119810930D01*
X204770024Y-119825346D01*
X204752781Y-119838134D01*
X204734368Y-119849170D01*
X204714962Y-119858349D01*
X204694750Y-119865581D01*
X204673926Y-119870797D01*
X204652691Y-119873947D01*
X204631250Y-119875000D01*
X204193750Y-119875000D01*
X204172309Y-119873947D01*
X204151074Y-119870797D01*
X204130250Y-119865581D01*
X204110038Y-119858349D01*
X204090632Y-119849170D01*
X204072219Y-119838134D01*
X204054976Y-119825346D01*
X204039070Y-119810930D01*
X204024654Y-119795024D01*
X204011866Y-119777781D01*
X204000830Y-119759368D01*
X203991651Y-119739962D01*
X203984419Y-119719750D01*
X203979203Y-119698926D01*
X203976053Y-119677691D01*
X203975000Y-119656250D01*
X203975000Y-119143750D01*
X203976053Y-119122309D01*
X203979203Y-119101074D01*
X203984419Y-119080250D01*
X203991651Y-119060038D01*
X204000830Y-119040632D01*
X204011866Y-119022219D01*
X204024654Y-119004976D01*
X204039070Y-118989070D01*
X204054976Y-118974654D01*
X204072219Y-118961866D01*
X204090632Y-118950830D01*
X204110038Y-118941651D01*
X204130250Y-118934419D01*
X204151074Y-118929203D01*
X204172309Y-118926053D01*
X204193750Y-118925000D01*
X204631250Y-118925000D01*
X204652691Y-118926053D01*
X204652691Y-118926053D01*
G37*
D12*
X204412500Y-119400000D03*
D11*
G36*
X201352691Y-118926053D02*
G01*
X201373926Y-118929203D01*
X201394750Y-118934419D01*
X201414962Y-118941651D01*
X201434368Y-118950830D01*
X201452781Y-118961866D01*
X201470024Y-118974654D01*
X201485930Y-118989070D01*
X201500346Y-119004976D01*
X201513134Y-119022219D01*
X201524170Y-119040632D01*
X201533349Y-119060038D01*
X201540581Y-119080250D01*
X201545797Y-119101074D01*
X201548947Y-119122309D01*
X201550000Y-119143750D01*
X201550000Y-119656250D01*
X201548947Y-119677691D01*
X201545797Y-119698926D01*
X201540581Y-119719750D01*
X201533349Y-119739962D01*
X201524170Y-119759368D01*
X201513134Y-119777781D01*
X201500346Y-119795024D01*
X201485930Y-119810930D01*
X201470024Y-119825346D01*
X201452781Y-119838134D01*
X201434368Y-119849170D01*
X201414962Y-119858349D01*
X201394750Y-119865581D01*
X201373926Y-119870797D01*
X201352691Y-119873947D01*
X201331250Y-119875000D01*
X200893750Y-119875000D01*
X200872309Y-119873947D01*
X200851074Y-119870797D01*
X200830250Y-119865581D01*
X200810038Y-119858349D01*
X200790632Y-119849170D01*
X200772219Y-119838134D01*
X200754976Y-119825346D01*
X200739070Y-119810930D01*
X200724654Y-119795024D01*
X200711866Y-119777781D01*
X200700830Y-119759368D01*
X200691651Y-119739962D01*
X200684419Y-119719750D01*
X200679203Y-119698926D01*
X200676053Y-119677691D01*
X200675000Y-119656250D01*
X200675000Y-119143750D01*
X200676053Y-119122309D01*
X200679203Y-119101074D01*
X200684419Y-119080250D01*
X200691651Y-119060038D01*
X200700830Y-119040632D01*
X200711866Y-119022219D01*
X200724654Y-119004976D01*
X200739070Y-118989070D01*
X200754976Y-118974654D01*
X200772219Y-118961866D01*
X200790632Y-118950830D01*
X200810038Y-118941651D01*
X200830250Y-118934419D01*
X200851074Y-118929203D01*
X200872309Y-118926053D01*
X200893750Y-118925000D01*
X201331250Y-118925000D01*
X201352691Y-118926053D01*
X201352691Y-118926053D01*
G37*
D12*
X201112500Y-119400000D03*
D11*
G36*
X202927691Y-118926053D02*
G01*
X202948926Y-118929203D01*
X202969750Y-118934419D01*
X202989962Y-118941651D01*
X203009368Y-118950830D01*
X203027781Y-118961866D01*
X203045024Y-118974654D01*
X203060930Y-118989070D01*
X203075346Y-119004976D01*
X203088134Y-119022219D01*
X203099170Y-119040632D01*
X203108349Y-119060038D01*
X203115581Y-119080250D01*
X203120797Y-119101074D01*
X203123947Y-119122309D01*
X203125000Y-119143750D01*
X203125000Y-119656250D01*
X203123947Y-119677691D01*
X203120797Y-119698926D01*
X203115581Y-119719750D01*
X203108349Y-119739962D01*
X203099170Y-119759368D01*
X203088134Y-119777781D01*
X203075346Y-119795024D01*
X203060930Y-119810930D01*
X203045024Y-119825346D01*
X203027781Y-119838134D01*
X203009368Y-119849170D01*
X202989962Y-119858349D01*
X202969750Y-119865581D01*
X202948926Y-119870797D01*
X202927691Y-119873947D01*
X202906250Y-119875000D01*
X202468750Y-119875000D01*
X202447309Y-119873947D01*
X202426074Y-119870797D01*
X202405250Y-119865581D01*
X202385038Y-119858349D01*
X202365632Y-119849170D01*
X202347219Y-119838134D01*
X202329976Y-119825346D01*
X202314070Y-119810930D01*
X202299654Y-119795024D01*
X202286866Y-119777781D01*
X202275830Y-119759368D01*
X202266651Y-119739962D01*
X202259419Y-119719750D01*
X202254203Y-119698926D01*
X202251053Y-119677691D01*
X202250000Y-119656250D01*
X202250000Y-119143750D01*
X202251053Y-119122309D01*
X202254203Y-119101074D01*
X202259419Y-119080250D01*
X202266651Y-119060038D01*
X202275830Y-119040632D01*
X202286866Y-119022219D01*
X202299654Y-119004976D01*
X202314070Y-118989070D01*
X202329976Y-118974654D01*
X202347219Y-118961866D01*
X202365632Y-118950830D01*
X202385038Y-118941651D01*
X202405250Y-118934419D01*
X202426074Y-118929203D01*
X202447309Y-118926053D01*
X202468750Y-118925000D01*
X202906250Y-118925000D01*
X202927691Y-118926053D01*
X202927691Y-118926053D01*
G37*
D12*
X202687500Y-119400000D03*
D11*
G36*
X186227691Y-116726053D02*
G01*
X186248926Y-116729203D01*
X186269750Y-116734419D01*
X186289962Y-116741651D01*
X186309368Y-116750830D01*
X186327781Y-116761866D01*
X186345024Y-116774654D01*
X186360930Y-116789070D01*
X186375346Y-116804976D01*
X186388134Y-116822219D01*
X186399170Y-116840632D01*
X186408349Y-116860038D01*
X186415581Y-116880250D01*
X186420797Y-116901074D01*
X186423947Y-116922309D01*
X186425000Y-116943750D01*
X186425000Y-117456250D01*
X186423947Y-117477691D01*
X186420797Y-117498926D01*
X186415581Y-117519750D01*
X186408349Y-117539962D01*
X186399170Y-117559368D01*
X186388134Y-117577781D01*
X186375346Y-117595024D01*
X186360930Y-117610930D01*
X186345024Y-117625346D01*
X186327781Y-117638134D01*
X186309368Y-117649170D01*
X186289962Y-117658349D01*
X186269750Y-117665581D01*
X186248926Y-117670797D01*
X186227691Y-117673947D01*
X186206250Y-117675000D01*
X185768750Y-117675000D01*
X185747309Y-117673947D01*
X185726074Y-117670797D01*
X185705250Y-117665581D01*
X185685038Y-117658349D01*
X185665632Y-117649170D01*
X185647219Y-117638134D01*
X185629976Y-117625346D01*
X185614070Y-117610930D01*
X185599654Y-117595024D01*
X185586866Y-117577781D01*
X185575830Y-117559368D01*
X185566651Y-117539962D01*
X185559419Y-117519750D01*
X185554203Y-117498926D01*
X185551053Y-117477691D01*
X185550000Y-117456250D01*
X185550000Y-116943750D01*
X185551053Y-116922309D01*
X185554203Y-116901074D01*
X185559419Y-116880250D01*
X185566651Y-116860038D01*
X185575830Y-116840632D01*
X185586866Y-116822219D01*
X185599654Y-116804976D01*
X185614070Y-116789070D01*
X185629976Y-116774654D01*
X185647219Y-116761866D01*
X185665632Y-116750830D01*
X185685038Y-116741651D01*
X185705250Y-116734419D01*
X185726074Y-116729203D01*
X185747309Y-116726053D01*
X185768750Y-116725000D01*
X186206250Y-116725000D01*
X186227691Y-116726053D01*
X186227691Y-116726053D01*
G37*
D12*
X185987500Y-117200000D03*
D11*
G36*
X184652691Y-116726053D02*
G01*
X184673926Y-116729203D01*
X184694750Y-116734419D01*
X184714962Y-116741651D01*
X184734368Y-116750830D01*
X184752781Y-116761866D01*
X184770024Y-116774654D01*
X184785930Y-116789070D01*
X184800346Y-116804976D01*
X184813134Y-116822219D01*
X184824170Y-116840632D01*
X184833349Y-116860038D01*
X184840581Y-116880250D01*
X184845797Y-116901074D01*
X184848947Y-116922309D01*
X184850000Y-116943750D01*
X184850000Y-117456250D01*
X184848947Y-117477691D01*
X184845797Y-117498926D01*
X184840581Y-117519750D01*
X184833349Y-117539962D01*
X184824170Y-117559368D01*
X184813134Y-117577781D01*
X184800346Y-117595024D01*
X184785930Y-117610930D01*
X184770024Y-117625346D01*
X184752781Y-117638134D01*
X184734368Y-117649170D01*
X184714962Y-117658349D01*
X184694750Y-117665581D01*
X184673926Y-117670797D01*
X184652691Y-117673947D01*
X184631250Y-117675000D01*
X184193750Y-117675000D01*
X184172309Y-117673947D01*
X184151074Y-117670797D01*
X184130250Y-117665581D01*
X184110038Y-117658349D01*
X184090632Y-117649170D01*
X184072219Y-117638134D01*
X184054976Y-117625346D01*
X184039070Y-117610930D01*
X184024654Y-117595024D01*
X184011866Y-117577781D01*
X184000830Y-117559368D01*
X183991651Y-117539962D01*
X183984419Y-117519750D01*
X183979203Y-117498926D01*
X183976053Y-117477691D01*
X183975000Y-117456250D01*
X183975000Y-116943750D01*
X183976053Y-116922309D01*
X183979203Y-116901074D01*
X183984419Y-116880250D01*
X183991651Y-116860038D01*
X184000830Y-116840632D01*
X184011866Y-116822219D01*
X184024654Y-116804976D01*
X184039070Y-116789070D01*
X184054976Y-116774654D01*
X184072219Y-116761866D01*
X184090632Y-116750830D01*
X184110038Y-116741651D01*
X184130250Y-116734419D01*
X184151074Y-116729203D01*
X184172309Y-116726053D01*
X184193750Y-116725000D01*
X184631250Y-116725000D01*
X184652691Y-116726053D01*
X184652691Y-116726053D01*
G37*
D12*
X184412500Y-117200000D03*
D11*
G36*
X193352691Y-118926053D02*
G01*
X193373926Y-118929203D01*
X193394750Y-118934419D01*
X193414962Y-118941651D01*
X193434368Y-118950830D01*
X193452781Y-118961866D01*
X193470024Y-118974654D01*
X193485930Y-118989070D01*
X193500346Y-119004976D01*
X193513134Y-119022219D01*
X193524170Y-119040632D01*
X193533349Y-119060038D01*
X193540581Y-119080250D01*
X193545797Y-119101074D01*
X193548947Y-119122309D01*
X193550000Y-119143750D01*
X193550000Y-119656250D01*
X193548947Y-119677691D01*
X193545797Y-119698926D01*
X193540581Y-119719750D01*
X193533349Y-119739962D01*
X193524170Y-119759368D01*
X193513134Y-119777781D01*
X193500346Y-119795024D01*
X193485930Y-119810930D01*
X193470024Y-119825346D01*
X193452781Y-119838134D01*
X193434368Y-119849170D01*
X193414962Y-119858349D01*
X193394750Y-119865581D01*
X193373926Y-119870797D01*
X193352691Y-119873947D01*
X193331250Y-119875000D01*
X192893750Y-119875000D01*
X192872309Y-119873947D01*
X192851074Y-119870797D01*
X192830250Y-119865581D01*
X192810038Y-119858349D01*
X192790632Y-119849170D01*
X192772219Y-119838134D01*
X192754976Y-119825346D01*
X192739070Y-119810930D01*
X192724654Y-119795024D01*
X192711866Y-119777781D01*
X192700830Y-119759368D01*
X192691651Y-119739962D01*
X192684419Y-119719750D01*
X192679203Y-119698926D01*
X192676053Y-119677691D01*
X192675000Y-119656250D01*
X192675000Y-119143750D01*
X192676053Y-119122309D01*
X192679203Y-119101074D01*
X192684419Y-119080250D01*
X192691651Y-119060038D01*
X192700830Y-119040632D01*
X192711866Y-119022219D01*
X192724654Y-119004976D01*
X192739070Y-118989070D01*
X192754976Y-118974654D01*
X192772219Y-118961866D01*
X192790632Y-118950830D01*
X192810038Y-118941651D01*
X192830250Y-118934419D01*
X192851074Y-118929203D01*
X192872309Y-118926053D01*
X192893750Y-118925000D01*
X193331250Y-118925000D01*
X193352691Y-118926053D01*
X193352691Y-118926053D01*
G37*
D12*
X193112500Y-119400000D03*
D11*
G36*
X194927691Y-118926053D02*
G01*
X194948926Y-118929203D01*
X194969750Y-118934419D01*
X194989962Y-118941651D01*
X195009368Y-118950830D01*
X195027781Y-118961866D01*
X195045024Y-118974654D01*
X195060930Y-118989070D01*
X195075346Y-119004976D01*
X195088134Y-119022219D01*
X195099170Y-119040632D01*
X195108349Y-119060038D01*
X195115581Y-119080250D01*
X195120797Y-119101074D01*
X195123947Y-119122309D01*
X195125000Y-119143750D01*
X195125000Y-119656250D01*
X195123947Y-119677691D01*
X195120797Y-119698926D01*
X195115581Y-119719750D01*
X195108349Y-119739962D01*
X195099170Y-119759368D01*
X195088134Y-119777781D01*
X195075346Y-119795024D01*
X195060930Y-119810930D01*
X195045024Y-119825346D01*
X195027781Y-119838134D01*
X195009368Y-119849170D01*
X194989962Y-119858349D01*
X194969750Y-119865581D01*
X194948926Y-119870797D01*
X194927691Y-119873947D01*
X194906250Y-119875000D01*
X194468750Y-119875000D01*
X194447309Y-119873947D01*
X194426074Y-119870797D01*
X194405250Y-119865581D01*
X194385038Y-119858349D01*
X194365632Y-119849170D01*
X194347219Y-119838134D01*
X194329976Y-119825346D01*
X194314070Y-119810930D01*
X194299654Y-119795024D01*
X194286866Y-119777781D01*
X194275830Y-119759368D01*
X194266651Y-119739962D01*
X194259419Y-119719750D01*
X194254203Y-119698926D01*
X194251053Y-119677691D01*
X194250000Y-119656250D01*
X194250000Y-119143750D01*
X194251053Y-119122309D01*
X194254203Y-119101074D01*
X194259419Y-119080250D01*
X194266651Y-119060038D01*
X194275830Y-119040632D01*
X194286866Y-119022219D01*
X194299654Y-119004976D01*
X194314070Y-118989070D01*
X194329976Y-118974654D01*
X194347219Y-118961866D01*
X194365632Y-118950830D01*
X194385038Y-118941651D01*
X194405250Y-118934419D01*
X194426074Y-118929203D01*
X194447309Y-118926053D01*
X194468750Y-118925000D01*
X194906250Y-118925000D01*
X194927691Y-118926053D01*
X194927691Y-118926053D01*
G37*
D12*
X194687500Y-119400000D03*
D11*
G36*
X191627691Y-118926053D02*
G01*
X191648926Y-118929203D01*
X191669750Y-118934419D01*
X191689962Y-118941651D01*
X191709368Y-118950830D01*
X191727781Y-118961866D01*
X191745024Y-118974654D01*
X191760930Y-118989070D01*
X191775346Y-119004976D01*
X191788134Y-119022219D01*
X191799170Y-119040632D01*
X191808349Y-119060038D01*
X191815581Y-119080250D01*
X191820797Y-119101074D01*
X191823947Y-119122309D01*
X191825000Y-119143750D01*
X191825000Y-119656250D01*
X191823947Y-119677691D01*
X191820797Y-119698926D01*
X191815581Y-119719750D01*
X191808349Y-119739962D01*
X191799170Y-119759368D01*
X191788134Y-119777781D01*
X191775346Y-119795024D01*
X191760930Y-119810930D01*
X191745024Y-119825346D01*
X191727781Y-119838134D01*
X191709368Y-119849170D01*
X191689962Y-119858349D01*
X191669750Y-119865581D01*
X191648926Y-119870797D01*
X191627691Y-119873947D01*
X191606250Y-119875000D01*
X191168750Y-119875000D01*
X191147309Y-119873947D01*
X191126074Y-119870797D01*
X191105250Y-119865581D01*
X191085038Y-119858349D01*
X191065632Y-119849170D01*
X191047219Y-119838134D01*
X191029976Y-119825346D01*
X191014070Y-119810930D01*
X190999654Y-119795024D01*
X190986866Y-119777781D01*
X190975830Y-119759368D01*
X190966651Y-119739962D01*
X190959419Y-119719750D01*
X190954203Y-119698926D01*
X190951053Y-119677691D01*
X190950000Y-119656250D01*
X190950000Y-119143750D01*
X190951053Y-119122309D01*
X190954203Y-119101074D01*
X190959419Y-119080250D01*
X190966651Y-119060038D01*
X190975830Y-119040632D01*
X190986866Y-119022219D01*
X190999654Y-119004976D01*
X191014070Y-118989070D01*
X191029976Y-118974654D01*
X191047219Y-118961866D01*
X191065632Y-118950830D01*
X191085038Y-118941651D01*
X191105250Y-118934419D01*
X191126074Y-118929203D01*
X191147309Y-118926053D01*
X191168750Y-118925000D01*
X191606250Y-118925000D01*
X191627691Y-118926053D01*
X191627691Y-118926053D01*
G37*
D12*
X191387500Y-119400000D03*
D11*
G36*
X190052691Y-118926053D02*
G01*
X190073926Y-118929203D01*
X190094750Y-118934419D01*
X190114962Y-118941651D01*
X190134368Y-118950830D01*
X190152781Y-118961866D01*
X190170024Y-118974654D01*
X190185930Y-118989070D01*
X190200346Y-119004976D01*
X190213134Y-119022219D01*
X190224170Y-119040632D01*
X190233349Y-119060038D01*
X190240581Y-119080250D01*
X190245797Y-119101074D01*
X190248947Y-119122309D01*
X190250000Y-119143750D01*
X190250000Y-119656250D01*
X190248947Y-119677691D01*
X190245797Y-119698926D01*
X190240581Y-119719750D01*
X190233349Y-119739962D01*
X190224170Y-119759368D01*
X190213134Y-119777781D01*
X190200346Y-119795024D01*
X190185930Y-119810930D01*
X190170024Y-119825346D01*
X190152781Y-119838134D01*
X190134368Y-119849170D01*
X190114962Y-119858349D01*
X190094750Y-119865581D01*
X190073926Y-119870797D01*
X190052691Y-119873947D01*
X190031250Y-119875000D01*
X189593750Y-119875000D01*
X189572309Y-119873947D01*
X189551074Y-119870797D01*
X189530250Y-119865581D01*
X189510038Y-119858349D01*
X189490632Y-119849170D01*
X189472219Y-119838134D01*
X189454976Y-119825346D01*
X189439070Y-119810930D01*
X189424654Y-119795024D01*
X189411866Y-119777781D01*
X189400830Y-119759368D01*
X189391651Y-119739962D01*
X189384419Y-119719750D01*
X189379203Y-119698926D01*
X189376053Y-119677691D01*
X189375000Y-119656250D01*
X189375000Y-119143750D01*
X189376053Y-119122309D01*
X189379203Y-119101074D01*
X189384419Y-119080250D01*
X189391651Y-119060038D01*
X189400830Y-119040632D01*
X189411866Y-119022219D01*
X189424654Y-119004976D01*
X189439070Y-118989070D01*
X189454976Y-118974654D01*
X189472219Y-118961866D01*
X189490632Y-118950830D01*
X189510038Y-118941651D01*
X189530250Y-118934419D01*
X189551074Y-118929203D01*
X189572309Y-118926053D01*
X189593750Y-118925000D01*
X190031250Y-118925000D01*
X190052691Y-118926053D01*
X190052691Y-118926053D01*
G37*
D12*
X189812500Y-119400000D03*
D11*
G36*
X184652691Y-119526053D02*
G01*
X184673926Y-119529203D01*
X184694750Y-119534419D01*
X184714962Y-119541651D01*
X184734368Y-119550830D01*
X184752781Y-119561866D01*
X184770024Y-119574654D01*
X184785930Y-119589070D01*
X184800346Y-119604976D01*
X184813134Y-119622219D01*
X184824170Y-119640632D01*
X184833349Y-119660038D01*
X184840581Y-119680250D01*
X184845797Y-119701074D01*
X184848947Y-119722309D01*
X184850000Y-119743750D01*
X184850000Y-120256250D01*
X184848947Y-120277691D01*
X184845797Y-120298926D01*
X184840581Y-120319750D01*
X184833349Y-120339962D01*
X184824170Y-120359368D01*
X184813134Y-120377781D01*
X184800346Y-120395024D01*
X184785930Y-120410930D01*
X184770024Y-120425346D01*
X184752781Y-120438134D01*
X184734368Y-120449170D01*
X184714962Y-120458349D01*
X184694750Y-120465581D01*
X184673926Y-120470797D01*
X184652691Y-120473947D01*
X184631250Y-120475000D01*
X184193750Y-120475000D01*
X184172309Y-120473947D01*
X184151074Y-120470797D01*
X184130250Y-120465581D01*
X184110038Y-120458349D01*
X184090632Y-120449170D01*
X184072219Y-120438134D01*
X184054976Y-120425346D01*
X184039070Y-120410930D01*
X184024654Y-120395024D01*
X184011866Y-120377781D01*
X184000830Y-120359368D01*
X183991651Y-120339962D01*
X183984419Y-120319750D01*
X183979203Y-120298926D01*
X183976053Y-120277691D01*
X183975000Y-120256250D01*
X183975000Y-119743750D01*
X183976053Y-119722309D01*
X183979203Y-119701074D01*
X183984419Y-119680250D01*
X183991651Y-119660038D01*
X184000830Y-119640632D01*
X184011866Y-119622219D01*
X184024654Y-119604976D01*
X184039070Y-119589070D01*
X184054976Y-119574654D01*
X184072219Y-119561866D01*
X184090632Y-119550830D01*
X184110038Y-119541651D01*
X184130250Y-119534419D01*
X184151074Y-119529203D01*
X184172309Y-119526053D01*
X184193750Y-119525000D01*
X184631250Y-119525000D01*
X184652691Y-119526053D01*
X184652691Y-119526053D01*
G37*
D12*
X184412500Y-120000000D03*
D11*
G36*
X186227691Y-119526053D02*
G01*
X186248926Y-119529203D01*
X186269750Y-119534419D01*
X186289962Y-119541651D01*
X186309368Y-119550830D01*
X186327781Y-119561866D01*
X186345024Y-119574654D01*
X186360930Y-119589070D01*
X186375346Y-119604976D01*
X186388134Y-119622219D01*
X186399170Y-119640632D01*
X186408349Y-119660038D01*
X186415581Y-119680250D01*
X186420797Y-119701074D01*
X186423947Y-119722309D01*
X186425000Y-119743750D01*
X186425000Y-120256250D01*
X186423947Y-120277691D01*
X186420797Y-120298926D01*
X186415581Y-120319750D01*
X186408349Y-120339962D01*
X186399170Y-120359368D01*
X186388134Y-120377781D01*
X186375346Y-120395024D01*
X186360930Y-120410930D01*
X186345024Y-120425346D01*
X186327781Y-120438134D01*
X186309368Y-120449170D01*
X186289962Y-120458349D01*
X186269750Y-120465581D01*
X186248926Y-120470797D01*
X186227691Y-120473947D01*
X186206250Y-120475000D01*
X185768750Y-120475000D01*
X185747309Y-120473947D01*
X185726074Y-120470797D01*
X185705250Y-120465581D01*
X185685038Y-120458349D01*
X185665632Y-120449170D01*
X185647219Y-120438134D01*
X185629976Y-120425346D01*
X185614070Y-120410930D01*
X185599654Y-120395024D01*
X185586866Y-120377781D01*
X185575830Y-120359368D01*
X185566651Y-120339962D01*
X185559419Y-120319750D01*
X185554203Y-120298926D01*
X185551053Y-120277691D01*
X185550000Y-120256250D01*
X185550000Y-119743750D01*
X185551053Y-119722309D01*
X185554203Y-119701074D01*
X185559419Y-119680250D01*
X185566651Y-119660038D01*
X185575830Y-119640632D01*
X185586866Y-119622219D01*
X185599654Y-119604976D01*
X185614070Y-119589070D01*
X185629976Y-119574654D01*
X185647219Y-119561866D01*
X185665632Y-119550830D01*
X185685038Y-119541651D01*
X185705250Y-119534419D01*
X185726074Y-119529203D01*
X185747309Y-119526053D01*
X185768750Y-119525000D01*
X186206250Y-119525000D01*
X186227691Y-119526053D01*
X186227691Y-119526053D01*
G37*
D12*
X185987500Y-120000000D03*
D11*
G36*
X206227691Y-120626053D02*
G01*
X206248926Y-120629203D01*
X206269750Y-120634419D01*
X206289962Y-120641651D01*
X206309368Y-120650830D01*
X206327781Y-120661866D01*
X206345024Y-120674654D01*
X206360930Y-120689070D01*
X206375346Y-120704976D01*
X206388134Y-120722219D01*
X206399170Y-120740632D01*
X206408349Y-120760038D01*
X206415581Y-120780250D01*
X206420797Y-120801074D01*
X206423947Y-120822309D01*
X206425000Y-120843750D01*
X206425000Y-121356250D01*
X206423947Y-121377691D01*
X206420797Y-121398926D01*
X206415581Y-121419750D01*
X206408349Y-121439962D01*
X206399170Y-121459368D01*
X206388134Y-121477781D01*
X206375346Y-121495024D01*
X206360930Y-121510930D01*
X206345024Y-121525346D01*
X206327781Y-121538134D01*
X206309368Y-121549170D01*
X206289962Y-121558349D01*
X206269750Y-121565581D01*
X206248926Y-121570797D01*
X206227691Y-121573947D01*
X206206250Y-121575000D01*
X205768750Y-121575000D01*
X205747309Y-121573947D01*
X205726074Y-121570797D01*
X205705250Y-121565581D01*
X205685038Y-121558349D01*
X205665632Y-121549170D01*
X205647219Y-121538134D01*
X205629976Y-121525346D01*
X205614070Y-121510930D01*
X205599654Y-121495024D01*
X205586866Y-121477781D01*
X205575830Y-121459368D01*
X205566651Y-121439962D01*
X205559419Y-121419750D01*
X205554203Y-121398926D01*
X205551053Y-121377691D01*
X205550000Y-121356250D01*
X205550000Y-120843750D01*
X205551053Y-120822309D01*
X205554203Y-120801074D01*
X205559419Y-120780250D01*
X205566651Y-120760038D01*
X205575830Y-120740632D01*
X205586866Y-120722219D01*
X205599654Y-120704976D01*
X205614070Y-120689070D01*
X205629976Y-120674654D01*
X205647219Y-120661866D01*
X205665632Y-120650830D01*
X205685038Y-120641651D01*
X205705250Y-120634419D01*
X205726074Y-120629203D01*
X205747309Y-120626053D01*
X205768750Y-120625000D01*
X206206250Y-120625000D01*
X206227691Y-120626053D01*
X206227691Y-120626053D01*
G37*
D12*
X205987500Y-121100000D03*
D11*
G36*
X204652691Y-120626053D02*
G01*
X204673926Y-120629203D01*
X204694750Y-120634419D01*
X204714962Y-120641651D01*
X204734368Y-120650830D01*
X204752781Y-120661866D01*
X204770024Y-120674654D01*
X204785930Y-120689070D01*
X204800346Y-120704976D01*
X204813134Y-120722219D01*
X204824170Y-120740632D01*
X204833349Y-120760038D01*
X204840581Y-120780250D01*
X204845797Y-120801074D01*
X204848947Y-120822309D01*
X204850000Y-120843750D01*
X204850000Y-121356250D01*
X204848947Y-121377691D01*
X204845797Y-121398926D01*
X204840581Y-121419750D01*
X204833349Y-121439962D01*
X204824170Y-121459368D01*
X204813134Y-121477781D01*
X204800346Y-121495024D01*
X204785930Y-121510930D01*
X204770024Y-121525346D01*
X204752781Y-121538134D01*
X204734368Y-121549170D01*
X204714962Y-121558349D01*
X204694750Y-121565581D01*
X204673926Y-121570797D01*
X204652691Y-121573947D01*
X204631250Y-121575000D01*
X204193750Y-121575000D01*
X204172309Y-121573947D01*
X204151074Y-121570797D01*
X204130250Y-121565581D01*
X204110038Y-121558349D01*
X204090632Y-121549170D01*
X204072219Y-121538134D01*
X204054976Y-121525346D01*
X204039070Y-121510930D01*
X204024654Y-121495024D01*
X204011866Y-121477781D01*
X204000830Y-121459368D01*
X203991651Y-121439962D01*
X203984419Y-121419750D01*
X203979203Y-121398926D01*
X203976053Y-121377691D01*
X203975000Y-121356250D01*
X203975000Y-120843750D01*
X203976053Y-120822309D01*
X203979203Y-120801074D01*
X203984419Y-120780250D01*
X203991651Y-120760038D01*
X204000830Y-120740632D01*
X204011866Y-120722219D01*
X204024654Y-120704976D01*
X204039070Y-120689070D01*
X204054976Y-120674654D01*
X204072219Y-120661866D01*
X204090632Y-120650830D01*
X204110038Y-120641651D01*
X204130250Y-120634419D01*
X204151074Y-120629203D01*
X204172309Y-120626053D01*
X204193750Y-120625000D01*
X204631250Y-120625000D01*
X204652691Y-120626053D01*
X204652691Y-120626053D01*
G37*
D12*
X204412500Y-121100000D03*
D11*
G36*
X201352691Y-120626053D02*
G01*
X201373926Y-120629203D01*
X201394750Y-120634419D01*
X201414962Y-120641651D01*
X201434368Y-120650830D01*
X201452781Y-120661866D01*
X201470024Y-120674654D01*
X201485930Y-120689070D01*
X201500346Y-120704976D01*
X201513134Y-120722219D01*
X201524170Y-120740632D01*
X201533349Y-120760038D01*
X201540581Y-120780250D01*
X201545797Y-120801074D01*
X201548947Y-120822309D01*
X201550000Y-120843750D01*
X201550000Y-121356250D01*
X201548947Y-121377691D01*
X201545797Y-121398926D01*
X201540581Y-121419750D01*
X201533349Y-121439962D01*
X201524170Y-121459368D01*
X201513134Y-121477781D01*
X201500346Y-121495024D01*
X201485930Y-121510930D01*
X201470024Y-121525346D01*
X201452781Y-121538134D01*
X201434368Y-121549170D01*
X201414962Y-121558349D01*
X201394750Y-121565581D01*
X201373926Y-121570797D01*
X201352691Y-121573947D01*
X201331250Y-121575000D01*
X200893750Y-121575000D01*
X200872309Y-121573947D01*
X200851074Y-121570797D01*
X200830250Y-121565581D01*
X200810038Y-121558349D01*
X200790632Y-121549170D01*
X200772219Y-121538134D01*
X200754976Y-121525346D01*
X200739070Y-121510930D01*
X200724654Y-121495024D01*
X200711866Y-121477781D01*
X200700830Y-121459368D01*
X200691651Y-121439962D01*
X200684419Y-121419750D01*
X200679203Y-121398926D01*
X200676053Y-121377691D01*
X200675000Y-121356250D01*
X200675000Y-120843750D01*
X200676053Y-120822309D01*
X200679203Y-120801074D01*
X200684419Y-120780250D01*
X200691651Y-120760038D01*
X200700830Y-120740632D01*
X200711866Y-120722219D01*
X200724654Y-120704976D01*
X200739070Y-120689070D01*
X200754976Y-120674654D01*
X200772219Y-120661866D01*
X200790632Y-120650830D01*
X200810038Y-120641651D01*
X200830250Y-120634419D01*
X200851074Y-120629203D01*
X200872309Y-120626053D01*
X200893750Y-120625000D01*
X201331250Y-120625000D01*
X201352691Y-120626053D01*
X201352691Y-120626053D01*
G37*
D12*
X201112500Y-121100000D03*
D11*
G36*
X202927691Y-120626053D02*
G01*
X202948926Y-120629203D01*
X202969750Y-120634419D01*
X202989962Y-120641651D01*
X203009368Y-120650830D01*
X203027781Y-120661866D01*
X203045024Y-120674654D01*
X203060930Y-120689070D01*
X203075346Y-120704976D01*
X203088134Y-120722219D01*
X203099170Y-120740632D01*
X203108349Y-120760038D01*
X203115581Y-120780250D01*
X203120797Y-120801074D01*
X203123947Y-120822309D01*
X203125000Y-120843750D01*
X203125000Y-121356250D01*
X203123947Y-121377691D01*
X203120797Y-121398926D01*
X203115581Y-121419750D01*
X203108349Y-121439962D01*
X203099170Y-121459368D01*
X203088134Y-121477781D01*
X203075346Y-121495024D01*
X203060930Y-121510930D01*
X203045024Y-121525346D01*
X203027781Y-121538134D01*
X203009368Y-121549170D01*
X202989962Y-121558349D01*
X202969750Y-121565581D01*
X202948926Y-121570797D01*
X202927691Y-121573947D01*
X202906250Y-121575000D01*
X202468750Y-121575000D01*
X202447309Y-121573947D01*
X202426074Y-121570797D01*
X202405250Y-121565581D01*
X202385038Y-121558349D01*
X202365632Y-121549170D01*
X202347219Y-121538134D01*
X202329976Y-121525346D01*
X202314070Y-121510930D01*
X202299654Y-121495024D01*
X202286866Y-121477781D01*
X202275830Y-121459368D01*
X202266651Y-121439962D01*
X202259419Y-121419750D01*
X202254203Y-121398926D01*
X202251053Y-121377691D01*
X202250000Y-121356250D01*
X202250000Y-120843750D01*
X202251053Y-120822309D01*
X202254203Y-120801074D01*
X202259419Y-120780250D01*
X202266651Y-120760038D01*
X202275830Y-120740632D01*
X202286866Y-120722219D01*
X202299654Y-120704976D01*
X202314070Y-120689070D01*
X202329976Y-120674654D01*
X202347219Y-120661866D01*
X202365632Y-120650830D01*
X202385038Y-120641651D01*
X202405250Y-120634419D01*
X202426074Y-120629203D01*
X202447309Y-120626053D01*
X202468750Y-120625000D01*
X202906250Y-120625000D01*
X202927691Y-120626053D01*
X202927691Y-120626053D01*
G37*
D12*
X202687500Y-121100000D03*
D11*
G36*
X199715691Y-117026053D02*
G01*
X199736926Y-117029203D01*
X199757750Y-117034419D01*
X199777962Y-117041651D01*
X199797368Y-117050830D01*
X199815781Y-117061866D01*
X199833024Y-117074654D01*
X199848930Y-117089070D01*
X199863346Y-117104976D01*
X199876134Y-117122219D01*
X199887170Y-117140632D01*
X199896349Y-117160038D01*
X199903581Y-117180250D01*
X199908797Y-117201074D01*
X199911947Y-117222309D01*
X199913000Y-117243750D01*
X199913000Y-117756250D01*
X199911947Y-117777691D01*
X199908797Y-117798926D01*
X199903581Y-117819750D01*
X199896349Y-117839962D01*
X199887170Y-117859368D01*
X199876134Y-117877781D01*
X199863346Y-117895024D01*
X199848930Y-117910930D01*
X199833024Y-117925346D01*
X199815781Y-117938134D01*
X199797368Y-117949170D01*
X199777962Y-117958349D01*
X199757750Y-117965581D01*
X199736926Y-117970797D01*
X199715691Y-117973947D01*
X199694250Y-117975000D01*
X199256750Y-117975000D01*
X199235309Y-117973947D01*
X199214074Y-117970797D01*
X199193250Y-117965581D01*
X199173038Y-117958349D01*
X199153632Y-117949170D01*
X199135219Y-117938134D01*
X199117976Y-117925346D01*
X199102070Y-117910930D01*
X199087654Y-117895024D01*
X199074866Y-117877781D01*
X199063830Y-117859368D01*
X199054651Y-117839962D01*
X199047419Y-117819750D01*
X199042203Y-117798926D01*
X199039053Y-117777691D01*
X199038000Y-117756250D01*
X199038000Y-117243750D01*
X199039053Y-117222309D01*
X199042203Y-117201074D01*
X199047419Y-117180250D01*
X199054651Y-117160038D01*
X199063830Y-117140632D01*
X199074866Y-117122219D01*
X199087654Y-117104976D01*
X199102070Y-117089070D01*
X199117976Y-117074654D01*
X199135219Y-117061866D01*
X199153632Y-117050830D01*
X199173038Y-117041651D01*
X199193250Y-117034419D01*
X199214074Y-117029203D01*
X199235309Y-117026053D01*
X199256750Y-117025000D01*
X199694250Y-117025000D01*
X199715691Y-117026053D01*
X199715691Y-117026053D01*
G37*
D12*
X199475500Y-117500000D03*
D11*
G36*
X198140691Y-117026053D02*
G01*
X198161926Y-117029203D01*
X198182750Y-117034419D01*
X198202962Y-117041651D01*
X198222368Y-117050830D01*
X198240781Y-117061866D01*
X198258024Y-117074654D01*
X198273930Y-117089070D01*
X198288346Y-117104976D01*
X198301134Y-117122219D01*
X198312170Y-117140632D01*
X198321349Y-117160038D01*
X198328581Y-117180250D01*
X198333797Y-117201074D01*
X198336947Y-117222309D01*
X198338000Y-117243750D01*
X198338000Y-117756250D01*
X198336947Y-117777691D01*
X198333797Y-117798926D01*
X198328581Y-117819750D01*
X198321349Y-117839962D01*
X198312170Y-117859368D01*
X198301134Y-117877781D01*
X198288346Y-117895024D01*
X198273930Y-117910930D01*
X198258024Y-117925346D01*
X198240781Y-117938134D01*
X198222368Y-117949170D01*
X198202962Y-117958349D01*
X198182750Y-117965581D01*
X198161926Y-117970797D01*
X198140691Y-117973947D01*
X198119250Y-117975000D01*
X197681750Y-117975000D01*
X197660309Y-117973947D01*
X197639074Y-117970797D01*
X197618250Y-117965581D01*
X197598038Y-117958349D01*
X197578632Y-117949170D01*
X197560219Y-117938134D01*
X197542976Y-117925346D01*
X197527070Y-117910930D01*
X197512654Y-117895024D01*
X197499866Y-117877781D01*
X197488830Y-117859368D01*
X197479651Y-117839962D01*
X197472419Y-117819750D01*
X197467203Y-117798926D01*
X197464053Y-117777691D01*
X197463000Y-117756250D01*
X197463000Y-117243750D01*
X197464053Y-117222309D01*
X197467203Y-117201074D01*
X197472419Y-117180250D01*
X197479651Y-117160038D01*
X197488830Y-117140632D01*
X197499866Y-117122219D01*
X197512654Y-117104976D01*
X197527070Y-117089070D01*
X197542976Y-117074654D01*
X197560219Y-117061866D01*
X197578632Y-117050830D01*
X197598038Y-117041651D01*
X197618250Y-117034419D01*
X197639074Y-117029203D01*
X197660309Y-117026053D01*
X197681750Y-117025000D01*
X198119250Y-117025000D01*
X198140691Y-117026053D01*
X198140691Y-117026053D01*
G37*
D12*
X197900500Y-117500000D03*
D11*
G36*
X201752691Y-102526053D02*
G01*
X201773926Y-102529203D01*
X201794750Y-102534419D01*
X201814962Y-102541651D01*
X201834368Y-102550830D01*
X201852781Y-102561866D01*
X201870024Y-102574654D01*
X201885930Y-102589070D01*
X201900346Y-102604976D01*
X201913134Y-102622219D01*
X201924170Y-102640632D01*
X201933349Y-102660038D01*
X201940581Y-102680250D01*
X201945797Y-102701074D01*
X201948947Y-102722309D01*
X201950000Y-102743750D01*
X201950000Y-103256250D01*
X201948947Y-103277691D01*
X201945797Y-103298926D01*
X201940581Y-103319750D01*
X201933349Y-103339962D01*
X201924170Y-103359368D01*
X201913134Y-103377781D01*
X201900346Y-103395024D01*
X201885930Y-103410930D01*
X201870024Y-103425346D01*
X201852781Y-103438134D01*
X201834368Y-103449170D01*
X201814962Y-103458349D01*
X201794750Y-103465581D01*
X201773926Y-103470797D01*
X201752691Y-103473947D01*
X201731250Y-103475000D01*
X201293750Y-103475000D01*
X201272309Y-103473947D01*
X201251074Y-103470797D01*
X201230250Y-103465581D01*
X201210038Y-103458349D01*
X201190632Y-103449170D01*
X201172219Y-103438134D01*
X201154976Y-103425346D01*
X201139070Y-103410930D01*
X201124654Y-103395024D01*
X201111866Y-103377781D01*
X201100830Y-103359368D01*
X201091651Y-103339962D01*
X201084419Y-103319750D01*
X201079203Y-103298926D01*
X201076053Y-103277691D01*
X201075000Y-103256250D01*
X201075000Y-102743750D01*
X201076053Y-102722309D01*
X201079203Y-102701074D01*
X201084419Y-102680250D01*
X201091651Y-102660038D01*
X201100830Y-102640632D01*
X201111866Y-102622219D01*
X201124654Y-102604976D01*
X201139070Y-102589070D01*
X201154976Y-102574654D01*
X201172219Y-102561866D01*
X201190632Y-102550830D01*
X201210038Y-102541651D01*
X201230250Y-102534419D01*
X201251074Y-102529203D01*
X201272309Y-102526053D01*
X201293750Y-102525000D01*
X201731250Y-102525000D01*
X201752691Y-102526053D01*
X201752691Y-102526053D01*
G37*
D12*
X201512500Y-103000000D03*
D11*
G36*
X203327691Y-102526053D02*
G01*
X203348926Y-102529203D01*
X203369750Y-102534419D01*
X203389962Y-102541651D01*
X203409368Y-102550830D01*
X203427781Y-102561866D01*
X203445024Y-102574654D01*
X203460930Y-102589070D01*
X203475346Y-102604976D01*
X203488134Y-102622219D01*
X203499170Y-102640632D01*
X203508349Y-102660038D01*
X203515581Y-102680250D01*
X203520797Y-102701074D01*
X203523947Y-102722309D01*
X203525000Y-102743750D01*
X203525000Y-103256250D01*
X203523947Y-103277691D01*
X203520797Y-103298926D01*
X203515581Y-103319750D01*
X203508349Y-103339962D01*
X203499170Y-103359368D01*
X203488134Y-103377781D01*
X203475346Y-103395024D01*
X203460930Y-103410930D01*
X203445024Y-103425346D01*
X203427781Y-103438134D01*
X203409368Y-103449170D01*
X203389962Y-103458349D01*
X203369750Y-103465581D01*
X203348926Y-103470797D01*
X203327691Y-103473947D01*
X203306250Y-103475000D01*
X202868750Y-103475000D01*
X202847309Y-103473947D01*
X202826074Y-103470797D01*
X202805250Y-103465581D01*
X202785038Y-103458349D01*
X202765632Y-103449170D01*
X202747219Y-103438134D01*
X202729976Y-103425346D01*
X202714070Y-103410930D01*
X202699654Y-103395024D01*
X202686866Y-103377781D01*
X202675830Y-103359368D01*
X202666651Y-103339962D01*
X202659419Y-103319750D01*
X202654203Y-103298926D01*
X202651053Y-103277691D01*
X202650000Y-103256250D01*
X202650000Y-102743750D01*
X202651053Y-102722309D01*
X202654203Y-102701074D01*
X202659419Y-102680250D01*
X202666651Y-102660038D01*
X202675830Y-102640632D01*
X202686866Y-102622219D01*
X202699654Y-102604976D01*
X202714070Y-102589070D01*
X202729976Y-102574654D01*
X202747219Y-102561866D01*
X202765632Y-102550830D01*
X202785038Y-102541651D01*
X202805250Y-102534419D01*
X202826074Y-102529203D01*
X202847309Y-102526053D01*
X202868750Y-102525000D01*
X203306250Y-102525000D01*
X203327691Y-102526053D01*
X203327691Y-102526053D01*
G37*
D12*
X203087500Y-103000000D03*
D11*
G36*
X184652691Y-100826053D02*
G01*
X184673926Y-100829203D01*
X184694750Y-100834419D01*
X184714962Y-100841651D01*
X184734368Y-100850830D01*
X184752781Y-100861866D01*
X184770024Y-100874654D01*
X184785930Y-100889070D01*
X184800346Y-100904976D01*
X184813134Y-100922219D01*
X184824170Y-100940632D01*
X184833349Y-100960038D01*
X184840581Y-100980250D01*
X184845797Y-101001074D01*
X184848947Y-101022309D01*
X184850000Y-101043750D01*
X184850000Y-101556250D01*
X184848947Y-101577691D01*
X184845797Y-101598926D01*
X184840581Y-101619750D01*
X184833349Y-101639962D01*
X184824170Y-101659368D01*
X184813134Y-101677781D01*
X184800346Y-101695024D01*
X184785930Y-101710930D01*
X184770024Y-101725346D01*
X184752781Y-101738134D01*
X184734368Y-101749170D01*
X184714962Y-101758349D01*
X184694750Y-101765581D01*
X184673926Y-101770797D01*
X184652691Y-101773947D01*
X184631250Y-101775000D01*
X184193750Y-101775000D01*
X184172309Y-101773947D01*
X184151074Y-101770797D01*
X184130250Y-101765581D01*
X184110038Y-101758349D01*
X184090632Y-101749170D01*
X184072219Y-101738134D01*
X184054976Y-101725346D01*
X184039070Y-101710930D01*
X184024654Y-101695024D01*
X184011866Y-101677781D01*
X184000830Y-101659368D01*
X183991651Y-101639962D01*
X183984419Y-101619750D01*
X183979203Y-101598926D01*
X183976053Y-101577691D01*
X183975000Y-101556250D01*
X183975000Y-101043750D01*
X183976053Y-101022309D01*
X183979203Y-101001074D01*
X183984419Y-100980250D01*
X183991651Y-100960038D01*
X184000830Y-100940632D01*
X184011866Y-100922219D01*
X184024654Y-100904976D01*
X184039070Y-100889070D01*
X184054976Y-100874654D01*
X184072219Y-100861866D01*
X184090632Y-100850830D01*
X184110038Y-100841651D01*
X184130250Y-100834419D01*
X184151074Y-100829203D01*
X184172309Y-100826053D01*
X184193750Y-100825000D01*
X184631250Y-100825000D01*
X184652691Y-100826053D01*
X184652691Y-100826053D01*
G37*
D12*
X184412500Y-101300000D03*
D11*
G36*
X186227691Y-100826053D02*
G01*
X186248926Y-100829203D01*
X186269750Y-100834419D01*
X186289962Y-100841651D01*
X186309368Y-100850830D01*
X186327781Y-100861866D01*
X186345024Y-100874654D01*
X186360930Y-100889070D01*
X186375346Y-100904976D01*
X186388134Y-100922219D01*
X186399170Y-100940632D01*
X186408349Y-100960038D01*
X186415581Y-100980250D01*
X186420797Y-101001074D01*
X186423947Y-101022309D01*
X186425000Y-101043750D01*
X186425000Y-101556250D01*
X186423947Y-101577691D01*
X186420797Y-101598926D01*
X186415581Y-101619750D01*
X186408349Y-101639962D01*
X186399170Y-101659368D01*
X186388134Y-101677781D01*
X186375346Y-101695024D01*
X186360930Y-101710930D01*
X186345024Y-101725346D01*
X186327781Y-101738134D01*
X186309368Y-101749170D01*
X186289962Y-101758349D01*
X186269750Y-101765581D01*
X186248926Y-101770797D01*
X186227691Y-101773947D01*
X186206250Y-101775000D01*
X185768750Y-101775000D01*
X185747309Y-101773947D01*
X185726074Y-101770797D01*
X185705250Y-101765581D01*
X185685038Y-101758349D01*
X185665632Y-101749170D01*
X185647219Y-101738134D01*
X185629976Y-101725346D01*
X185614070Y-101710930D01*
X185599654Y-101695024D01*
X185586866Y-101677781D01*
X185575830Y-101659368D01*
X185566651Y-101639962D01*
X185559419Y-101619750D01*
X185554203Y-101598926D01*
X185551053Y-101577691D01*
X185550000Y-101556250D01*
X185550000Y-101043750D01*
X185551053Y-101022309D01*
X185554203Y-101001074D01*
X185559419Y-100980250D01*
X185566651Y-100960038D01*
X185575830Y-100940632D01*
X185586866Y-100922219D01*
X185599654Y-100904976D01*
X185614070Y-100889070D01*
X185629976Y-100874654D01*
X185647219Y-100861866D01*
X185665632Y-100850830D01*
X185685038Y-100841651D01*
X185705250Y-100834419D01*
X185726074Y-100829203D01*
X185747309Y-100826053D01*
X185768750Y-100825000D01*
X186206250Y-100825000D01*
X186227691Y-100826053D01*
X186227691Y-100826053D01*
G37*
D12*
X185987500Y-101300000D03*
D14*
X190050000Y-113000000D03*
X191000000Y-113000000D03*
X191950000Y-113000000D03*
X191950000Y-110800000D03*
X190050000Y-110800000D03*
D15*
X198050000Y-102800000D03*
X189550000Y-102800000D03*
D16*
X202200000Y-117500000D03*
X208200000Y-101400000D03*
X208200000Y-104000000D03*
D17*
X194025000Y-114950000D03*
X194675000Y-114950000D03*
X195325000Y-114950000D03*
X195975000Y-114950000D03*
X196625000Y-114950000D03*
X197275000Y-114950000D03*
X197925000Y-114950000D03*
X198575000Y-114950000D03*
X198575000Y-109050000D03*
X197925000Y-109050000D03*
X197275000Y-109050000D03*
X196625000Y-109050000D03*
X195975000Y-109050000D03*
X195325000Y-109050000D03*
X194675000Y-109050000D03*
X194025000Y-109050000D03*
D18*
X206700000Y-107160000D03*
D19*
X206700000Y-109700000D03*
X206700000Y-112240000D03*
X206700000Y-114780000D03*
D20*
X201700000Y-111700000D03*
X200400000Y-111700000D03*
X201050000Y-113700000D03*
D11*
G36*
X202027691Y-109426053D02*
G01*
X202048926Y-109429203D01*
X202069750Y-109434419D01*
X202089962Y-109441651D01*
X202109368Y-109450830D01*
X202127781Y-109461866D01*
X202145024Y-109474654D01*
X202160930Y-109489070D01*
X202175346Y-109504976D01*
X202188134Y-109522219D01*
X202199170Y-109540632D01*
X202208349Y-109560038D01*
X202215581Y-109580250D01*
X202220797Y-109601074D01*
X202223947Y-109622309D01*
X202225000Y-109643750D01*
X202225000Y-110156250D01*
X202223947Y-110177691D01*
X202220797Y-110198926D01*
X202215581Y-110219750D01*
X202208349Y-110239962D01*
X202199170Y-110259368D01*
X202188134Y-110277781D01*
X202175346Y-110295024D01*
X202160930Y-110310930D01*
X202145024Y-110325346D01*
X202127781Y-110338134D01*
X202109368Y-110349170D01*
X202089962Y-110358349D01*
X202069750Y-110365581D01*
X202048926Y-110370797D01*
X202027691Y-110373947D01*
X202006250Y-110375000D01*
X201568750Y-110375000D01*
X201547309Y-110373947D01*
X201526074Y-110370797D01*
X201505250Y-110365581D01*
X201485038Y-110358349D01*
X201465632Y-110349170D01*
X201447219Y-110338134D01*
X201429976Y-110325346D01*
X201414070Y-110310930D01*
X201399654Y-110295024D01*
X201386866Y-110277781D01*
X201375830Y-110259368D01*
X201366651Y-110239962D01*
X201359419Y-110219750D01*
X201354203Y-110198926D01*
X201351053Y-110177691D01*
X201350000Y-110156250D01*
X201350000Y-109643750D01*
X201351053Y-109622309D01*
X201354203Y-109601074D01*
X201359419Y-109580250D01*
X201366651Y-109560038D01*
X201375830Y-109540632D01*
X201386866Y-109522219D01*
X201399654Y-109504976D01*
X201414070Y-109489070D01*
X201429976Y-109474654D01*
X201447219Y-109461866D01*
X201465632Y-109450830D01*
X201485038Y-109441651D01*
X201505250Y-109434419D01*
X201526074Y-109429203D01*
X201547309Y-109426053D01*
X201568750Y-109425000D01*
X202006250Y-109425000D01*
X202027691Y-109426053D01*
X202027691Y-109426053D01*
G37*
D12*
X201787500Y-109900000D03*
D11*
G36*
X200452691Y-109426053D02*
G01*
X200473926Y-109429203D01*
X200494750Y-109434419D01*
X200514962Y-109441651D01*
X200534368Y-109450830D01*
X200552781Y-109461866D01*
X200570024Y-109474654D01*
X200585930Y-109489070D01*
X200600346Y-109504976D01*
X200613134Y-109522219D01*
X200624170Y-109540632D01*
X200633349Y-109560038D01*
X200640581Y-109580250D01*
X200645797Y-109601074D01*
X200648947Y-109622309D01*
X200650000Y-109643750D01*
X200650000Y-110156250D01*
X200648947Y-110177691D01*
X200645797Y-110198926D01*
X200640581Y-110219750D01*
X200633349Y-110239962D01*
X200624170Y-110259368D01*
X200613134Y-110277781D01*
X200600346Y-110295024D01*
X200585930Y-110310930D01*
X200570024Y-110325346D01*
X200552781Y-110338134D01*
X200534368Y-110349170D01*
X200514962Y-110358349D01*
X200494750Y-110365581D01*
X200473926Y-110370797D01*
X200452691Y-110373947D01*
X200431250Y-110375000D01*
X199993750Y-110375000D01*
X199972309Y-110373947D01*
X199951074Y-110370797D01*
X199930250Y-110365581D01*
X199910038Y-110358349D01*
X199890632Y-110349170D01*
X199872219Y-110338134D01*
X199854976Y-110325346D01*
X199839070Y-110310930D01*
X199824654Y-110295024D01*
X199811866Y-110277781D01*
X199800830Y-110259368D01*
X199791651Y-110239962D01*
X199784419Y-110219750D01*
X199779203Y-110198926D01*
X199776053Y-110177691D01*
X199775000Y-110156250D01*
X199775000Y-109643750D01*
X199776053Y-109622309D01*
X199779203Y-109601074D01*
X199784419Y-109580250D01*
X199791651Y-109560038D01*
X199800830Y-109540632D01*
X199811866Y-109522219D01*
X199824654Y-109504976D01*
X199839070Y-109489070D01*
X199854976Y-109474654D01*
X199872219Y-109461866D01*
X199890632Y-109450830D01*
X199910038Y-109441651D01*
X199930250Y-109434419D01*
X199951074Y-109429203D01*
X199972309Y-109426053D01*
X199993750Y-109425000D01*
X200431250Y-109425000D01*
X200452691Y-109426053D01*
X200452691Y-109426053D01*
G37*
D12*
X200212500Y-109900000D03*
D11*
G36*
X200564691Y-114926053D02*
G01*
X200585926Y-114929203D01*
X200606750Y-114934419D01*
X200626962Y-114941651D01*
X200646368Y-114950830D01*
X200664781Y-114961866D01*
X200682024Y-114974654D01*
X200697930Y-114989070D01*
X200712346Y-115004976D01*
X200725134Y-115022219D01*
X200736170Y-115040632D01*
X200745349Y-115060038D01*
X200752581Y-115080250D01*
X200757797Y-115101074D01*
X200760947Y-115122309D01*
X200762000Y-115143750D01*
X200762000Y-115656250D01*
X200760947Y-115677691D01*
X200757797Y-115698926D01*
X200752581Y-115719750D01*
X200745349Y-115739962D01*
X200736170Y-115759368D01*
X200725134Y-115777781D01*
X200712346Y-115795024D01*
X200697930Y-115810930D01*
X200682024Y-115825346D01*
X200664781Y-115838134D01*
X200646368Y-115849170D01*
X200626962Y-115858349D01*
X200606750Y-115865581D01*
X200585926Y-115870797D01*
X200564691Y-115873947D01*
X200543250Y-115875000D01*
X200105750Y-115875000D01*
X200084309Y-115873947D01*
X200063074Y-115870797D01*
X200042250Y-115865581D01*
X200022038Y-115858349D01*
X200002632Y-115849170D01*
X199984219Y-115838134D01*
X199966976Y-115825346D01*
X199951070Y-115810930D01*
X199936654Y-115795024D01*
X199923866Y-115777781D01*
X199912830Y-115759368D01*
X199903651Y-115739962D01*
X199896419Y-115719750D01*
X199891203Y-115698926D01*
X199888053Y-115677691D01*
X199887000Y-115656250D01*
X199887000Y-115143750D01*
X199888053Y-115122309D01*
X199891203Y-115101074D01*
X199896419Y-115080250D01*
X199903651Y-115060038D01*
X199912830Y-115040632D01*
X199923866Y-115022219D01*
X199936654Y-115004976D01*
X199951070Y-114989070D01*
X199966976Y-114974654D01*
X199984219Y-114961866D01*
X200002632Y-114950830D01*
X200022038Y-114941651D01*
X200042250Y-114934419D01*
X200063074Y-114929203D01*
X200084309Y-114926053D01*
X200105750Y-114925000D01*
X200543250Y-114925000D01*
X200564691Y-114926053D01*
X200564691Y-114926053D01*
G37*
D12*
X200324500Y-115400000D03*
D11*
G36*
X202139691Y-114926053D02*
G01*
X202160926Y-114929203D01*
X202181750Y-114934419D01*
X202201962Y-114941651D01*
X202221368Y-114950830D01*
X202239781Y-114961866D01*
X202257024Y-114974654D01*
X202272930Y-114989070D01*
X202287346Y-115004976D01*
X202300134Y-115022219D01*
X202311170Y-115040632D01*
X202320349Y-115060038D01*
X202327581Y-115080250D01*
X202332797Y-115101074D01*
X202335947Y-115122309D01*
X202337000Y-115143750D01*
X202337000Y-115656250D01*
X202335947Y-115677691D01*
X202332797Y-115698926D01*
X202327581Y-115719750D01*
X202320349Y-115739962D01*
X202311170Y-115759368D01*
X202300134Y-115777781D01*
X202287346Y-115795024D01*
X202272930Y-115810930D01*
X202257024Y-115825346D01*
X202239781Y-115838134D01*
X202221368Y-115849170D01*
X202201962Y-115858349D01*
X202181750Y-115865581D01*
X202160926Y-115870797D01*
X202139691Y-115873947D01*
X202118250Y-115875000D01*
X201680750Y-115875000D01*
X201659309Y-115873947D01*
X201638074Y-115870797D01*
X201617250Y-115865581D01*
X201597038Y-115858349D01*
X201577632Y-115849170D01*
X201559219Y-115838134D01*
X201541976Y-115825346D01*
X201526070Y-115810930D01*
X201511654Y-115795024D01*
X201498866Y-115777781D01*
X201487830Y-115759368D01*
X201478651Y-115739962D01*
X201471419Y-115719750D01*
X201466203Y-115698926D01*
X201463053Y-115677691D01*
X201462000Y-115656250D01*
X201462000Y-115143750D01*
X201463053Y-115122309D01*
X201466203Y-115101074D01*
X201471419Y-115080250D01*
X201478651Y-115060038D01*
X201487830Y-115040632D01*
X201498866Y-115022219D01*
X201511654Y-115004976D01*
X201526070Y-114989070D01*
X201541976Y-114974654D01*
X201559219Y-114961866D01*
X201577632Y-114950830D01*
X201597038Y-114941651D01*
X201617250Y-114934419D01*
X201638074Y-114929203D01*
X201659309Y-114926053D01*
X201680750Y-114925000D01*
X202118250Y-114925000D01*
X202139691Y-114926053D01*
X202139691Y-114926053D01*
G37*
D12*
X201899500Y-115400000D03*
D11*
G36*
X202015691Y-107626053D02*
G01*
X202036926Y-107629203D01*
X202057750Y-107634419D01*
X202077962Y-107641651D01*
X202097368Y-107650830D01*
X202115781Y-107661866D01*
X202133024Y-107674654D01*
X202148930Y-107689070D01*
X202163346Y-107704976D01*
X202176134Y-107722219D01*
X202187170Y-107740632D01*
X202196349Y-107760038D01*
X202203581Y-107780250D01*
X202208797Y-107801074D01*
X202211947Y-107822309D01*
X202213000Y-107843750D01*
X202213000Y-108356250D01*
X202211947Y-108377691D01*
X202208797Y-108398926D01*
X202203581Y-108419750D01*
X202196349Y-108439962D01*
X202187170Y-108459368D01*
X202176134Y-108477781D01*
X202163346Y-108495024D01*
X202148930Y-108510930D01*
X202133024Y-108525346D01*
X202115781Y-108538134D01*
X202097368Y-108549170D01*
X202077962Y-108558349D01*
X202057750Y-108565581D01*
X202036926Y-108570797D01*
X202015691Y-108573947D01*
X201994250Y-108575000D01*
X201556750Y-108575000D01*
X201535309Y-108573947D01*
X201514074Y-108570797D01*
X201493250Y-108565581D01*
X201473038Y-108558349D01*
X201453632Y-108549170D01*
X201435219Y-108538134D01*
X201417976Y-108525346D01*
X201402070Y-108510930D01*
X201387654Y-108495024D01*
X201374866Y-108477781D01*
X201363830Y-108459368D01*
X201354651Y-108439962D01*
X201347419Y-108419750D01*
X201342203Y-108398926D01*
X201339053Y-108377691D01*
X201338000Y-108356250D01*
X201338000Y-107843750D01*
X201339053Y-107822309D01*
X201342203Y-107801074D01*
X201347419Y-107780250D01*
X201354651Y-107760038D01*
X201363830Y-107740632D01*
X201374866Y-107722219D01*
X201387654Y-107704976D01*
X201402070Y-107689070D01*
X201417976Y-107674654D01*
X201435219Y-107661866D01*
X201453632Y-107650830D01*
X201473038Y-107641651D01*
X201493250Y-107634419D01*
X201514074Y-107629203D01*
X201535309Y-107626053D01*
X201556750Y-107625000D01*
X201994250Y-107625000D01*
X202015691Y-107626053D01*
X202015691Y-107626053D01*
G37*
D12*
X201775500Y-108100000D03*
D11*
G36*
X200440691Y-107626053D02*
G01*
X200461926Y-107629203D01*
X200482750Y-107634419D01*
X200502962Y-107641651D01*
X200522368Y-107650830D01*
X200540781Y-107661866D01*
X200558024Y-107674654D01*
X200573930Y-107689070D01*
X200588346Y-107704976D01*
X200601134Y-107722219D01*
X200612170Y-107740632D01*
X200621349Y-107760038D01*
X200628581Y-107780250D01*
X200633797Y-107801074D01*
X200636947Y-107822309D01*
X200638000Y-107843750D01*
X200638000Y-108356250D01*
X200636947Y-108377691D01*
X200633797Y-108398926D01*
X200628581Y-108419750D01*
X200621349Y-108439962D01*
X200612170Y-108459368D01*
X200601134Y-108477781D01*
X200588346Y-108495024D01*
X200573930Y-108510930D01*
X200558024Y-108525346D01*
X200540781Y-108538134D01*
X200522368Y-108549170D01*
X200502962Y-108558349D01*
X200482750Y-108565581D01*
X200461926Y-108570797D01*
X200440691Y-108573947D01*
X200419250Y-108575000D01*
X199981750Y-108575000D01*
X199960309Y-108573947D01*
X199939074Y-108570797D01*
X199918250Y-108565581D01*
X199898038Y-108558349D01*
X199878632Y-108549170D01*
X199860219Y-108538134D01*
X199842976Y-108525346D01*
X199827070Y-108510930D01*
X199812654Y-108495024D01*
X199799866Y-108477781D01*
X199788830Y-108459368D01*
X199779651Y-108439962D01*
X199772419Y-108419750D01*
X199767203Y-108398926D01*
X199764053Y-108377691D01*
X199763000Y-108356250D01*
X199763000Y-107843750D01*
X199764053Y-107822309D01*
X199767203Y-107801074D01*
X199772419Y-107780250D01*
X199779651Y-107760038D01*
X199788830Y-107740632D01*
X199799866Y-107722219D01*
X199812654Y-107704976D01*
X199827070Y-107689070D01*
X199842976Y-107674654D01*
X199860219Y-107661866D01*
X199878632Y-107650830D01*
X199898038Y-107641651D01*
X199918250Y-107634419D01*
X199939074Y-107629203D01*
X199960309Y-107626053D01*
X199981750Y-107625000D01*
X200419250Y-107625000D01*
X200440691Y-107626053D01*
X200440691Y-107626053D01*
G37*
D12*
X200200500Y-108100000D03*
D21*
X200582300Y-117255400D03*
X192285100Y-118155800D03*
X194218800Y-117554900D03*
X189222000Y-112012700D03*
X200184300Y-120254700D03*
X197409300Y-110572100D03*
X188588600Y-119766000D03*
X204800000Y-101100000D03*
X189900000Y-105000000D03*
X196737000Y-117750200D03*
X203841100Y-117436500D03*
X196731100Y-113525000D03*
X195580100Y-110490300D03*
X196380500Y-107606900D03*
X201010700Y-101854700D03*
X195507400Y-106876600D03*
X204609400Y-106531800D03*
D22*
X199475500Y-117255400D02*
X200582300Y-117255400D01*
X199475500Y-117255400D02*
X199475500Y-117010800D01*
X199475500Y-117010800D02*
X198575000Y-116110300D01*
X199475500Y-117500000D02*
X199475500Y-117255400D01*
X198575000Y-115275000D02*
X198575000Y-114950000D01*
X198575000Y-115275000D02*
X198575000Y-116110300D01*
X203087500Y-103000000D02*
X203087500Y-102760700D01*
X203087500Y-102760700D02*
X201358100Y-101031300D01*
X201358100Y-101031300D02*
X187426000Y-101031300D01*
X187426000Y-101031300D02*
X186836200Y-101621100D01*
X186836200Y-101621100D02*
X186836200Y-102451300D01*
X186836200Y-102451300D02*
X185987500Y-103300000D01*
X205987500Y-121100000D02*
X204507900Y-122579600D01*
X204507900Y-122579600D02*
X197867100Y-122579600D01*
X197867100Y-122579600D02*
X194687500Y-119400000D01*
X192285100Y-118155800D02*
X191975500Y-117846200D01*
X191975500Y-117846200D02*
X191975500Y-117000000D01*
X194025000Y-114950000D02*
X194025000Y-117361100D01*
X194025000Y-117361100D02*
X194218800Y-117554900D01*
X194218800Y-117554900D02*
X194687500Y-118023600D01*
X194687500Y-118023600D02*
X194687500Y-119400000D01*
X190050000Y-111740300D02*
X189494400Y-111740300D01*
X189494400Y-111740300D02*
X189222000Y-112012700D01*
X190050000Y-110800000D02*
X190050000Y-111740300D01*
X190100000Y-108737500D02*
X188181500Y-106819000D01*
X188181500Y-106819000D02*
X184666800Y-106819000D01*
X184666800Y-106819000D02*
X183563800Y-105716000D01*
X183563800Y-105716000D02*
X183563800Y-104613700D01*
X183563800Y-104613700D02*
X183991300Y-104186200D01*
X183991300Y-104186200D02*
X185101300Y-104186200D01*
X185101300Y-104186200D02*
X185987500Y-103300000D01*
X190050000Y-109859700D02*
X190100000Y-109809700D01*
X190100000Y-109809700D02*
X190100000Y-108737500D01*
X190050000Y-110800000D02*
X190050000Y-109859700D01*
X200184300Y-120254700D02*
X201029600Y-121100000D01*
X201029600Y-121100000D02*
X201112500Y-121100000D01*
X189812500Y-119400000D02*
X188954600Y-119400000D01*
X188954600Y-119400000D02*
X188588600Y-119766000D01*
X191000000Y-112059700D02*
X192180700Y-112059700D01*
X192180700Y-112059700D02*
X192924500Y-111315900D01*
X197409300Y-110572100D02*
X196665500Y-111315900D01*
X196665500Y-111315900D02*
X192924500Y-111315900D01*
X191000000Y-113000000D02*
X191000000Y-112059700D01*
X198453700Y-110389000D02*
X197592400Y-110389000D01*
X197592400Y-110389000D02*
X197409300Y-110572100D01*
X199764700Y-111700000D02*
X198453700Y-110389000D01*
X198453700Y-110389000D02*
X198453700Y-110331600D01*
X198453700Y-110331600D02*
X198575000Y-110210300D01*
X200400000Y-111700000D02*
X199764700Y-111700000D01*
X198575000Y-109050000D02*
X198575000Y-110210300D01*
X191000000Y-113000000D02*
X191000000Y-114062500D01*
X191000000Y-114062500D02*
X191937500Y-115000000D01*
X190400500Y-117000000D02*
X191937500Y-115463000D01*
X191937500Y-115463000D02*
X191937500Y-115000000D01*
X183889700Y-108000000D02*
X185200000Y-108000000D01*
X184000000Y-99800000D02*
X182998200Y-100801800D01*
X182998200Y-100801800D02*
X182998200Y-107108500D01*
X182998200Y-107108500D02*
X183889700Y-108000000D01*
X186200000Y-100100000D02*
X184300000Y-100100000D01*
X184300000Y-100100000D02*
X184000000Y-99800000D01*
X186000000Y-101287500D02*
X185987500Y-101300000D01*
X203941600Y-103845900D02*
X203941600Y-102488700D01*
X203941600Y-102488700D02*
X201552900Y-100100000D01*
X201552900Y-100100000D02*
X186300000Y-100100000D01*
X203087500Y-104700000D02*
X203941600Y-103845900D01*
X186300000Y-100100000D02*
X186000000Y-100400000D01*
X186000000Y-100400000D02*
X186000000Y-101287500D01*
X203087500Y-104700000D02*
X204800000Y-102987500D01*
X204800000Y-102987500D02*
X204800000Y-101100000D01*
X193215900Y-107528400D02*
X192900000Y-107212500D01*
X192924500Y-111315900D02*
X193215900Y-111315900D01*
X193215900Y-111315900D02*
X193215900Y-107528400D01*
X185384900Y-106172400D02*
X184412500Y-105200000D01*
X188772400Y-106172400D02*
X185384900Y-106172400D01*
X189200000Y-118200500D02*
X189200000Y-117300000D01*
X188200500Y-119200000D02*
X189200000Y-118200500D01*
X188200000Y-119200000D02*
X188200500Y-119200000D01*
X189812500Y-119400000D02*
X188400000Y-119400000D01*
X188400000Y-119400000D02*
X188200000Y-119200000D01*
X190100000Y-106862500D02*
X190100000Y-105200000D01*
X190100000Y-105200000D02*
X189900000Y-105000000D01*
X185200000Y-110000000D02*
X188200000Y-113000000D01*
X188200000Y-113000000D02*
X190050000Y-113000000D01*
X201899500Y-112700000D02*
X201899500Y-115400000D01*
X191950000Y-113000000D02*
X192250000Y-112700000D01*
X192250000Y-112700000D02*
X201899500Y-112700000D01*
X185987500Y-117200000D02*
X185987500Y-120000000D01*
X185987500Y-117200000D02*
X187862500Y-117200000D01*
X187862500Y-117200000D02*
X190062500Y-115000000D01*
X190050000Y-113000000D02*
X190050000Y-114987500D01*
X190050000Y-114987500D02*
X190062500Y-115000000D01*
X206700000Y-107899500D02*
X201899500Y-112700000D01*
X206700000Y-107160000D02*
X206700000Y-107899500D01*
X191950000Y-110800000D02*
X191950000Y-109859700D01*
X191950000Y-109859700D02*
X192000000Y-109809700D01*
X192000000Y-109809700D02*
X192000000Y-108787500D01*
X201281500Y-104469000D02*
X201512000Y-104700000D01*
X198050000Y-102800000D02*
X199612000Y-102800000D01*
X199612000Y-102800000D02*
X201051000Y-104238000D01*
X201051000Y-104238000D02*
X201281500Y-104469000D01*
X201281500Y-104469000D02*
X201512500Y-104700000D01*
X194675000Y-109050000D02*
X194675000Y-104925000D01*
X194675000Y-104925000D02*
X196800000Y-102800000D01*
X196800000Y-102800000D02*
X198050000Y-102800000D01*
X185988000Y-105156000D02*
X185987500Y-105156500D01*
X185987500Y-105156500D02*
X185987500Y-105200000D01*
X185988000Y-105156000D02*
X185988000Y-105200000D01*
X189550000Y-102800000D02*
X188300000Y-102800000D01*
X188300000Y-102800000D02*
X185988000Y-105112000D01*
X185988000Y-105112000D02*
X185988000Y-105156000D01*
X194025000Y-109050000D02*
X194025000Y-104925000D01*
X194025000Y-104925000D02*
X191900000Y-102800000D01*
X191900000Y-102800000D02*
X189550000Y-102800000D01*
X184412500Y-103300000D02*
X184412500Y-101300000D01*
X196754600Y-117732600D02*
X197991400Y-118969500D01*
X197991400Y-118969500D02*
X200682000Y-118969500D01*
X200682000Y-118969500D02*
X201112500Y-119400000D01*
X196625000Y-114950000D02*
X196625000Y-117603100D01*
X196625000Y-117603100D02*
X196754600Y-117732600D01*
X196737000Y-117750200D02*
X196754600Y-117732600D01*
X184412500Y-120000000D02*
X185512500Y-121100000D01*
X185512500Y-121100000D02*
X189812500Y-121100000D01*
X183550100Y-119137600D02*
X184412500Y-120000000D01*
X183550100Y-116675700D02*
X183550100Y-119137600D01*
X185200000Y-114000000D02*
X185200000Y-115025800D01*
X185200000Y-115025800D02*
X183550100Y-116675700D01*
X203841100Y-117436500D02*
X204024000Y-117436500D01*
X204024000Y-117436500D02*
X205987500Y-119400000D01*
X197275000Y-113929800D02*
X196870200Y-113525000D01*
X196870200Y-113525000D02*
X196731100Y-113525000D01*
X197275000Y-114950000D02*
X197275000Y-113929800D01*
X185200000Y-112000000D02*
X185188600Y-112011400D01*
X185188600Y-112011400D02*
X185188600Y-112192600D01*
X186800000Y-114812500D02*
X184412500Y-117200000D01*
X186800000Y-113500000D02*
X186800000Y-114812500D01*
X185188600Y-112192600D02*
X185492600Y-112192600D01*
X185492600Y-112192600D02*
X186800000Y-113500000D01*
X184848000Y-112192600D02*
X185188600Y-112192600D01*
X182964200Y-114076400D02*
X184848000Y-112192600D01*
X182964200Y-119941900D02*
X182964200Y-114076400D01*
X185021100Y-121998800D02*
X182964200Y-119941900D01*
X194687500Y-121100000D02*
X193788700Y-121998800D01*
X193788700Y-121998800D02*
X185021100Y-121998800D01*
X195975000Y-109050000D02*
X195975000Y-110210300D01*
X195580100Y-110490300D02*
X195860100Y-110210300D01*
X195860100Y-110210300D02*
X195975000Y-110210300D01*
X196625000Y-109050000D02*
X196625000Y-107851400D01*
X196625000Y-107851400D02*
X196380500Y-107606900D01*
X193112500Y-119400000D02*
X193112500Y-114307200D01*
X193112500Y-114307200D02*
X193630000Y-113789700D01*
X193630000Y-113789700D02*
X194675000Y-113789700D01*
X193112500Y-119400000D02*
X193112500Y-121100000D01*
X194675000Y-114950000D02*
X194675000Y-113789700D01*
X191387500Y-119400000D02*
X193112500Y-119400000D01*
X191387500Y-119400000D02*
X191387500Y-121100000D01*
X195325000Y-114950000D02*
X195325000Y-117497800D01*
X195325000Y-117497800D02*
X199829900Y-122002700D01*
X199829900Y-122002700D02*
X201784800Y-122002700D01*
X201784800Y-122002700D02*
X202687500Y-121100000D01*
X202687500Y-121100000D02*
X202687500Y-120250000D01*
X204412500Y-120250000D02*
X204412500Y-119400000D01*
X204412500Y-121100000D02*
X204412500Y-120250000D01*
X202687500Y-120250000D02*
X204412500Y-120250000D01*
X202687500Y-120250000D02*
X202687500Y-119400000D01*
X202200000Y-117500000D02*
X201312900Y-118387100D01*
X201312900Y-118387100D02*
X198836600Y-118387100D01*
X198836600Y-118387100D02*
X197925000Y-117475500D01*
X197925000Y-117475500D02*
X197900500Y-117500000D01*
X197925000Y-114950000D02*
X197925000Y-117475500D01*
X201512500Y-103000000D02*
X201512500Y-102356500D01*
X201512500Y-102356500D02*
X201010700Y-101854700D01*
X195325000Y-109050000D02*
X195325000Y-107059000D01*
X195325000Y-107059000D02*
X195507400Y-106876600D01*
X197275000Y-107889700D02*
X199045300Y-106119400D01*
X199045300Y-106119400D02*
X203083700Y-106119400D01*
X203083700Y-106119400D02*
X207803100Y-101400000D01*
X207803100Y-101400000D02*
X208200000Y-101400000D01*
X197275000Y-109050000D02*
X197275000Y-107889700D01*
X201700000Y-111700000D02*
X201700000Y-110939700D01*
X201700000Y-110939700D02*
X201787500Y-110852200D01*
X201787500Y-110852200D02*
X201787500Y-109900000D01*
X200629900Y-115400000D02*
X200324500Y-115400000D01*
X201050000Y-114460300D02*
X200629900Y-114880400D01*
X200629900Y-114880400D02*
X200629900Y-115400000D01*
X204609400Y-106531800D02*
X205254800Y-105886400D01*
X205254800Y-105886400D02*
X207710800Y-105886400D01*
X207710800Y-105886400D02*
X207997500Y-106173100D01*
X207997500Y-106173100D02*
X207997500Y-110187200D01*
X207997500Y-110187200D02*
X207214700Y-110970000D01*
X207214700Y-110970000D02*
X206105200Y-110970000D01*
X206105200Y-110970000D02*
X202867900Y-114207300D01*
X202867900Y-114207300D02*
X202867900Y-115869200D01*
X202867900Y-115869200D02*
X202450900Y-116286200D01*
X202450900Y-116286200D02*
X201330900Y-116286200D01*
X201330900Y-116286200D02*
X200629900Y-115585200D01*
X200629900Y-115585200D02*
X200629900Y-115400000D01*
X201775500Y-108100000D02*
X203041200Y-108100000D01*
X203041200Y-108100000D02*
X204609400Y-106531800D01*
X201050000Y-113700000D02*
X201050000Y-114460300D01*
X208200000Y-104000000D02*
X205995400Y-104000000D01*
X205995400Y-104000000D02*
X203124200Y-106871200D01*
X203124200Y-106871200D02*
X201441200Y-106871200D01*
X201441200Y-106871200D02*
X201441200Y-106871300D01*
X201441200Y-106871300D02*
X200212500Y-108100000D01*
X200212500Y-108100000D02*
X200212500Y-109900000D01*
X200212500Y-108100000D02*
X200200500Y-108100000D01*
X197925000Y-109050000D02*
X197925000Y-108140000D01*
X197925000Y-108140000D02*
X198175400Y-107889600D01*
X198175400Y-107889600D02*
X199990100Y-107889600D01*
X199990100Y-107889600D02*
X200200500Y-108100000D01*
D23*
G36*
X209055665Y-99718863D02*
G01*
X209109214Y-99735030D01*
X209158597Y-99761288D01*
X209201945Y-99796641D01*
X209237600Y-99839740D01*
X209264201Y-99888937D01*
X209280742Y-99942375D01*
X209290000Y-100030455D01*
X209290000Y-101065594D01*
X209205824Y-100862376D01*
X209081612Y-100676480D01*
X208923520Y-100518388D01*
X208737624Y-100394176D01*
X208531067Y-100308617D01*
X208311788Y-100265000D01*
X208088212Y-100265000D01*
X207868933Y-100308617D01*
X207662376Y-100394176D01*
X207476480Y-100518388D01*
X207318388Y-100676480D01*
X207194176Y-100862376D01*
X207168444Y-100924498D01*
X204113673Y-103979269D01*
X204055537Y-103870506D01*
X203980383Y-103778930D01*
X204018671Y-103732275D01*
X204097850Y-103584142D01*
X204146608Y-103423408D01*
X204163072Y-103256250D01*
X204163072Y-102743750D01*
X204146608Y-102576592D01*
X204097850Y-102415858D01*
X204018671Y-102267725D01*
X203912115Y-102137885D01*
X203782275Y-102031329D01*
X203634142Y-101952150D01*
X203473408Y-101903392D01*
X203325813Y-101888855D01*
X201940447Y-100503490D01*
X201915864Y-100473536D01*
X201796333Y-100375438D01*
X201659960Y-100302546D01*
X201511987Y-100257659D01*
X201396661Y-100246300D01*
X201396653Y-100246300D01*
X201358100Y-100242503D01*
X201319547Y-100246300D01*
X187464552Y-100246300D01*
X187425999Y-100242503D01*
X187387446Y-100246300D01*
X187387439Y-100246300D01*
X187286490Y-100256243D01*
X187272112Y-100257659D01*
X187222150Y-100272815D01*
X187124140Y-100302546D01*
X186987767Y-100375438D01*
X186958922Y-100399111D01*
X186921888Y-100429504D01*
X186876185Y-100373815D01*
X186779494Y-100294463D01*
X186669180Y-100235498D01*
X186549482Y-100199188D01*
X186425000Y-100186928D01*
X186273250Y-100190000D01*
X186114500Y-100348750D01*
X186114500Y-101173000D01*
X186134500Y-101173000D01*
X186134500Y-101268626D01*
X186107446Y-101319241D01*
X186068691Y-101447000D01*
X185860500Y-101447000D01*
X185860500Y-101427000D01*
X185840500Y-101427000D01*
X185840500Y-101173000D01*
X185860500Y-101173000D01*
X185860500Y-100348750D01*
X185701750Y-100190000D01*
X185550000Y-100186928D01*
X185425518Y-100199188D01*
X185305820Y-100235498D01*
X185195506Y-100294463D01*
X185128930Y-100349100D01*
X185107275Y-100331329D01*
X184959142Y-100252150D01*
X184798408Y-100203392D01*
X184631250Y-100186928D01*
X184193750Y-100186928D01*
X184026592Y-100203392D01*
X183865858Y-100252150D01*
X183717725Y-100331329D01*
X183587885Y-100437885D01*
X183481329Y-100567725D01*
X183402150Y-100715858D01*
X183353392Y-100876592D01*
X183336928Y-101043750D01*
X183336928Y-101556250D01*
X183353392Y-101723408D01*
X183402150Y-101884142D01*
X183481329Y-102032275D01*
X183587885Y-102162115D01*
X183627501Y-102194626D01*
X183627500Y-102405374D01*
X183587885Y-102437885D01*
X183481329Y-102567725D01*
X183402150Y-102715858D01*
X183353392Y-102876592D01*
X183336928Y-103043750D01*
X183336928Y-103556250D01*
X183352544Y-103714799D01*
X183035985Y-104031358D01*
X183006037Y-104055936D01*
X182981459Y-104085884D01*
X182981455Y-104085888D01*
X182948490Y-104126056D01*
X182907939Y-104175467D01*
X182878081Y-104231329D01*
X182835046Y-104311841D01*
X182790159Y-104459814D01*
X182775003Y-104613700D01*
X182778801Y-104652262D01*
X182778800Y-105677447D01*
X182775003Y-105716000D01*
X182778800Y-105754553D01*
X182778800Y-105754560D01*
X182790159Y-105869886D01*
X182835046Y-106017859D01*
X182907938Y-106154232D01*
X183006036Y-106273764D01*
X183035990Y-106298347D01*
X183926447Y-107188804D01*
X183797476Y-107404932D01*
X183707780Y-107656930D01*
X183830280Y-107873000D01*
X185073000Y-107873000D01*
X185073000Y-107853000D01*
X185327000Y-107853000D01*
X185327000Y-107873000D01*
X186569720Y-107873000D01*
X186692220Y-107656930D01*
X186673380Y-107604000D01*
X187856343Y-107604000D01*
X188761928Y-108509585D01*
X188761928Y-108981250D01*
X188778872Y-109153285D01*
X188829053Y-109318709D01*
X188910542Y-109471164D01*
X189020208Y-109604792D01*
X189153836Y-109714458D01*
X189269423Y-109776241D01*
X189264059Y-109830703D01*
X189194463Y-109915506D01*
X189135498Y-110025820D01*
X189099188Y-110145518D01*
X189086928Y-110270000D01*
X189086928Y-110984291D01*
X188920102Y-111017474D01*
X188731744Y-111095495D01*
X188562226Y-111208763D01*
X188418063Y-111352926D01*
X188304795Y-111522444D01*
X188226774Y-111710802D01*
X188192627Y-111882470D01*
X186684350Y-110374193D01*
X186714786Y-110273860D01*
X186741759Y-110000000D01*
X186714786Y-109726140D01*
X186634904Y-109462805D01*
X186505183Y-109220113D01*
X186330608Y-109007392D01*
X186314337Y-108994039D01*
X186462135Y-108830330D01*
X186602524Y-108595068D01*
X186692220Y-108343070D01*
X186569720Y-108127000D01*
X185327000Y-108127000D01*
X185327000Y-108147000D01*
X185073000Y-108147000D01*
X185073000Y-108127000D01*
X183830280Y-108127000D01*
X183707780Y-108343070D01*
X183797476Y-108595068D01*
X183937865Y-108830330D01*
X184085663Y-108994039D01*
X184069392Y-109007392D01*
X183894817Y-109220113D01*
X183765096Y-109462805D01*
X183685214Y-109726140D01*
X183658241Y-110000000D01*
X183685214Y-110273860D01*
X183765096Y-110537195D01*
X183894817Y-110779887D01*
X184069392Y-110992608D01*
X184078399Y-111000000D01*
X184069392Y-111007392D01*
X183894817Y-111220113D01*
X183765096Y-111462805D01*
X183685214Y-111726140D01*
X183658241Y-112000000D01*
X183682647Y-112247796D01*
X182436385Y-113494058D01*
X182406437Y-113518636D01*
X182381859Y-113548584D01*
X182381855Y-113548588D01*
X182352119Y-113584822D01*
X182308339Y-113638167D01*
X182295639Y-113661928D01*
X182235446Y-113774541D01*
X182190559Y-113922514D01*
X182175403Y-114076400D01*
X182179201Y-114114963D01*
X182179200Y-119499348D01*
X182149110Y-119348075D01*
X181980631Y-118941331D01*
X181736038Y-118575271D01*
X181424729Y-118263962D01*
X181058669Y-118019369D01*
X180651925Y-117850890D01*
X180220128Y-117765000D01*
X179779872Y-117765000D01*
X179348075Y-117850890D01*
X178941331Y-118019369D01*
X178575271Y-118263962D01*
X178263962Y-118575271D01*
X178019369Y-118941331D01*
X177850890Y-119348075D01*
X177765000Y-119779872D01*
X177765000Y-120220128D01*
X177850890Y-120651925D01*
X178019369Y-121058669D01*
X178263962Y-121424729D01*
X178575271Y-121736038D01*
X178941331Y-121980631D01*
X179348075Y-122149110D01*
X179779872Y-122235000D01*
X180220128Y-122235000D01*
X180651925Y-122149110D01*
X181058669Y-121980631D01*
X181424729Y-121736038D01*
X181736038Y-121424729D01*
X181980631Y-121058669D01*
X182149110Y-120651925D01*
X182232338Y-120233512D01*
X182235446Y-120243759D01*
X182308338Y-120380132D01*
X182406436Y-120499664D01*
X182436390Y-120524247D01*
X184202143Y-122290000D01*
X178034721Y-122290000D01*
X177944336Y-122281138D01*
X177890786Y-122264970D01*
X177841403Y-122238712D01*
X177798053Y-122203357D01*
X177762401Y-122160261D01*
X177735799Y-122111063D01*
X177719258Y-122057625D01*
X177710000Y-121969545D01*
X177710000Y-101779872D01*
X177765000Y-101779872D01*
X177765000Y-102220128D01*
X177850890Y-102651925D01*
X178019369Y-103058669D01*
X178263962Y-103424729D01*
X178575271Y-103736038D01*
X178941331Y-103980631D01*
X179348075Y-104149110D01*
X179779872Y-104235000D01*
X180220128Y-104235000D01*
X180651925Y-104149110D01*
X181058669Y-103980631D01*
X181424729Y-103736038D01*
X181736038Y-103424729D01*
X181980631Y-103058669D01*
X182149110Y-102651925D01*
X182235000Y-102220128D01*
X182235000Y-101779872D01*
X182149110Y-101348075D01*
X181980631Y-100941331D01*
X181736038Y-100575271D01*
X181424729Y-100263962D01*
X181058669Y-100019369D01*
X180651925Y-99850890D01*
X180220128Y-99765000D01*
X179779872Y-99765000D01*
X179348075Y-99850890D01*
X178941331Y-100019369D01*
X178575271Y-100263962D01*
X178263962Y-100575271D01*
X178019369Y-100941331D01*
X177850890Y-101348075D01*
X177765000Y-101779872D01*
X177710000Y-101779872D01*
X177710000Y-100034722D01*
X177718863Y-99944335D01*
X177735030Y-99890786D01*
X177761288Y-99841403D01*
X177796641Y-99798055D01*
X177839740Y-99762400D01*
X177888937Y-99735799D01*
X177942375Y-99719258D01*
X178030455Y-99710000D01*
X208965278Y-99710000D01*
X209055665Y-99718863D01*
X209055665Y-99718863D01*
G37*
X209055665Y-99718863D02*
X209109214Y-99735030D01*
X209158597Y-99761288D01*
X209201945Y-99796641D01*
X209237600Y-99839740D01*
X209264201Y-99888937D01*
X209280742Y-99942375D01*
X209290000Y-100030455D01*
X209290000Y-101065594D01*
X209205824Y-100862376D01*
X209081612Y-100676480D01*
X208923520Y-100518388D01*
X208737624Y-100394176D01*
X208531067Y-100308617D01*
X208311788Y-100265000D01*
X208088212Y-100265000D01*
X207868933Y-100308617D01*
X207662376Y-100394176D01*
X207476480Y-100518388D01*
X207318388Y-100676480D01*
X207194176Y-100862376D01*
X207168444Y-100924498D01*
X204113673Y-103979269D01*
X204055537Y-103870506D01*
X203980383Y-103778930D01*
X204018671Y-103732275D01*
X204097850Y-103584142D01*
X204146608Y-103423408D01*
X204163072Y-103256250D01*
X204163072Y-102743750D01*
X204146608Y-102576592D01*
X204097850Y-102415858D01*
X204018671Y-102267725D01*
X203912115Y-102137885D01*
X203782275Y-102031329D01*
X203634142Y-101952150D01*
X203473408Y-101903392D01*
X203325813Y-101888855D01*
X201940447Y-100503490D01*
X201915864Y-100473536D01*
X201796333Y-100375438D01*
X201659960Y-100302546D01*
X201511987Y-100257659D01*
X201396661Y-100246300D01*
X201396653Y-100246300D01*
X201358100Y-100242503D01*
X201319547Y-100246300D01*
X187464552Y-100246300D01*
X187425999Y-100242503D01*
X187387446Y-100246300D01*
X187387439Y-100246300D01*
X187286490Y-100256243D01*
X187272112Y-100257659D01*
X187222150Y-100272815D01*
X187124140Y-100302546D01*
X186987767Y-100375438D01*
X186958922Y-100399111D01*
X186921888Y-100429504D01*
X186876185Y-100373815D01*
X186779494Y-100294463D01*
X186669180Y-100235498D01*
X186549482Y-100199188D01*
X186425000Y-100186928D01*
X186273250Y-100190000D01*
X186114500Y-100348750D01*
X186114500Y-101173000D01*
X186134500Y-101173000D01*
X186134500Y-101268626D01*
X186107446Y-101319241D01*
X186068691Y-101447000D01*
X185860500Y-101447000D01*
X185860500Y-101427000D01*
X185840500Y-101427000D01*
X185840500Y-101173000D01*
X185860500Y-101173000D01*
X185860500Y-100348750D01*
X185701750Y-100190000D01*
X185550000Y-100186928D01*
X185425518Y-100199188D01*
X185305820Y-100235498D01*
X185195506Y-100294463D01*
X185128930Y-100349100D01*
X185107275Y-100331329D01*
X184959142Y-100252150D01*
X184798408Y-100203392D01*
X184631250Y-100186928D01*
X184193750Y-100186928D01*
X184026592Y-100203392D01*
X183865858Y-100252150D01*
X183717725Y-100331329D01*
X183587885Y-100437885D01*
X183481329Y-100567725D01*
X183402150Y-100715858D01*
X183353392Y-100876592D01*
X183336928Y-101043750D01*
X183336928Y-101556250D01*
X183353392Y-101723408D01*
X183402150Y-101884142D01*
X183481329Y-102032275D01*
X183587885Y-102162115D01*
X183627501Y-102194626D01*
X183627500Y-102405374D01*
X183587885Y-102437885D01*
X183481329Y-102567725D01*
X183402150Y-102715858D01*
X183353392Y-102876592D01*
X183336928Y-103043750D01*
X183336928Y-103556250D01*
X183352544Y-103714799D01*
X183035985Y-104031358D01*
X183006037Y-104055936D01*
X182981459Y-104085884D01*
X182981455Y-104085888D01*
X182948490Y-104126056D01*
X182907939Y-104175467D01*
X182878081Y-104231329D01*
X182835046Y-104311841D01*
X182790159Y-104459814D01*
X182775003Y-104613700D01*
X182778801Y-104652262D01*
X182778800Y-105677447D01*
X182775003Y-105716000D01*
X182778800Y-105754553D01*
X182778800Y-105754560D01*
X182790159Y-105869886D01*
X182835046Y-106017859D01*
X182907938Y-106154232D01*
X183006036Y-106273764D01*
X183035990Y-106298347D01*
X183926447Y-107188804D01*
X183797476Y-107404932D01*
X183707780Y-107656930D01*
X183830280Y-107873000D01*
X185073000Y-107873000D01*
X185073000Y-107853000D01*
X185327000Y-107853000D01*
X185327000Y-107873000D01*
X186569720Y-107873000D01*
X186692220Y-107656930D01*
X186673380Y-107604000D01*
X187856343Y-107604000D01*
X188761928Y-108509585D01*
X188761928Y-108981250D01*
X188778872Y-109153285D01*
X188829053Y-109318709D01*
X188910542Y-109471164D01*
X189020208Y-109604792D01*
X189153836Y-109714458D01*
X189269423Y-109776241D01*
X189264059Y-109830703D01*
X189194463Y-109915506D01*
X189135498Y-110025820D01*
X189099188Y-110145518D01*
X189086928Y-110270000D01*
X189086928Y-110984291D01*
X188920102Y-111017474D01*
X188731744Y-111095495D01*
X188562226Y-111208763D01*
X188418063Y-111352926D01*
X188304795Y-111522444D01*
X188226774Y-111710802D01*
X188192627Y-111882470D01*
X186684350Y-110374193D01*
X186714786Y-110273860D01*
X186741759Y-110000000D01*
X186714786Y-109726140D01*
X186634904Y-109462805D01*
X186505183Y-109220113D01*
X186330608Y-109007392D01*
X186314337Y-108994039D01*
X186462135Y-108830330D01*
X186602524Y-108595068D01*
X186692220Y-108343070D01*
X186569720Y-108127000D01*
X185327000Y-108127000D01*
X185327000Y-108147000D01*
X185073000Y-108147000D01*
X185073000Y-108127000D01*
X183830280Y-108127000D01*
X183707780Y-108343070D01*
X183797476Y-108595068D01*
X183937865Y-108830330D01*
X184085663Y-108994039D01*
X184069392Y-109007392D01*
X183894817Y-109220113D01*
X183765096Y-109462805D01*
X183685214Y-109726140D01*
X183658241Y-110000000D01*
X183685214Y-110273860D01*
X183765096Y-110537195D01*
X183894817Y-110779887D01*
X184069392Y-110992608D01*
X184078399Y-111000000D01*
X184069392Y-111007392D01*
X183894817Y-111220113D01*
X183765096Y-111462805D01*
X183685214Y-111726140D01*
X183658241Y-112000000D01*
X183682647Y-112247796D01*
X182436385Y-113494058D01*
X182406437Y-113518636D01*
X182381859Y-113548584D01*
X182381855Y-113548588D01*
X182352119Y-113584822D01*
X182308339Y-113638167D01*
X182295639Y-113661928D01*
X182235446Y-113774541D01*
X182190559Y-113922514D01*
X182175403Y-114076400D01*
X182179201Y-114114963D01*
X182179200Y-119499348D01*
X182149110Y-119348075D01*
X181980631Y-118941331D01*
X181736038Y-118575271D01*
X181424729Y-118263962D01*
X181058669Y-118019369D01*
X180651925Y-117850890D01*
X180220128Y-117765000D01*
X179779872Y-117765000D01*
X179348075Y-117850890D01*
X178941331Y-118019369D01*
X178575271Y-118263962D01*
X178263962Y-118575271D01*
X178019369Y-118941331D01*
X177850890Y-119348075D01*
X177765000Y-119779872D01*
X177765000Y-120220128D01*
X177850890Y-120651925D01*
X178019369Y-121058669D01*
X178263962Y-121424729D01*
X178575271Y-121736038D01*
X178941331Y-121980631D01*
X179348075Y-122149110D01*
X179779872Y-122235000D01*
X180220128Y-122235000D01*
X180651925Y-122149110D01*
X181058669Y-121980631D01*
X181424729Y-121736038D01*
X181736038Y-121424729D01*
X181980631Y-121058669D01*
X182149110Y-120651925D01*
X182232338Y-120233512D01*
X182235446Y-120243759D01*
X182308338Y-120380132D01*
X182406436Y-120499664D01*
X182436390Y-120524247D01*
X184202143Y-122290000D01*
X178034721Y-122290000D01*
X177944336Y-122281138D01*
X177890786Y-122264970D01*
X177841403Y-122238712D01*
X177798053Y-122203357D01*
X177762401Y-122160261D01*
X177735799Y-122111063D01*
X177719258Y-122057625D01*
X177710000Y-121969545D01*
X177710000Y-101779872D01*
X177765000Y-101779872D01*
X177765000Y-102220128D01*
X177850890Y-102651925D01*
X178019369Y-103058669D01*
X178263962Y-103424729D01*
X178575271Y-103736038D01*
X178941331Y-103980631D01*
X179348075Y-104149110D01*
X179779872Y-104235000D01*
X180220128Y-104235000D01*
X180651925Y-104149110D01*
X181058669Y-103980631D01*
X181424729Y-103736038D01*
X181736038Y-103424729D01*
X181980631Y-103058669D01*
X182149110Y-102651925D01*
X182235000Y-102220128D01*
X182235000Y-101779872D01*
X182149110Y-101348075D01*
X181980631Y-100941331D01*
X181736038Y-100575271D01*
X181424729Y-100263962D01*
X181058669Y-100019369D01*
X180651925Y-99850890D01*
X180220128Y-99765000D01*
X179779872Y-99765000D01*
X179348075Y-99850890D01*
X178941331Y-100019369D01*
X178575271Y-100263962D01*
X178263962Y-100575271D01*
X178019369Y-100941331D01*
X177850890Y-101348075D01*
X177765000Y-101779872D01*
X177710000Y-101779872D01*
X177710000Y-100034722D01*
X177718863Y-99944335D01*
X177735030Y-99890786D01*
X177761288Y-99841403D01*
X177796641Y-99798055D01*
X177839740Y-99762400D01*
X177888937Y-99735799D01*
X177942375Y-99719258D01*
X178030455Y-99710000D01*
X208965278Y-99710000D01*
X209055665Y-99718863D01*
G36*
X209290001Y-121965269D02*
G01*
X209281138Y-122055664D01*
X209264970Y-122109214D01*
X209238712Y-122158597D01*
X209203357Y-122201947D01*
X209160261Y-122237599D01*
X209111063Y-122264201D01*
X209057625Y-122280742D01*
X208969545Y-122290000D01*
X205907658Y-122290000D01*
X205984586Y-122213072D01*
X206206250Y-122213072D01*
X206373408Y-122196608D01*
X206534142Y-122147850D01*
X206682275Y-122068671D01*
X206812115Y-121962115D01*
X206918671Y-121832275D01*
X206997850Y-121684142D01*
X207046608Y-121523408D01*
X207063072Y-121356250D01*
X207063072Y-120843750D01*
X207046608Y-120676592D01*
X206997850Y-120515858D01*
X206918671Y-120367725D01*
X206822057Y-120250000D01*
X206918671Y-120132275D01*
X206997850Y-119984142D01*
X207046608Y-119823408D01*
X207063072Y-119656250D01*
X207063072Y-119143750D01*
X207046608Y-118976592D01*
X206997850Y-118815858D01*
X206918671Y-118667725D01*
X206812115Y-118537885D01*
X206682275Y-118431329D01*
X206534142Y-118352150D01*
X206373408Y-118303392D01*
X206206250Y-118286928D01*
X205984586Y-118286928D01*
X204837336Y-117139679D01*
X204836326Y-117134602D01*
X204758305Y-116946244D01*
X204645037Y-116776726D01*
X204500874Y-116632563D01*
X204331356Y-116519295D01*
X204142998Y-116441274D01*
X203943039Y-116401500D01*
X203739161Y-116401500D01*
X203539202Y-116441274D01*
X203350844Y-116519295D01*
X203281886Y-116565371D01*
X203395710Y-116451547D01*
X203425664Y-116426964D01*
X203523762Y-116307433D01*
X203596654Y-116171060D01*
X203641541Y-116023087D01*
X203652900Y-115907761D01*
X203652900Y-115907754D01*
X203656697Y-115869201D01*
X203652900Y-115830648D01*
X203652900Y-115136890D01*
X205258524Y-115136890D01*
X205303175Y-115284099D01*
X205428359Y-115546920D01*
X205602412Y-115780269D01*
X205818645Y-115975178D01*
X206068748Y-116124157D01*
X206343109Y-116221481D01*
X206573000Y-116100814D01*
X206573000Y-114907000D01*
X206827000Y-114907000D01*
X206827000Y-116100814D01*
X207056891Y-116221481D01*
X207331252Y-116124157D01*
X207581355Y-115975178D01*
X207797588Y-115780269D01*
X207971641Y-115546920D01*
X208096825Y-115284099D01*
X208141476Y-115136890D01*
X208020155Y-114907000D01*
X206827000Y-114907000D01*
X206573000Y-114907000D01*
X205379845Y-114907000D01*
X205258524Y-115136890D01*
X203652900Y-115136890D01*
X203652900Y-114532457D01*
X205339835Y-112845522D01*
X205459294Y-113069014D01*
X205644866Y-113295134D01*
X205870986Y-113480706D01*
X205935523Y-113515201D01*
X205818645Y-113584822D01*
X205602412Y-113779731D01*
X205428359Y-114013080D01*
X205303175Y-114275901D01*
X205258524Y-114423110D01*
X205379845Y-114653000D01*
X206573000Y-114653000D01*
X206573000Y-114633000D01*
X206827000Y-114633000D01*
X206827000Y-114653000D01*
X208020155Y-114653000D01*
X208141476Y-114423110D01*
X208096825Y-114275901D01*
X207971641Y-114013080D01*
X207797588Y-113779731D01*
X207581355Y-113584822D01*
X207464477Y-113515201D01*
X207529014Y-113480706D01*
X207755134Y-113295134D01*
X207940706Y-113069014D01*
X208078599Y-112811034D01*
X208163513Y-112531111D01*
X208192185Y-112240000D01*
X208163513Y-111948889D01*
X208078599Y-111668966D01*
X207940706Y-111410986D01*
X207915087Y-111379770D01*
X208525315Y-110769543D01*
X208555264Y-110744964D01*
X208579856Y-110715000D01*
X208618312Y-110668141D01*
X208653362Y-110625433D01*
X208726254Y-110489060D01*
X208771141Y-110341087D01*
X208782500Y-110225761D01*
X208782500Y-110225754D01*
X208786297Y-110187201D01*
X208782500Y-110148648D01*
X208782500Y-106211652D01*
X208786297Y-106173099D01*
X208782500Y-106134546D01*
X208782500Y-106134539D01*
X208771141Y-106019213D01*
X208726254Y-105871240D01*
X208653362Y-105734867D01*
X208555264Y-105615336D01*
X208525311Y-105590754D01*
X208293147Y-105358590D01*
X208268564Y-105328636D01*
X208149033Y-105230538D01*
X208012660Y-105157646D01*
X207864687Y-105112759D01*
X207749361Y-105101400D01*
X207749353Y-105101400D01*
X207710800Y-105097603D01*
X207672247Y-105101400D01*
X206004158Y-105101400D01*
X206320558Y-104785000D01*
X207379868Y-104785000D01*
X207476480Y-104881612D01*
X207662376Y-105005824D01*
X207868933Y-105091383D01*
X208088212Y-105135000D01*
X208311788Y-105135000D01*
X208531067Y-105091383D01*
X208737624Y-105005824D01*
X208923520Y-104881612D01*
X209081612Y-104723520D01*
X209205824Y-104537624D01*
X209290000Y-104334405D01*
X209290001Y-121965269D01*
X209290001Y-121965269D01*
G37*
X209290001Y-121965269D02*
X209281138Y-122055664D01*
X209264970Y-122109214D01*
X209238712Y-122158597D01*
X209203357Y-122201947D01*
X209160261Y-122237599D01*
X209111063Y-122264201D01*
X209057625Y-122280742D01*
X208969545Y-122290000D01*
X205907658Y-122290000D01*
X205984586Y-122213072D01*
X206206250Y-122213072D01*
X206373408Y-122196608D01*
X206534142Y-122147850D01*
X206682275Y-122068671D01*
X206812115Y-121962115D01*
X206918671Y-121832275D01*
X206997850Y-121684142D01*
X207046608Y-121523408D01*
X207063072Y-121356250D01*
X207063072Y-120843750D01*
X207046608Y-120676592D01*
X206997850Y-120515858D01*
X206918671Y-120367725D01*
X206822057Y-120250000D01*
X206918671Y-120132275D01*
X206997850Y-119984142D01*
X207046608Y-119823408D01*
X207063072Y-119656250D01*
X207063072Y-119143750D01*
X207046608Y-118976592D01*
X206997850Y-118815858D01*
X206918671Y-118667725D01*
X206812115Y-118537885D01*
X206682275Y-118431329D01*
X206534142Y-118352150D01*
X206373408Y-118303392D01*
X206206250Y-118286928D01*
X205984586Y-118286928D01*
X204837336Y-117139679D01*
X204836326Y-117134602D01*
X204758305Y-116946244D01*
X204645037Y-116776726D01*
X204500874Y-116632563D01*
X204331356Y-116519295D01*
X204142998Y-116441274D01*
X203943039Y-116401500D01*
X203739161Y-116401500D01*
X203539202Y-116441274D01*
X203350844Y-116519295D01*
X203281886Y-116565371D01*
X203395710Y-116451547D01*
X203425664Y-116426964D01*
X203523762Y-116307433D01*
X203596654Y-116171060D01*
X203641541Y-116023087D01*
X203652900Y-115907761D01*
X203652900Y-115907754D01*
X203656697Y-115869201D01*
X203652900Y-115830648D01*
X203652900Y-115136890D01*
X205258524Y-115136890D01*
X205303175Y-115284099D01*
X205428359Y-115546920D01*
X205602412Y-115780269D01*
X205818645Y-115975178D01*
X206068748Y-116124157D01*
X206343109Y-116221481D01*
X206573000Y-116100814D01*
X206573000Y-114907000D01*
X206827000Y-114907000D01*
X206827000Y-116100814D01*
X207056891Y-116221481D01*
X207331252Y-116124157D01*
X207581355Y-115975178D01*
X207797588Y-115780269D01*
X207971641Y-115546920D01*
X208096825Y-115284099D01*
X208141476Y-115136890D01*
X208020155Y-114907000D01*
X206827000Y-114907000D01*
X206573000Y-114907000D01*
X205379845Y-114907000D01*
X205258524Y-115136890D01*
X203652900Y-115136890D01*
X203652900Y-114532457D01*
X205339835Y-112845522D01*
X205459294Y-113069014D01*
X205644866Y-113295134D01*
X205870986Y-113480706D01*
X205935523Y-113515201D01*
X205818645Y-113584822D01*
X205602412Y-113779731D01*
X205428359Y-114013080D01*
X205303175Y-114275901D01*
X205258524Y-114423110D01*
X205379845Y-114653000D01*
X206573000Y-114653000D01*
X206573000Y-114633000D01*
X206827000Y-114633000D01*
X206827000Y-114653000D01*
X208020155Y-114653000D01*
X208141476Y-114423110D01*
X208096825Y-114275901D01*
X207971641Y-114013080D01*
X207797588Y-113779731D01*
X207581355Y-113584822D01*
X207464477Y-113515201D01*
X207529014Y-113480706D01*
X207755134Y-113295134D01*
X207940706Y-113069014D01*
X208078599Y-112811034D01*
X208163513Y-112531111D01*
X208192185Y-112240000D01*
X208163513Y-111948889D01*
X208078599Y-111668966D01*
X207940706Y-111410986D01*
X207915087Y-111379770D01*
X208525315Y-110769543D01*
X208555264Y-110744964D01*
X208579856Y-110715000D01*
X208618312Y-110668141D01*
X208653362Y-110625433D01*
X208726254Y-110489060D01*
X208771141Y-110341087D01*
X208782500Y-110225761D01*
X208782500Y-110225754D01*
X208786297Y-110187201D01*
X208782500Y-110148648D01*
X208782500Y-106211652D01*
X208786297Y-106173099D01*
X208782500Y-106134546D01*
X208782500Y-106134539D01*
X208771141Y-106019213D01*
X208726254Y-105871240D01*
X208653362Y-105734867D01*
X208555264Y-105615336D01*
X208525311Y-105590754D01*
X208293147Y-105358590D01*
X208268564Y-105328636D01*
X208149033Y-105230538D01*
X208012660Y-105157646D01*
X207864687Y-105112759D01*
X207749361Y-105101400D01*
X207749353Y-105101400D01*
X207710800Y-105097603D01*
X207672247Y-105101400D01*
X206004158Y-105101400D01*
X206320558Y-104785000D01*
X207379868Y-104785000D01*
X207476480Y-104881612D01*
X207662376Y-105005824D01*
X207868933Y-105091383D01*
X208088212Y-105135000D01*
X208311788Y-105135000D01*
X208531067Y-105091383D01*
X208737624Y-105005824D01*
X208923520Y-104881612D01*
X209081612Y-104723520D01*
X209205824Y-104537624D01*
X209290000Y-104334405D01*
X209290001Y-121965269D01*
G36*
X200053392Y-119823408D02*
G01*
X200102150Y-119984142D01*
X200181329Y-120132275D01*
X200219617Y-120178930D01*
X200144463Y-120270506D01*
X200085498Y-120380820D01*
X200049188Y-120500518D01*
X200036928Y-120625000D01*
X200040000Y-120814250D01*
X200198750Y-120973000D01*
X200985500Y-120973000D01*
X200985500Y-120953000D01*
X201239500Y-120953000D01*
X201239500Y-120973000D01*
X201259500Y-120973000D01*
X201259500Y-121217700D01*
X200155057Y-121217700D01*
X198691857Y-119754500D01*
X200046605Y-119754500D01*
X200053392Y-119823408D01*
X200053392Y-119823408D01*
G37*
X200053392Y-119823408D02*
X200102150Y-119984142D01*
X200181329Y-120132275D01*
X200219617Y-120178930D01*
X200144463Y-120270506D01*
X200085498Y-120380820D01*
X200049188Y-120500518D01*
X200036928Y-120625000D01*
X200040000Y-120814250D01*
X200198750Y-120973000D01*
X200985500Y-120973000D01*
X200985500Y-120953000D01*
X201239500Y-120953000D01*
X201239500Y-120973000D01*
X201259500Y-120973000D01*
X201259500Y-121217700D01*
X200155057Y-121217700D01*
X198691857Y-119754500D01*
X200046605Y-119754500D01*
X200053392Y-119823408D01*
G36*
X189486750Y-116873000D02*
G01*
X190273500Y-116873000D01*
X190273500Y-116853000D01*
X190527500Y-116853000D01*
X190527500Y-116873000D01*
X190547500Y-116873000D01*
X190547500Y-117127000D01*
X190527500Y-117127000D01*
X190527500Y-117951250D01*
X190686250Y-118110000D01*
X190838000Y-118113072D01*
X190962482Y-118100812D01*
X191082180Y-118064502D01*
X191192494Y-118005537D01*
X191201655Y-117998018D01*
X191201859Y-118000086D01*
X191246746Y-118148059D01*
X191250100Y-118154334D01*
X191250100Y-118257739D01*
X191255906Y-118286928D01*
X191168750Y-118286928D01*
X191001592Y-118303392D01*
X190840858Y-118352150D01*
X190692725Y-118431329D01*
X190671070Y-118449100D01*
X190604494Y-118394463D01*
X190494180Y-118335498D01*
X190374482Y-118299188D01*
X190250000Y-118286928D01*
X190098250Y-118290000D01*
X189939500Y-118448750D01*
X189939500Y-119273000D01*
X189959500Y-119273000D01*
X189959500Y-119527000D01*
X189939500Y-119527000D01*
X189939500Y-119547000D01*
X189685500Y-119547000D01*
X189685500Y-119527000D01*
X188898750Y-119527000D01*
X188740000Y-119685750D01*
X188736928Y-119875000D01*
X188749188Y-119999482D01*
X188785498Y-120119180D01*
X188844463Y-120229494D01*
X188914636Y-120315000D01*
X187057285Y-120315000D01*
X187063072Y-120256250D01*
X187063072Y-119743750D01*
X187046608Y-119576592D01*
X186997850Y-119415858D01*
X186918671Y-119267725D01*
X186812115Y-119137885D01*
X186772500Y-119105374D01*
X186772500Y-118925000D01*
X188736928Y-118925000D01*
X188740000Y-119114250D01*
X188898750Y-119273000D01*
X189685500Y-119273000D01*
X189685500Y-118448750D01*
X189526750Y-118290000D01*
X189375000Y-118286928D01*
X189250518Y-118299188D01*
X189130820Y-118335498D01*
X189020506Y-118394463D01*
X188923815Y-118473815D01*
X188844463Y-118570506D01*
X188785498Y-118680820D01*
X188749188Y-118800518D01*
X188736928Y-118925000D01*
X186772500Y-118925000D01*
X186772500Y-118094626D01*
X186812115Y-118062115D01*
X186875401Y-117985000D01*
X187823947Y-117985000D01*
X187862500Y-117988797D01*
X187901053Y-117985000D01*
X187901061Y-117985000D01*
X188016387Y-117973641D01*
X188164360Y-117928754D01*
X188300733Y-117855862D01*
X188420264Y-117757764D01*
X188444847Y-117727810D01*
X188697657Y-117475000D01*
X189324928Y-117475000D01*
X189337188Y-117599482D01*
X189373498Y-117719180D01*
X189432463Y-117829494D01*
X189511815Y-117926185D01*
X189608506Y-118005537D01*
X189718820Y-118064502D01*
X189838518Y-118100812D01*
X189963000Y-118113072D01*
X190114750Y-118110000D01*
X190273500Y-117951250D01*
X190273500Y-117127000D01*
X189486750Y-117127000D01*
X189328000Y-117285750D01*
X189324928Y-117475000D01*
X188697657Y-117475000D01*
X189393204Y-116779454D01*
X189486750Y-116873000D01*
X189486750Y-116873000D01*
G37*
X189486750Y-116873000D02*
X190273500Y-116873000D01*
X190273500Y-116853000D01*
X190527500Y-116853000D01*
X190527500Y-116873000D01*
X190547500Y-116873000D01*
X190547500Y-117127000D01*
X190527500Y-117127000D01*
X190527500Y-117951250D01*
X190686250Y-118110000D01*
X190838000Y-118113072D01*
X190962482Y-118100812D01*
X191082180Y-118064502D01*
X191192494Y-118005537D01*
X191201655Y-117998018D01*
X191201859Y-118000086D01*
X191246746Y-118148059D01*
X191250100Y-118154334D01*
X191250100Y-118257739D01*
X191255906Y-118286928D01*
X191168750Y-118286928D01*
X191001592Y-118303392D01*
X190840858Y-118352150D01*
X190692725Y-118431329D01*
X190671070Y-118449100D01*
X190604494Y-118394463D01*
X190494180Y-118335498D01*
X190374482Y-118299188D01*
X190250000Y-118286928D01*
X190098250Y-118290000D01*
X189939500Y-118448750D01*
X189939500Y-119273000D01*
X189959500Y-119273000D01*
X189959500Y-119527000D01*
X189939500Y-119527000D01*
X189939500Y-119547000D01*
X189685500Y-119547000D01*
X189685500Y-119527000D01*
X188898750Y-119527000D01*
X188740000Y-119685750D01*
X188736928Y-119875000D01*
X188749188Y-119999482D01*
X188785498Y-120119180D01*
X188844463Y-120229494D01*
X188914636Y-120315000D01*
X187057285Y-120315000D01*
X187063072Y-120256250D01*
X187063072Y-119743750D01*
X187046608Y-119576592D01*
X186997850Y-119415858D01*
X186918671Y-119267725D01*
X186812115Y-119137885D01*
X186772500Y-119105374D01*
X186772500Y-118925000D01*
X188736928Y-118925000D01*
X188740000Y-119114250D01*
X188898750Y-119273000D01*
X189685500Y-119273000D01*
X189685500Y-118448750D01*
X189526750Y-118290000D01*
X189375000Y-118286928D01*
X189250518Y-118299188D01*
X189130820Y-118335498D01*
X189020506Y-118394463D01*
X188923815Y-118473815D01*
X188844463Y-118570506D01*
X188785498Y-118680820D01*
X188749188Y-118800518D01*
X188736928Y-118925000D01*
X186772500Y-118925000D01*
X186772500Y-118094626D01*
X186812115Y-118062115D01*
X186875401Y-117985000D01*
X187823947Y-117985000D01*
X187862500Y-117988797D01*
X187901053Y-117985000D01*
X187901061Y-117985000D01*
X188016387Y-117973641D01*
X188164360Y-117928754D01*
X188300733Y-117855862D01*
X188420264Y-117757764D01*
X188444847Y-117727810D01*
X188697657Y-117475000D01*
X189324928Y-117475000D01*
X189337188Y-117599482D01*
X189373498Y-117719180D01*
X189432463Y-117829494D01*
X189511815Y-117926185D01*
X189608506Y-118005537D01*
X189718820Y-118064502D01*
X189838518Y-118100812D01*
X189963000Y-118113072D01*
X190114750Y-118110000D01*
X190273500Y-117951250D01*
X190273500Y-117127000D01*
X189486750Y-117127000D01*
X189328000Y-117285750D01*
X189324928Y-117475000D01*
X188697657Y-117475000D01*
X189393204Y-116779454D01*
X189486750Y-116873000D01*
G36*
X192064500Y-114873000D02*
G01*
X192084500Y-114873000D01*
X192084500Y-115127000D01*
X192064500Y-115127000D01*
X192064500Y-115147000D01*
X191810500Y-115147000D01*
X191810500Y-115127000D01*
X191790500Y-115127000D01*
X191790500Y-114873000D01*
X191810500Y-114873000D01*
X191810500Y-114853000D01*
X192064500Y-114853000D01*
X192064500Y-114873000D01*
X192064500Y-114873000D01*
G37*
X192064500Y-114873000D02*
X192084500Y-114873000D01*
X192084500Y-115127000D01*
X192064500Y-115127000D01*
X192064500Y-115147000D01*
X191810500Y-115147000D01*
X191810500Y-115127000D01*
X191790500Y-115127000D01*
X191790500Y-114873000D01*
X191810500Y-114873000D01*
X191810500Y-114853000D01*
X192064500Y-114853000D01*
X192064500Y-114873000D01*
G36*
X191035498Y-111574180D02*
G01*
X191094463Y-111684494D01*
X191173815Y-111781185D01*
X191264853Y-111855897D01*
X191127000Y-111993750D01*
X191127000Y-112075859D01*
X191094463Y-112115506D01*
X191035498Y-112225820D01*
X191000000Y-112342841D01*
X190964502Y-112225820D01*
X190905537Y-112115506D01*
X190873000Y-112075859D01*
X190873000Y-111993750D01*
X190811956Y-111932706D01*
X190823641Y-111894187D01*
X190835000Y-111778861D01*
X190835942Y-111769296D01*
X190905537Y-111684494D01*
X190964502Y-111574180D01*
X191000000Y-111457159D01*
X191035498Y-111574180D01*
X191035498Y-111574180D01*
G37*
X191035498Y-111574180D02*
X191094463Y-111684494D01*
X191173815Y-111781185D01*
X191264853Y-111855897D01*
X191127000Y-111993750D01*
X191127000Y-112075859D01*
X191094463Y-112115506D01*
X191035498Y-112225820D01*
X191000000Y-112342841D01*
X190964502Y-112225820D01*
X190905537Y-112115506D01*
X190873000Y-112075859D01*
X190873000Y-111993750D01*
X190811956Y-111932706D01*
X190823641Y-111894187D01*
X190835000Y-111778861D01*
X190835942Y-111769296D01*
X190905537Y-111684494D01*
X190964502Y-111574180D01*
X191000000Y-111457159D01*
X191035498Y-111574180D01*
G36*
X193240001Y-105250158D02*
G01*
X193240000Y-108000626D01*
X193210498Y-108055820D01*
X193174188Y-108175518D01*
X193161928Y-108300000D01*
X193161928Y-109800000D01*
X193174188Y-109924482D01*
X193210498Y-110044180D01*
X193269463Y-110154494D01*
X193348815Y-110251185D01*
X193445506Y-110330537D01*
X193555820Y-110389502D01*
X193675518Y-110425812D01*
X193800000Y-110438072D01*
X194250000Y-110438072D01*
X194350000Y-110428223D01*
X194450000Y-110438072D01*
X194545100Y-110438072D01*
X194545100Y-110592239D01*
X194584874Y-110792198D01*
X194662895Y-110980556D01*
X194776163Y-111150074D01*
X194920326Y-111294237D01*
X195089844Y-111407505D01*
X195278202Y-111485526D01*
X195478161Y-111525300D01*
X195682039Y-111525300D01*
X195881998Y-111485526D01*
X196070356Y-111407505D01*
X196239874Y-111294237D01*
X196384037Y-111150074D01*
X196497305Y-110980556D01*
X196575326Y-110792198D01*
X196595278Y-110691892D01*
X196630862Y-110648533D01*
X196703754Y-110512160D01*
X196726228Y-110438072D01*
X196850000Y-110438072D01*
X196950000Y-110428223D01*
X197050000Y-110438072D01*
X197500000Y-110438072D01*
X197600000Y-110428223D01*
X197700000Y-110438072D01*
X198150000Y-110438072D01*
X198253157Y-110427912D01*
X198318250Y-110435000D01*
X198350497Y-110402753D01*
X198394180Y-110389502D01*
X198504494Y-110330537D01*
X198601185Y-110251185D01*
X198673000Y-110163678D01*
X198673000Y-110276250D01*
X198831750Y-110435000D01*
X198933773Y-110423891D01*
X199052918Y-110385806D01*
X199155147Y-110329193D01*
X199202150Y-110484142D01*
X199281329Y-110632275D01*
X199387885Y-110762115D01*
X199517725Y-110868671D01*
X199665858Y-110947850D01*
X199680015Y-110952144D01*
X199636184Y-111008220D01*
X199579859Y-111119905D01*
X199546406Y-111240433D01*
X199537108Y-111365171D01*
X199540000Y-111414250D01*
X199698750Y-111573000D01*
X200302000Y-111573000D01*
X200302000Y-111553000D01*
X200498000Y-111553000D01*
X200498000Y-111573000D01*
X200547000Y-111573000D01*
X200547000Y-111827000D01*
X200498000Y-111827000D01*
X200498000Y-111847000D01*
X200302000Y-111847000D01*
X200302000Y-111827000D01*
X199698750Y-111827000D01*
X199610750Y-111915000D01*
X192583728Y-111915000D01*
X192555665Y-111900000D01*
X192629494Y-111860537D01*
X192726185Y-111781185D01*
X192805537Y-111684494D01*
X192864502Y-111574180D01*
X192900812Y-111454482D01*
X192913072Y-111330000D01*
X192913072Y-110270000D01*
X192900812Y-110145518D01*
X192864502Y-110025820D01*
X192805537Y-109915506D01*
X192781287Y-109885957D01*
X192783873Y-109859700D01*
X192785000Y-109848261D01*
X192785000Y-109848255D01*
X192788797Y-109809700D01*
X192785000Y-109771144D01*
X192785000Y-109675401D01*
X192862115Y-109612115D01*
X192968671Y-109482275D01*
X193047850Y-109334142D01*
X193096608Y-109173408D01*
X193113072Y-109006250D01*
X193113072Y-108568750D01*
X193096608Y-108401592D01*
X193047850Y-108240858D01*
X192968671Y-108092725D01*
X192950900Y-108071070D01*
X193005537Y-108004494D01*
X193064502Y-107894180D01*
X193100812Y-107774482D01*
X193113072Y-107650000D01*
X193110000Y-107498250D01*
X192951250Y-107339500D01*
X192127000Y-107339500D01*
X192127000Y-107359500D01*
X191873000Y-107359500D01*
X191873000Y-107339500D01*
X191853000Y-107339500D01*
X191853000Y-107085500D01*
X191873000Y-107085500D01*
X191873000Y-106298750D01*
X192127000Y-106298750D01*
X192127000Y-107085500D01*
X192951250Y-107085500D01*
X193110000Y-106926750D01*
X193113072Y-106775000D01*
X193100812Y-106650518D01*
X193064502Y-106530820D01*
X193005537Y-106420506D01*
X192926185Y-106323815D01*
X192829494Y-106244463D01*
X192719180Y-106185498D01*
X192599482Y-106149188D01*
X192475000Y-106136928D01*
X192285750Y-106140000D01*
X192127000Y-106298750D01*
X191873000Y-106298750D01*
X191714250Y-106140000D01*
X191525000Y-106136928D01*
X191400518Y-106149188D01*
X191395533Y-106150700D01*
X191389502Y-106130820D01*
X191330537Y-106020506D01*
X191251185Y-105923815D01*
X191154494Y-105844463D01*
X191044180Y-105785498D01*
X190924482Y-105749188D01*
X190800000Y-105736928D01*
X190385750Y-105740000D01*
X190227000Y-105898750D01*
X190227000Y-106735500D01*
X190247000Y-106735500D01*
X190247000Y-106989500D01*
X190227000Y-106989500D01*
X190227000Y-107009500D01*
X189973000Y-107009500D01*
X189973000Y-106989500D01*
X189953000Y-106989500D01*
X189953000Y-106735500D01*
X189973000Y-106735500D01*
X189973000Y-105898750D01*
X189814250Y-105740000D01*
X189400000Y-105736928D01*
X189275518Y-105749188D01*
X189155820Y-105785498D01*
X189045506Y-105844463D01*
X188948815Y-105923815D01*
X188869463Y-106020506D01*
X188810498Y-106130820D01*
X188774188Y-106250518D01*
X188769614Y-106296957D01*
X188763845Y-106291188D01*
X188739264Y-106261236D01*
X188619733Y-106163138D01*
X188483360Y-106090246D01*
X188335387Y-106045359D01*
X188220061Y-106034000D01*
X188220053Y-106034000D01*
X188181500Y-106030203D01*
X188142947Y-106034000D01*
X186835188Y-106034000D01*
X186918671Y-105932275D01*
X186997850Y-105784142D01*
X187046608Y-105623408D01*
X187063072Y-105456250D01*
X187063072Y-105147085D01*
X187772085Y-104438072D01*
X191800000Y-104438072D01*
X191924482Y-104425812D01*
X192044180Y-104389502D01*
X192154494Y-104330537D01*
X192245606Y-104255763D01*
X193240001Y-105250158D01*
X193240001Y-105250158D01*
G37*
X193240001Y-105250158D02*
X193240000Y-108000626D01*
X193210498Y-108055820D01*
X193174188Y-108175518D01*
X193161928Y-108300000D01*
X193161928Y-109800000D01*
X193174188Y-109924482D01*
X193210498Y-110044180D01*
X193269463Y-110154494D01*
X193348815Y-110251185D01*
X193445506Y-110330537D01*
X193555820Y-110389502D01*
X193675518Y-110425812D01*
X193800000Y-110438072D01*
X194250000Y-110438072D01*
X194350000Y-110428223D01*
X194450000Y-110438072D01*
X194545100Y-110438072D01*
X194545100Y-110592239D01*
X194584874Y-110792198D01*
X194662895Y-110980556D01*
X194776163Y-111150074D01*
X194920326Y-111294237D01*
X195089844Y-111407505D01*
X195278202Y-111485526D01*
X195478161Y-111525300D01*
X195682039Y-111525300D01*
X195881998Y-111485526D01*
X196070356Y-111407505D01*
X196239874Y-111294237D01*
X196384037Y-111150074D01*
X196497305Y-110980556D01*
X196575326Y-110792198D01*
X196595278Y-110691892D01*
X196630862Y-110648533D01*
X196703754Y-110512160D01*
X196726228Y-110438072D01*
X196850000Y-110438072D01*
X196950000Y-110428223D01*
X197050000Y-110438072D01*
X197500000Y-110438072D01*
X197600000Y-110428223D01*
X197700000Y-110438072D01*
X198150000Y-110438072D01*
X198253157Y-110427912D01*
X198318250Y-110435000D01*
X198350497Y-110402753D01*
X198394180Y-110389502D01*
X198504494Y-110330537D01*
X198601185Y-110251185D01*
X198673000Y-110163678D01*
X198673000Y-110276250D01*
X198831750Y-110435000D01*
X198933773Y-110423891D01*
X199052918Y-110385806D01*
X199155147Y-110329193D01*
X199202150Y-110484142D01*
X199281329Y-110632275D01*
X199387885Y-110762115D01*
X199517725Y-110868671D01*
X199665858Y-110947850D01*
X199680015Y-110952144D01*
X199636184Y-111008220D01*
X199579859Y-111119905D01*
X199546406Y-111240433D01*
X199537108Y-111365171D01*
X199540000Y-111414250D01*
X199698750Y-111573000D01*
X200302000Y-111573000D01*
X200302000Y-111553000D01*
X200498000Y-111553000D01*
X200498000Y-111573000D01*
X200547000Y-111573000D01*
X200547000Y-111827000D01*
X200498000Y-111827000D01*
X200498000Y-111847000D01*
X200302000Y-111847000D01*
X200302000Y-111827000D01*
X199698750Y-111827000D01*
X199610750Y-111915000D01*
X192583728Y-111915000D01*
X192555665Y-111900000D01*
X192629494Y-111860537D01*
X192726185Y-111781185D01*
X192805537Y-111684494D01*
X192864502Y-111574180D01*
X192900812Y-111454482D01*
X192913072Y-111330000D01*
X192913072Y-110270000D01*
X192900812Y-110145518D01*
X192864502Y-110025820D01*
X192805537Y-109915506D01*
X192781287Y-109885957D01*
X192783873Y-109859700D01*
X192785000Y-109848261D01*
X192785000Y-109848255D01*
X192788797Y-109809700D01*
X192785000Y-109771144D01*
X192785000Y-109675401D01*
X192862115Y-109612115D01*
X192968671Y-109482275D01*
X193047850Y-109334142D01*
X193096608Y-109173408D01*
X193113072Y-109006250D01*
X193113072Y-108568750D01*
X193096608Y-108401592D01*
X193047850Y-108240858D01*
X192968671Y-108092725D01*
X192950900Y-108071070D01*
X193005537Y-108004494D01*
X193064502Y-107894180D01*
X193100812Y-107774482D01*
X193113072Y-107650000D01*
X193110000Y-107498250D01*
X192951250Y-107339500D01*
X192127000Y-107339500D01*
X192127000Y-107359500D01*
X191873000Y-107359500D01*
X191873000Y-107339500D01*
X191853000Y-107339500D01*
X191853000Y-107085500D01*
X191873000Y-107085500D01*
X191873000Y-106298750D01*
X192127000Y-106298750D01*
X192127000Y-107085500D01*
X192951250Y-107085500D01*
X193110000Y-106926750D01*
X193113072Y-106775000D01*
X193100812Y-106650518D01*
X193064502Y-106530820D01*
X193005537Y-106420506D01*
X192926185Y-106323815D01*
X192829494Y-106244463D01*
X192719180Y-106185498D01*
X192599482Y-106149188D01*
X192475000Y-106136928D01*
X192285750Y-106140000D01*
X192127000Y-106298750D01*
X191873000Y-106298750D01*
X191714250Y-106140000D01*
X191525000Y-106136928D01*
X191400518Y-106149188D01*
X191395533Y-106150700D01*
X191389502Y-106130820D01*
X191330537Y-106020506D01*
X191251185Y-105923815D01*
X191154494Y-105844463D01*
X191044180Y-105785498D01*
X190924482Y-105749188D01*
X190800000Y-105736928D01*
X190385750Y-105740000D01*
X190227000Y-105898750D01*
X190227000Y-106735500D01*
X190247000Y-106735500D01*
X190247000Y-106989500D01*
X190227000Y-106989500D01*
X190227000Y-107009500D01*
X189973000Y-107009500D01*
X189973000Y-106989500D01*
X189953000Y-106989500D01*
X189953000Y-106735500D01*
X189973000Y-106735500D01*
X189973000Y-105898750D01*
X189814250Y-105740000D01*
X189400000Y-105736928D01*
X189275518Y-105749188D01*
X189155820Y-105785498D01*
X189045506Y-105844463D01*
X188948815Y-105923815D01*
X188869463Y-106020506D01*
X188810498Y-106130820D01*
X188774188Y-106250518D01*
X188769614Y-106296957D01*
X188763845Y-106291188D01*
X188739264Y-106261236D01*
X188619733Y-106163138D01*
X188483360Y-106090246D01*
X188335387Y-106045359D01*
X188220061Y-106034000D01*
X188220053Y-106034000D01*
X188181500Y-106030203D01*
X188142947Y-106034000D01*
X186835188Y-106034000D01*
X186918671Y-105932275D01*
X186997850Y-105784142D01*
X187046608Y-105623408D01*
X187063072Y-105456250D01*
X187063072Y-105147085D01*
X187772085Y-104438072D01*
X191800000Y-104438072D01*
X191924482Y-104425812D01*
X192044180Y-104389502D01*
X192154494Y-104330537D01*
X192245606Y-104255763D01*
X193240001Y-105250158D01*
G36*
X184539500Y-105073000D02*
G01*
X184559500Y-105073000D01*
X184559500Y-105327000D01*
X184539500Y-105327000D01*
X184539500Y-105347000D01*
X184348800Y-105347000D01*
X184348800Y-105053000D01*
X184539500Y-105053000D01*
X184539500Y-105073000D01*
X184539500Y-105073000D01*
G37*
X184539500Y-105073000D02*
X184559500Y-105073000D01*
X184559500Y-105327000D01*
X184539500Y-105327000D01*
X184539500Y-105347000D01*
X184348800Y-105347000D01*
X184348800Y-105053000D01*
X184539500Y-105053000D01*
X184539500Y-105073000D01*
G36*
X203214500Y-104573000D02*
G01*
X203234500Y-104573000D01*
X203234500Y-104827000D01*
X203214500Y-104827000D01*
X203214500Y-104847000D01*
X202960500Y-104847000D01*
X202960500Y-104827000D01*
X202940500Y-104827000D01*
X202940500Y-104573000D01*
X202960500Y-104573000D01*
X202960500Y-104553000D01*
X203214500Y-104553000D01*
X203214500Y-104573000D01*
X203214500Y-104573000D01*
G37*
X203214500Y-104573000D02*
X203234500Y-104573000D01*
X203234500Y-104827000D01*
X203214500Y-104827000D01*
X203214500Y-104847000D01*
X202960500Y-104847000D01*
X202960500Y-104827000D01*
X202940500Y-104827000D01*
X202940500Y-104573000D01*
X202960500Y-104573000D01*
X202960500Y-104553000D01*
X203214500Y-104553000D01*
X203214500Y-104573000D01*
M02*
