G04 #@! TF.GenerationSoftware,KiCad,Pcbnew,(5.1.2)-1*
G04 #@! TF.CreationDate,2021-06-27T21:29:46+09:00*
G04 #@! TF.ProjectId,IR,49522e6b-6963-4616-945f-706362585858,v1.1*
G04 #@! TF.SameCoordinates,Original*
G04 #@! TF.FileFunction,Soldermask,Top*
G04 #@! TF.FilePolarity,Negative*
%FSLAX46Y46*%
G04 Gerber Fmt 4.6, Leading zero omitted, Abs format (unit mm)*
G04 Created by KiCad (PCBNEW (5.1.2)-1) date 2021-06-27 21:29:46*
%MOMM*%
%LPD*%
G04 APERTURE LIST*
%ADD10C,3.600000*%
%ADD11O,2.200000X1.924000*%
%ADD12C,0.050000*%
%ADD13C,1.275000*%
%ADD14C,1.375000*%
%ADD15R,1.050000X1.460000*%
%ADD16R,4.900000X2.400000*%
%ADD17C,1.400000*%
%ADD18R,0.850000X1.900000*%
%ADD19R,2.100000X2.100000*%
%ADD20O,2.100000X2.100000*%
%ADD21R,0.850000X1.100000*%
G04 APERTURE END LIST*
D10*
X180000000Y-120000000D03*
D11*
X185200000Y-114000000D03*
X185200000Y-112000000D03*
X185200000Y-110000000D03*
X185200000Y-108000000D03*
D12*
G36*
X192325493Y-116326535D02*
G01*
X192356435Y-116331125D01*
X192386778Y-116338725D01*
X192416230Y-116349263D01*
X192444508Y-116362638D01*
X192471338Y-116378719D01*
X192496463Y-116397353D01*
X192519640Y-116418360D01*
X192540647Y-116441537D01*
X192559281Y-116466662D01*
X192575362Y-116493492D01*
X192588737Y-116521770D01*
X192599275Y-116551222D01*
X192606875Y-116581565D01*
X192611465Y-116612507D01*
X192613000Y-116643750D01*
X192613000Y-117356250D01*
X192611465Y-117387493D01*
X192606875Y-117418435D01*
X192599275Y-117448778D01*
X192588737Y-117478230D01*
X192575362Y-117506508D01*
X192559281Y-117533338D01*
X192540647Y-117558463D01*
X192519640Y-117581640D01*
X192496463Y-117602647D01*
X192471338Y-117621281D01*
X192444508Y-117637362D01*
X192416230Y-117650737D01*
X192386778Y-117661275D01*
X192356435Y-117668875D01*
X192325493Y-117673465D01*
X192294250Y-117675000D01*
X191656750Y-117675000D01*
X191625507Y-117673465D01*
X191594565Y-117668875D01*
X191564222Y-117661275D01*
X191534770Y-117650737D01*
X191506492Y-117637362D01*
X191479662Y-117621281D01*
X191454537Y-117602647D01*
X191431360Y-117581640D01*
X191410353Y-117558463D01*
X191391719Y-117533338D01*
X191375638Y-117506508D01*
X191362263Y-117478230D01*
X191351725Y-117448778D01*
X191344125Y-117418435D01*
X191339535Y-117387493D01*
X191338000Y-117356250D01*
X191338000Y-116643750D01*
X191339535Y-116612507D01*
X191344125Y-116581565D01*
X191351725Y-116551222D01*
X191362263Y-116521770D01*
X191375638Y-116493492D01*
X191391719Y-116466662D01*
X191410353Y-116441537D01*
X191431360Y-116418360D01*
X191454537Y-116397353D01*
X191479662Y-116378719D01*
X191506492Y-116362638D01*
X191534770Y-116349263D01*
X191564222Y-116338725D01*
X191594565Y-116331125D01*
X191625507Y-116326535D01*
X191656750Y-116325000D01*
X192294250Y-116325000D01*
X192325493Y-116326535D01*
X192325493Y-116326535D01*
G37*
D13*
X191975500Y-117000000D03*
D12*
G36*
X190750493Y-116326535D02*
G01*
X190781435Y-116331125D01*
X190811778Y-116338725D01*
X190841230Y-116349263D01*
X190869508Y-116362638D01*
X190896338Y-116378719D01*
X190921463Y-116397353D01*
X190944640Y-116418360D01*
X190965647Y-116441537D01*
X190984281Y-116466662D01*
X191000362Y-116493492D01*
X191013737Y-116521770D01*
X191024275Y-116551222D01*
X191031875Y-116581565D01*
X191036465Y-116612507D01*
X191038000Y-116643750D01*
X191038000Y-117356250D01*
X191036465Y-117387493D01*
X191031875Y-117418435D01*
X191024275Y-117448778D01*
X191013737Y-117478230D01*
X191000362Y-117506508D01*
X190984281Y-117533338D01*
X190965647Y-117558463D01*
X190944640Y-117581640D01*
X190921463Y-117602647D01*
X190896338Y-117621281D01*
X190869508Y-117637362D01*
X190841230Y-117650737D01*
X190811778Y-117661275D01*
X190781435Y-117668875D01*
X190750493Y-117673465D01*
X190719250Y-117675000D01*
X190081750Y-117675000D01*
X190050507Y-117673465D01*
X190019565Y-117668875D01*
X189989222Y-117661275D01*
X189959770Y-117650737D01*
X189931492Y-117637362D01*
X189904662Y-117621281D01*
X189879537Y-117602647D01*
X189856360Y-117581640D01*
X189835353Y-117558463D01*
X189816719Y-117533338D01*
X189800638Y-117506508D01*
X189787263Y-117478230D01*
X189776725Y-117448778D01*
X189769125Y-117418435D01*
X189764535Y-117387493D01*
X189763000Y-117356250D01*
X189763000Y-116643750D01*
X189764535Y-116612507D01*
X189769125Y-116581565D01*
X189776725Y-116551222D01*
X189787263Y-116521770D01*
X189800638Y-116493492D01*
X189816719Y-116466662D01*
X189835353Y-116441537D01*
X189856360Y-116418360D01*
X189879537Y-116397353D01*
X189904662Y-116378719D01*
X189931492Y-116362638D01*
X189959770Y-116349263D01*
X189989222Y-116338725D01*
X190019565Y-116331125D01*
X190050507Y-116326535D01*
X190081750Y-116325000D01*
X190719250Y-116325000D01*
X190750493Y-116326535D01*
X190750493Y-116326535D01*
G37*
D13*
X190400500Y-117000000D03*
D12*
G36*
X192314943Y-114101655D02*
G01*
X192348312Y-114106605D01*
X192381035Y-114114802D01*
X192412797Y-114126166D01*
X192443293Y-114140590D01*
X192472227Y-114157932D01*
X192499323Y-114178028D01*
X192524318Y-114200682D01*
X192546972Y-114225677D01*
X192567068Y-114252773D01*
X192584410Y-114281707D01*
X192598834Y-114312203D01*
X192610198Y-114343965D01*
X192618395Y-114376688D01*
X192623345Y-114410057D01*
X192625000Y-114443750D01*
X192625000Y-115556250D01*
X192623345Y-115589943D01*
X192618395Y-115623312D01*
X192610198Y-115656035D01*
X192598834Y-115687797D01*
X192584410Y-115718293D01*
X192567068Y-115747227D01*
X192546972Y-115774323D01*
X192524318Y-115799318D01*
X192499323Y-115821972D01*
X192472227Y-115842068D01*
X192443293Y-115859410D01*
X192412797Y-115873834D01*
X192381035Y-115885198D01*
X192348312Y-115893395D01*
X192314943Y-115898345D01*
X192281250Y-115900000D01*
X191593750Y-115900000D01*
X191560057Y-115898345D01*
X191526688Y-115893395D01*
X191493965Y-115885198D01*
X191462203Y-115873834D01*
X191431707Y-115859410D01*
X191402773Y-115842068D01*
X191375677Y-115821972D01*
X191350682Y-115799318D01*
X191328028Y-115774323D01*
X191307932Y-115747227D01*
X191290590Y-115718293D01*
X191276166Y-115687797D01*
X191264802Y-115656035D01*
X191256605Y-115623312D01*
X191251655Y-115589943D01*
X191250000Y-115556250D01*
X191250000Y-114443750D01*
X191251655Y-114410057D01*
X191256605Y-114376688D01*
X191264802Y-114343965D01*
X191276166Y-114312203D01*
X191290590Y-114281707D01*
X191307932Y-114252773D01*
X191328028Y-114225677D01*
X191350682Y-114200682D01*
X191375677Y-114178028D01*
X191402773Y-114157932D01*
X191431707Y-114140590D01*
X191462203Y-114126166D01*
X191493965Y-114114802D01*
X191526688Y-114106605D01*
X191560057Y-114101655D01*
X191593750Y-114100000D01*
X192281250Y-114100000D01*
X192314943Y-114101655D01*
X192314943Y-114101655D01*
G37*
D14*
X191937500Y-115000000D03*
D12*
G36*
X190439943Y-114101655D02*
G01*
X190473312Y-114106605D01*
X190506035Y-114114802D01*
X190537797Y-114126166D01*
X190568293Y-114140590D01*
X190597227Y-114157932D01*
X190624323Y-114178028D01*
X190649318Y-114200682D01*
X190671972Y-114225677D01*
X190692068Y-114252773D01*
X190709410Y-114281707D01*
X190723834Y-114312203D01*
X190735198Y-114343965D01*
X190743395Y-114376688D01*
X190748345Y-114410057D01*
X190750000Y-114443750D01*
X190750000Y-115556250D01*
X190748345Y-115589943D01*
X190743395Y-115623312D01*
X190735198Y-115656035D01*
X190723834Y-115687797D01*
X190709410Y-115718293D01*
X190692068Y-115747227D01*
X190671972Y-115774323D01*
X190649318Y-115799318D01*
X190624323Y-115821972D01*
X190597227Y-115842068D01*
X190568293Y-115859410D01*
X190537797Y-115873834D01*
X190506035Y-115885198D01*
X190473312Y-115893395D01*
X190439943Y-115898345D01*
X190406250Y-115900000D01*
X189718750Y-115900000D01*
X189685057Y-115898345D01*
X189651688Y-115893395D01*
X189618965Y-115885198D01*
X189587203Y-115873834D01*
X189556707Y-115859410D01*
X189527773Y-115842068D01*
X189500677Y-115821972D01*
X189475682Y-115799318D01*
X189453028Y-115774323D01*
X189432932Y-115747227D01*
X189415590Y-115718293D01*
X189401166Y-115687797D01*
X189389802Y-115656035D01*
X189381605Y-115623312D01*
X189376655Y-115589943D01*
X189375000Y-115556250D01*
X189375000Y-114443750D01*
X189376655Y-114410057D01*
X189381605Y-114376688D01*
X189389802Y-114343965D01*
X189401166Y-114312203D01*
X189415590Y-114281707D01*
X189432932Y-114252773D01*
X189453028Y-114225677D01*
X189475682Y-114200682D01*
X189500677Y-114178028D01*
X189527773Y-114157932D01*
X189556707Y-114140590D01*
X189587203Y-114126166D01*
X189618965Y-114114802D01*
X189651688Y-114106605D01*
X189685057Y-114101655D01*
X189718750Y-114100000D01*
X190406250Y-114100000D01*
X190439943Y-114101655D01*
X190439943Y-114101655D01*
G37*
D14*
X190062500Y-115000000D03*
D12*
G36*
X192387493Y-106576535D02*
G01*
X192418435Y-106581125D01*
X192448778Y-106588725D01*
X192478230Y-106599263D01*
X192506508Y-106612638D01*
X192533338Y-106628719D01*
X192558463Y-106647353D01*
X192581640Y-106668360D01*
X192602647Y-106691537D01*
X192621281Y-106716662D01*
X192637362Y-106743492D01*
X192650737Y-106771770D01*
X192661275Y-106801222D01*
X192668875Y-106831565D01*
X192673465Y-106862507D01*
X192675000Y-106893750D01*
X192675000Y-107531250D01*
X192673465Y-107562493D01*
X192668875Y-107593435D01*
X192661275Y-107623778D01*
X192650737Y-107653230D01*
X192637362Y-107681508D01*
X192621281Y-107708338D01*
X192602647Y-107733463D01*
X192581640Y-107756640D01*
X192558463Y-107777647D01*
X192533338Y-107796281D01*
X192506508Y-107812362D01*
X192478230Y-107825737D01*
X192448778Y-107836275D01*
X192418435Y-107843875D01*
X192387493Y-107848465D01*
X192356250Y-107850000D01*
X191643750Y-107850000D01*
X191612507Y-107848465D01*
X191581565Y-107843875D01*
X191551222Y-107836275D01*
X191521770Y-107825737D01*
X191493492Y-107812362D01*
X191466662Y-107796281D01*
X191441537Y-107777647D01*
X191418360Y-107756640D01*
X191397353Y-107733463D01*
X191378719Y-107708338D01*
X191362638Y-107681508D01*
X191349263Y-107653230D01*
X191338725Y-107623778D01*
X191331125Y-107593435D01*
X191326535Y-107562493D01*
X191325000Y-107531250D01*
X191325000Y-106893750D01*
X191326535Y-106862507D01*
X191331125Y-106831565D01*
X191338725Y-106801222D01*
X191349263Y-106771770D01*
X191362638Y-106743492D01*
X191378719Y-106716662D01*
X191397353Y-106691537D01*
X191418360Y-106668360D01*
X191441537Y-106647353D01*
X191466662Y-106628719D01*
X191493492Y-106612638D01*
X191521770Y-106599263D01*
X191551222Y-106588725D01*
X191581565Y-106581125D01*
X191612507Y-106576535D01*
X191643750Y-106575000D01*
X192356250Y-106575000D01*
X192387493Y-106576535D01*
X192387493Y-106576535D01*
G37*
D13*
X192000000Y-107212500D03*
D12*
G36*
X192387493Y-108151535D02*
G01*
X192418435Y-108156125D01*
X192448778Y-108163725D01*
X192478230Y-108174263D01*
X192506508Y-108187638D01*
X192533338Y-108203719D01*
X192558463Y-108222353D01*
X192581640Y-108243360D01*
X192602647Y-108266537D01*
X192621281Y-108291662D01*
X192637362Y-108318492D01*
X192650737Y-108346770D01*
X192661275Y-108376222D01*
X192668875Y-108406565D01*
X192673465Y-108437507D01*
X192675000Y-108468750D01*
X192675000Y-109106250D01*
X192673465Y-109137493D01*
X192668875Y-109168435D01*
X192661275Y-109198778D01*
X192650737Y-109228230D01*
X192637362Y-109256508D01*
X192621281Y-109283338D01*
X192602647Y-109308463D01*
X192581640Y-109331640D01*
X192558463Y-109352647D01*
X192533338Y-109371281D01*
X192506508Y-109387362D01*
X192478230Y-109400737D01*
X192448778Y-109411275D01*
X192418435Y-109418875D01*
X192387493Y-109423465D01*
X192356250Y-109425000D01*
X191643750Y-109425000D01*
X191612507Y-109423465D01*
X191581565Y-109418875D01*
X191551222Y-109411275D01*
X191521770Y-109400737D01*
X191493492Y-109387362D01*
X191466662Y-109371281D01*
X191441537Y-109352647D01*
X191418360Y-109331640D01*
X191397353Y-109308463D01*
X191378719Y-109283338D01*
X191362638Y-109256508D01*
X191349263Y-109228230D01*
X191338725Y-109198778D01*
X191331125Y-109168435D01*
X191326535Y-109137493D01*
X191325000Y-109106250D01*
X191325000Y-108468750D01*
X191326535Y-108437507D01*
X191331125Y-108406565D01*
X191338725Y-108376222D01*
X191349263Y-108346770D01*
X191362638Y-108318492D01*
X191378719Y-108291662D01*
X191397353Y-108266537D01*
X191418360Y-108243360D01*
X191441537Y-108222353D01*
X191466662Y-108203719D01*
X191493492Y-108187638D01*
X191521770Y-108174263D01*
X191551222Y-108163725D01*
X191581565Y-108156125D01*
X191612507Y-108151535D01*
X191643750Y-108150000D01*
X192356250Y-108150000D01*
X192387493Y-108151535D01*
X192387493Y-108151535D01*
G37*
D13*
X192000000Y-108787500D03*
D12*
G36*
X190689943Y-108051655D02*
G01*
X190723312Y-108056605D01*
X190756035Y-108064802D01*
X190787797Y-108076166D01*
X190818293Y-108090590D01*
X190847227Y-108107932D01*
X190874323Y-108128028D01*
X190899318Y-108150682D01*
X190921972Y-108175677D01*
X190942068Y-108202773D01*
X190959410Y-108231707D01*
X190973834Y-108262203D01*
X190985198Y-108293965D01*
X190993395Y-108326688D01*
X190998345Y-108360057D01*
X191000000Y-108393750D01*
X191000000Y-109081250D01*
X190998345Y-109114943D01*
X190993395Y-109148312D01*
X190985198Y-109181035D01*
X190973834Y-109212797D01*
X190959410Y-109243293D01*
X190942068Y-109272227D01*
X190921972Y-109299323D01*
X190899318Y-109324318D01*
X190874323Y-109346972D01*
X190847227Y-109367068D01*
X190818293Y-109384410D01*
X190787797Y-109398834D01*
X190756035Y-109410198D01*
X190723312Y-109418395D01*
X190689943Y-109423345D01*
X190656250Y-109425000D01*
X189543750Y-109425000D01*
X189510057Y-109423345D01*
X189476688Y-109418395D01*
X189443965Y-109410198D01*
X189412203Y-109398834D01*
X189381707Y-109384410D01*
X189352773Y-109367068D01*
X189325677Y-109346972D01*
X189300682Y-109324318D01*
X189278028Y-109299323D01*
X189257932Y-109272227D01*
X189240590Y-109243293D01*
X189226166Y-109212797D01*
X189214802Y-109181035D01*
X189206605Y-109148312D01*
X189201655Y-109114943D01*
X189200000Y-109081250D01*
X189200000Y-108393750D01*
X189201655Y-108360057D01*
X189206605Y-108326688D01*
X189214802Y-108293965D01*
X189226166Y-108262203D01*
X189240590Y-108231707D01*
X189257932Y-108202773D01*
X189278028Y-108175677D01*
X189300682Y-108150682D01*
X189325677Y-108128028D01*
X189352773Y-108107932D01*
X189381707Y-108090590D01*
X189412203Y-108076166D01*
X189443965Y-108064802D01*
X189476688Y-108056605D01*
X189510057Y-108051655D01*
X189543750Y-108050000D01*
X190656250Y-108050000D01*
X190689943Y-108051655D01*
X190689943Y-108051655D01*
G37*
D14*
X190100000Y-108737500D03*
D12*
G36*
X190689943Y-106176655D02*
G01*
X190723312Y-106181605D01*
X190756035Y-106189802D01*
X190787797Y-106201166D01*
X190818293Y-106215590D01*
X190847227Y-106232932D01*
X190874323Y-106253028D01*
X190899318Y-106275682D01*
X190921972Y-106300677D01*
X190942068Y-106327773D01*
X190959410Y-106356707D01*
X190973834Y-106387203D01*
X190985198Y-106418965D01*
X190993395Y-106451688D01*
X190998345Y-106485057D01*
X191000000Y-106518750D01*
X191000000Y-107206250D01*
X190998345Y-107239943D01*
X190993395Y-107273312D01*
X190985198Y-107306035D01*
X190973834Y-107337797D01*
X190959410Y-107368293D01*
X190942068Y-107397227D01*
X190921972Y-107424323D01*
X190899318Y-107449318D01*
X190874323Y-107471972D01*
X190847227Y-107492068D01*
X190818293Y-107509410D01*
X190787797Y-107523834D01*
X190756035Y-107535198D01*
X190723312Y-107543395D01*
X190689943Y-107548345D01*
X190656250Y-107550000D01*
X189543750Y-107550000D01*
X189510057Y-107548345D01*
X189476688Y-107543395D01*
X189443965Y-107535198D01*
X189412203Y-107523834D01*
X189381707Y-107509410D01*
X189352773Y-107492068D01*
X189325677Y-107471972D01*
X189300682Y-107449318D01*
X189278028Y-107424323D01*
X189257932Y-107397227D01*
X189240590Y-107368293D01*
X189226166Y-107337797D01*
X189214802Y-107306035D01*
X189206605Y-107273312D01*
X189201655Y-107239943D01*
X189200000Y-107206250D01*
X189200000Y-106518750D01*
X189201655Y-106485057D01*
X189206605Y-106451688D01*
X189214802Y-106418965D01*
X189226166Y-106387203D01*
X189240590Y-106356707D01*
X189257932Y-106327773D01*
X189278028Y-106300677D01*
X189300682Y-106275682D01*
X189325677Y-106253028D01*
X189352773Y-106232932D01*
X189381707Y-106215590D01*
X189412203Y-106201166D01*
X189443965Y-106189802D01*
X189476688Y-106181605D01*
X189510057Y-106176655D01*
X189543750Y-106175000D01*
X190656250Y-106175000D01*
X190689943Y-106176655D01*
X190689943Y-106176655D01*
G37*
D14*
X190100000Y-106862500D03*
D12*
G36*
X203437493Y-104026535D02*
G01*
X203468435Y-104031125D01*
X203498778Y-104038725D01*
X203528230Y-104049263D01*
X203556508Y-104062638D01*
X203583338Y-104078719D01*
X203608463Y-104097353D01*
X203631640Y-104118360D01*
X203652647Y-104141537D01*
X203671281Y-104166662D01*
X203687362Y-104193492D01*
X203700737Y-104221770D01*
X203711275Y-104251222D01*
X203718875Y-104281565D01*
X203723465Y-104312507D01*
X203725000Y-104343750D01*
X203725000Y-105056250D01*
X203723465Y-105087493D01*
X203718875Y-105118435D01*
X203711275Y-105148778D01*
X203700737Y-105178230D01*
X203687362Y-105206508D01*
X203671281Y-105233338D01*
X203652647Y-105258463D01*
X203631640Y-105281640D01*
X203608463Y-105302647D01*
X203583338Y-105321281D01*
X203556508Y-105337362D01*
X203528230Y-105350737D01*
X203498778Y-105361275D01*
X203468435Y-105368875D01*
X203437493Y-105373465D01*
X203406250Y-105375000D01*
X202768750Y-105375000D01*
X202737507Y-105373465D01*
X202706565Y-105368875D01*
X202676222Y-105361275D01*
X202646770Y-105350737D01*
X202618492Y-105337362D01*
X202591662Y-105321281D01*
X202566537Y-105302647D01*
X202543360Y-105281640D01*
X202522353Y-105258463D01*
X202503719Y-105233338D01*
X202487638Y-105206508D01*
X202474263Y-105178230D01*
X202463725Y-105148778D01*
X202456125Y-105118435D01*
X202451535Y-105087493D01*
X202450000Y-105056250D01*
X202450000Y-104343750D01*
X202451535Y-104312507D01*
X202456125Y-104281565D01*
X202463725Y-104251222D01*
X202474263Y-104221770D01*
X202487638Y-104193492D01*
X202503719Y-104166662D01*
X202522353Y-104141537D01*
X202543360Y-104118360D01*
X202566537Y-104097353D01*
X202591662Y-104078719D01*
X202618492Y-104062638D01*
X202646770Y-104049263D01*
X202676222Y-104038725D01*
X202706565Y-104031125D01*
X202737507Y-104026535D01*
X202768750Y-104025000D01*
X203406250Y-104025000D01*
X203437493Y-104026535D01*
X203437493Y-104026535D01*
G37*
D13*
X203087500Y-104700000D03*
D12*
G36*
X201862493Y-104026535D02*
G01*
X201893435Y-104031125D01*
X201923778Y-104038725D01*
X201953230Y-104049263D01*
X201981508Y-104062638D01*
X202008338Y-104078719D01*
X202033463Y-104097353D01*
X202056640Y-104118360D01*
X202077647Y-104141537D01*
X202096281Y-104166662D01*
X202112362Y-104193492D01*
X202125737Y-104221770D01*
X202136275Y-104251222D01*
X202143875Y-104281565D01*
X202148465Y-104312507D01*
X202150000Y-104343750D01*
X202150000Y-105056250D01*
X202148465Y-105087493D01*
X202143875Y-105118435D01*
X202136275Y-105148778D01*
X202125737Y-105178230D01*
X202112362Y-105206508D01*
X202096281Y-105233338D01*
X202077647Y-105258463D01*
X202056640Y-105281640D01*
X202033463Y-105302647D01*
X202008338Y-105321281D01*
X201981508Y-105337362D01*
X201953230Y-105350737D01*
X201923778Y-105361275D01*
X201893435Y-105368875D01*
X201862493Y-105373465D01*
X201831250Y-105375000D01*
X201193750Y-105375000D01*
X201162507Y-105373465D01*
X201131565Y-105368875D01*
X201101222Y-105361275D01*
X201071770Y-105350737D01*
X201043492Y-105337362D01*
X201016662Y-105321281D01*
X200991537Y-105302647D01*
X200968360Y-105281640D01*
X200947353Y-105258463D01*
X200928719Y-105233338D01*
X200912638Y-105206508D01*
X200899263Y-105178230D01*
X200888725Y-105148778D01*
X200881125Y-105118435D01*
X200876535Y-105087493D01*
X200875000Y-105056250D01*
X200875000Y-104343750D01*
X200876535Y-104312507D01*
X200881125Y-104281565D01*
X200888725Y-104251222D01*
X200899263Y-104221770D01*
X200912638Y-104193492D01*
X200928719Y-104166662D01*
X200947353Y-104141537D01*
X200968360Y-104118360D01*
X200991537Y-104097353D01*
X201016662Y-104078719D01*
X201043492Y-104062638D01*
X201071770Y-104049263D01*
X201101222Y-104038725D01*
X201131565Y-104031125D01*
X201162507Y-104026535D01*
X201193750Y-104025000D01*
X201831250Y-104025000D01*
X201862493Y-104026535D01*
X201862493Y-104026535D01*
G37*
D13*
X201512500Y-104700000D03*
D12*
G36*
X186337493Y-104526535D02*
G01*
X186368435Y-104531125D01*
X186398778Y-104538725D01*
X186428230Y-104549263D01*
X186456508Y-104562638D01*
X186483338Y-104578719D01*
X186508463Y-104597353D01*
X186531640Y-104618360D01*
X186552647Y-104641537D01*
X186571281Y-104666662D01*
X186587362Y-104693492D01*
X186600737Y-104721770D01*
X186611275Y-104751222D01*
X186618875Y-104781565D01*
X186623465Y-104812507D01*
X186625000Y-104843750D01*
X186625000Y-105556250D01*
X186623465Y-105587493D01*
X186618875Y-105618435D01*
X186611275Y-105648778D01*
X186600737Y-105678230D01*
X186587362Y-105706508D01*
X186571281Y-105733338D01*
X186552647Y-105758463D01*
X186531640Y-105781640D01*
X186508463Y-105802647D01*
X186483338Y-105821281D01*
X186456508Y-105837362D01*
X186428230Y-105850737D01*
X186398778Y-105861275D01*
X186368435Y-105868875D01*
X186337493Y-105873465D01*
X186306250Y-105875000D01*
X185668750Y-105875000D01*
X185637507Y-105873465D01*
X185606565Y-105868875D01*
X185576222Y-105861275D01*
X185546770Y-105850737D01*
X185518492Y-105837362D01*
X185491662Y-105821281D01*
X185466537Y-105802647D01*
X185443360Y-105781640D01*
X185422353Y-105758463D01*
X185403719Y-105733338D01*
X185387638Y-105706508D01*
X185374263Y-105678230D01*
X185363725Y-105648778D01*
X185356125Y-105618435D01*
X185351535Y-105587493D01*
X185350000Y-105556250D01*
X185350000Y-104843750D01*
X185351535Y-104812507D01*
X185356125Y-104781565D01*
X185363725Y-104751222D01*
X185374263Y-104721770D01*
X185387638Y-104693492D01*
X185403719Y-104666662D01*
X185422353Y-104641537D01*
X185443360Y-104618360D01*
X185466537Y-104597353D01*
X185491662Y-104578719D01*
X185518492Y-104562638D01*
X185546770Y-104549263D01*
X185576222Y-104538725D01*
X185606565Y-104531125D01*
X185637507Y-104526535D01*
X185668750Y-104525000D01*
X186306250Y-104525000D01*
X186337493Y-104526535D01*
X186337493Y-104526535D01*
G37*
D13*
X185987500Y-105200000D03*
D12*
G36*
X184762493Y-104526535D02*
G01*
X184793435Y-104531125D01*
X184823778Y-104538725D01*
X184853230Y-104549263D01*
X184881508Y-104562638D01*
X184908338Y-104578719D01*
X184933463Y-104597353D01*
X184956640Y-104618360D01*
X184977647Y-104641537D01*
X184996281Y-104666662D01*
X185012362Y-104693492D01*
X185025737Y-104721770D01*
X185036275Y-104751222D01*
X185043875Y-104781565D01*
X185048465Y-104812507D01*
X185050000Y-104843750D01*
X185050000Y-105556250D01*
X185048465Y-105587493D01*
X185043875Y-105618435D01*
X185036275Y-105648778D01*
X185025737Y-105678230D01*
X185012362Y-105706508D01*
X184996281Y-105733338D01*
X184977647Y-105758463D01*
X184956640Y-105781640D01*
X184933463Y-105802647D01*
X184908338Y-105821281D01*
X184881508Y-105837362D01*
X184853230Y-105850737D01*
X184823778Y-105861275D01*
X184793435Y-105868875D01*
X184762493Y-105873465D01*
X184731250Y-105875000D01*
X184093750Y-105875000D01*
X184062507Y-105873465D01*
X184031565Y-105868875D01*
X184001222Y-105861275D01*
X183971770Y-105850737D01*
X183943492Y-105837362D01*
X183916662Y-105821281D01*
X183891537Y-105802647D01*
X183868360Y-105781640D01*
X183847353Y-105758463D01*
X183828719Y-105733338D01*
X183812638Y-105706508D01*
X183799263Y-105678230D01*
X183788725Y-105648778D01*
X183781125Y-105618435D01*
X183776535Y-105587493D01*
X183775000Y-105556250D01*
X183775000Y-104843750D01*
X183776535Y-104812507D01*
X183781125Y-104781565D01*
X183788725Y-104751222D01*
X183799263Y-104721770D01*
X183812638Y-104693492D01*
X183828719Y-104666662D01*
X183847353Y-104641537D01*
X183868360Y-104618360D01*
X183891537Y-104597353D01*
X183916662Y-104578719D01*
X183943492Y-104562638D01*
X183971770Y-104549263D01*
X184001222Y-104538725D01*
X184031565Y-104531125D01*
X184062507Y-104526535D01*
X184093750Y-104525000D01*
X184731250Y-104525000D01*
X184762493Y-104526535D01*
X184762493Y-104526535D01*
G37*
D13*
X184412500Y-105200000D03*
D12*
G36*
X184762493Y-102626535D02*
G01*
X184793435Y-102631125D01*
X184823778Y-102638725D01*
X184853230Y-102649263D01*
X184881508Y-102662638D01*
X184908338Y-102678719D01*
X184933463Y-102697353D01*
X184956640Y-102718360D01*
X184977647Y-102741537D01*
X184996281Y-102766662D01*
X185012362Y-102793492D01*
X185025737Y-102821770D01*
X185036275Y-102851222D01*
X185043875Y-102881565D01*
X185048465Y-102912507D01*
X185050000Y-102943750D01*
X185050000Y-103656250D01*
X185048465Y-103687493D01*
X185043875Y-103718435D01*
X185036275Y-103748778D01*
X185025737Y-103778230D01*
X185012362Y-103806508D01*
X184996281Y-103833338D01*
X184977647Y-103858463D01*
X184956640Y-103881640D01*
X184933463Y-103902647D01*
X184908338Y-103921281D01*
X184881508Y-103937362D01*
X184853230Y-103950737D01*
X184823778Y-103961275D01*
X184793435Y-103968875D01*
X184762493Y-103973465D01*
X184731250Y-103975000D01*
X184093750Y-103975000D01*
X184062507Y-103973465D01*
X184031565Y-103968875D01*
X184001222Y-103961275D01*
X183971770Y-103950737D01*
X183943492Y-103937362D01*
X183916662Y-103921281D01*
X183891537Y-103902647D01*
X183868360Y-103881640D01*
X183847353Y-103858463D01*
X183828719Y-103833338D01*
X183812638Y-103806508D01*
X183799263Y-103778230D01*
X183788725Y-103748778D01*
X183781125Y-103718435D01*
X183776535Y-103687493D01*
X183775000Y-103656250D01*
X183775000Y-102943750D01*
X183776535Y-102912507D01*
X183781125Y-102881565D01*
X183788725Y-102851222D01*
X183799263Y-102821770D01*
X183812638Y-102793492D01*
X183828719Y-102766662D01*
X183847353Y-102741537D01*
X183868360Y-102718360D01*
X183891537Y-102697353D01*
X183916662Y-102678719D01*
X183943492Y-102662638D01*
X183971770Y-102649263D01*
X184001222Y-102638725D01*
X184031565Y-102631125D01*
X184062507Y-102626535D01*
X184093750Y-102625000D01*
X184731250Y-102625000D01*
X184762493Y-102626535D01*
X184762493Y-102626535D01*
G37*
D13*
X184412500Y-103300000D03*
D12*
G36*
X186337493Y-102626535D02*
G01*
X186368435Y-102631125D01*
X186398778Y-102638725D01*
X186428230Y-102649263D01*
X186456508Y-102662638D01*
X186483338Y-102678719D01*
X186508463Y-102697353D01*
X186531640Y-102718360D01*
X186552647Y-102741537D01*
X186571281Y-102766662D01*
X186587362Y-102793492D01*
X186600737Y-102821770D01*
X186611275Y-102851222D01*
X186618875Y-102881565D01*
X186623465Y-102912507D01*
X186625000Y-102943750D01*
X186625000Y-103656250D01*
X186623465Y-103687493D01*
X186618875Y-103718435D01*
X186611275Y-103748778D01*
X186600737Y-103778230D01*
X186587362Y-103806508D01*
X186571281Y-103833338D01*
X186552647Y-103858463D01*
X186531640Y-103881640D01*
X186508463Y-103902647D01*
X186483338Y-103921281D01*
X186456508Y-103937362D01*
X186428230Y-103950737D01*
X186398778Y-103961275D01*
X186368435Y-103968875D01*
X186337493Y-103973465D01*
X186306250Y-103975000D01*
X185668750Y-103975000D01*
X185637507Y-103973465D01*
X185606565Y-103968875D01*
X185576222Y-103961275D01*
X185546770Y-103950737D01*
X185518492Y-103937362D01*
X185491662Y-103921281D01*
X185466537Y-103902647D01*
X185443360Y-103881640D01*
X185422353Y-103858463D01*
X185403719Y-103833338D01*
X185387638Y-103806508D01*
X185374263Y-103778230D01*
X185363725Y-103748778D01*
X185356125Y-103718435D01*
X185351535Y-103687493D01*
X185350000Y-103656250D01*
X185350000Y-102943750D01*
X185351535Y-102912507D01*
X185356125Y-102881565D01*
X185363725Y-102851222D01*
X185374263Y-102821770D01*
X185387638Y-102793492D01*
X185403719Y-102766662D01*
X185422353Y-102741537D01*
X185443360Y-102718360D01*
X185466537Y-102697353D01*
X185491662Y-102678719D01*
X185518492Y-102662638D01*
X185546770Y-102649263D01*
X185576222Y-102638725D01*
X185606565Y-102631125D01*
X185637507Y-102626535D01*
X185668750Y-102625000D01*
X186306250Y-102625000D01*
X186337493Y-102626535D01*
X186337493Y-102626535D01*
G37*
D13*
X185987500Y-103300000D03*
D12*
G36*
X193462493Y-120426535D02*
G01*
X193493435Y-120431125D01*
X193523778Y-120438725D01*
X193553230Y-120449263D01*
X193581508Y-120462638D01*
X193608338Y-120478719D01*
X193633463Y-120497353D01*
X193656640Y-120518360D01*
X193677647Y-120541537D01*
X193696281Y-120566662D01*
X193712362Y-120593492D01*
X193725737Y-120621770D01*
X193736275Y-120651222D01*
X193743875Y-120681565D01*
X193748465Y-120712507D01*
X193750000Y-120743750D01*
X193750000Y-121456250D01*
X193748465Y-121487493D01*
X193743875Y-121518435D01*
X193736275Y-121548778D01*
X193725737Y-121578230D01*
X193712362Y-121606508D01*
X193696281Y-121633338D01*
X193677647Y-121658463D01*
X193656640Y-121681640D01*
X193633463Y-121702647D01*
X193608338Y-121721281D01*
X193581508Y-121737362D01*
X193553230Y-121750737D01*
X193523778Y-121761275D01*
X193493435Y-121768875D01*
X193462493Y-121773465D01*
X193431250Y-121775000D01*
X192793750Y-121775000D01*
X192762507Y-121773465D01*
X192731565Y-121768875D01*
X192701222Y-121761275D01*
X192671770Y-121750737D01*
X192643492Y-121737362D01*
X192616662Y-121721281D01*
X192591537Y-121702647D01*
X192568360Y-121681640D01*
X192547353Y-121658463D01*
X192528719Y-121633338D01*
X192512638Y-121606508D01*
X192499263Y-121578230D01*
X192488725Y-121548778D01*
X192481125Y-121518435D01*
X192476535Y-121487493D01*
X192475000Y-121456250D01*
X192475000Y-120743750D01*
X192476535Y-120712507D01*
X192481125Y-120681565D01*
X192488725Y-120651222D01*
X192499263Y-120621770D01*
X192512638Y-120593492D01*
X192528719Y-120566662D01*
X192547353Y-120541537D01*
X192568360Y-120518360D01*
X192591537Y-120497353D01*
X192616662Y-120478719D01*
X192643492Y-120462638D01*
X192671770Y-120449263D01*
X192701222Y-120438725D01*
X192731565Y-120431125D01*
X192762507Y-120426535D01*
X192793750Y-120425000D01*
X193431250Y-120425000D01*
X193462493Y-120426535D01*
X193462493Y-120426535D01*
G37*
D13*
X193112500Y-121100000D03*
D12*
G36*
X195037493Y-120426535D02*
G01*
X195068435Y-120431125D01*
X195098778Y-120438725D01*
X195128230Y-120449263D01*
X195156508Y-120462638D01*
X195183338Y-120478719D01*
X195208463Y-120497353D01*
X195231640Y-120518360D01*
X195252647Y-120541537D01*
X195271281Y-120566662D01*
X195287362Y-120593492D01*
X195300737Y-120621770D01*
X195311275Y-120651222D01*
X195318875Y-120681565D01*
X195323465Y-120712507D01*
X195325000Y-120743750D01*
X195325000Y-121456250D01*
X195323465Y-121487493D01*
X195318875Y-121518435D01*
X195311275Y-121548778D01*
X195300737Y-121578230D01*
X195287362Y-121606508D01*
X195271281Y-121633338D01*
X195252647Y-121658463D01*
X195231640Y-121681640D01*
X195208463Y-121702647D01*
X195183338Y-121721281D01*
X195156508Y-121737362D01*
X195128230Y-121750737D01*
X195098778Y-121761275D01*
X195068435Y-121768875D01*
X195037493Y-121773465D01*
X195006250Y-121775000D01*
X194368750Y-121775000D01*
X194337507Y-121773465D01*
X194306565Y-121768875D01*
X194276222Y-121761275D01*
X194246770Y-121750737D01*
X194218492Y-121737362D01*
X194191662Y-121721281D01*
X194166537Y-121702647D01*
X194143360Y-121681640D01*
X194122353Y-121658463D01*
X194103719Y-121633338D01*
X194087638Y-121606508D01*
X194074263Y-121578230D01*
X194063725Y-121548778D01*
X194056125Y-121518435D01*
X194051535Y-121487493D01*
X194050000Y-121456250D01*
X194050000Y-120743750D01*
X194051535Y-120712507D01*
X194056125Y-120681565D01*
X194063725Y-120651222D01*
X194074263Y-120621770D01*
X194087638Y-120593492D01*
X194103719Y-120566662D01*
X194122353Y-120541537D01*
X194143360Y-120518360D01*
X194166537Y-120497353D01*
X194191662Y-120478719D01*
X194218492Y-120462638D01*
X194246770Y-120449263D01*
X194276222Y-120438725D01*
X194306565Y-120431125D01*
X194337507Y-120426535D01*
X194368750Y-120425000D01*
X195006250Y-120425000D01*
X195037493Y-120426535D01*
X195037493Y-120426535D01*
G37*
D13*
X194687500Y-121100000D03*
D12*
G36*
X191737493Y-120426535D02*
G01*
X191768435Y-120431125D01*
X191798778Y-120438725D01*
X191828230Y-120449263D01*
X191856508Y-120462638D01*
X191883338Y-120478719D01*
X191908463Y-120497353D01*
X191931640Y-120518360D01*
X191952647Y-120541537D01*
X191971281Y-120566662D01*
X191987362Y-120593492D01*
X192000737Y-120621770D01*
X192011275Y-120651222D01*
X192018875Y-120681565D01*
X192023465Y-120712507D01*
X192025000Y-120743750D01*
X192025000Y-121456250D01*
X192023465Y-121487493D01*
X192018875Y-121518435D01*
X192011275Y-121548778D01*
X192000737Y-121578230D01*
X191987362Y-121606508D01*
X191971281Y-121633338D01*
X191952647Y-121658463D01*
X191931640Y-121681640D01*
X191908463Y-121702647D01*
X191883338Y-121721281D01*
X191856508Y-121737362D01*
X191828230Y-121750737D01*
X191798778Y-121761275D01*
X191768435Y-121768875D01*
X191737493Y-121773465D01*
X191706250Y-121775000D01*
X191068750Y-121775000D01*
X191037507Y-121773465D01*
X191006565Y-121768875D01*
X190976222Y-121761275D01*
X190946770Y-121750737D01*
X190918492Y-121737362D01*
X190891662Y-121721281D01*
X190866537Y-121702647D01*
X190843360Y-121681640D01*
X190822353Y-121658463D01*
X190803719Y-121633338D01*
X190787638Y-121606508D01*
X190774263Y-121578230D01*
X190763725Y-121548778D01*
X190756125Y-121518435D01*
X190751535Y-121487493D01*
X190750000Y-121456250D01*
X190750000Y-120743750D01*
X190751535Y-120712507D01*
X190756125Y-120681565D01*
X190763725Y-120651222D01*
X190774263Y-120621770D01*
X190787638Y-120593492D01*
X190803719Y-120566662D01*
X190822353Y-120541537D01*
X190843360Y-120518360D01*
X190866537Y-120497353D01*
X190891662Y-120478719D01*
X190918492Y-120462638D01*
X190946770Y-120449263D01*
X190976222Y-120438725D01*
X191006565Y-120431125D01*
X191037507Y-120426535D01*
X191068750Y-120425000D01*
X191706250Y-120425000D01*
X191737493Y-120426535D01*
X191737493Y-120426535D01*
G37*
D13*
X191387500Y-121100000D03*
D12*
G36*
X190162493Y-120426535D02*
G01*
X190193435Y-120431125D01*
X190223778Y-120438725D01*
X190253230Y-120449263D01*
X190281508Y-120462638D01*
X190308338Y-120478719D01*
X190333463Y-120497353D01*
X190356640Y-120518360D01*
X190377647Y-120541537D01*
X190396281Y-120566662D01*
X190412362Y-120593492D01*
X190425737Y-120621770D01*
X190436275Y-120651222D01*
X190443875Y-120681565D01*
X190448465Y-120712507D01*
X190450000Y-120743750D01*
X190450000Y-121456250D01*
X190448465Y-121487493D01*
X190443875Y-121518435D01*
X190436275Y-121548778D01*
X190425737Y-121578230D01*
X190412362Y-121606508D01*
X190396281Y-121633338D01*
X190377647Y-121658463D01*
X190356640Y-121681640D01*
X190333463Y-121702647D01*
X190308338Y-121721281D01*
X190281508Y-121737362D01*
X190253230Y-121750737D01*
X190223778Y-121761275D01*
X190193435Y-121768875D01*
X190162493Y-121773465D01*
X190131250Y-121775000D01*
X189493750Y-121775000D01*
X189462507Y-121773465D01*
X189431565Y-121768875D01*
X189401222Y-121761275D01*
X189371770Y-121750737D01*
X189343492Y-121737362D01*
X189316662Y-121721281D01*
X189291537Y-121702647D01*
X189268360Y-121681640D01*
X189247353Y-121658463D01*
X189228719Y-121633338D01*
X189212638Y-121606508D01*
X189199263Y-121578230D01*
X189188725Y-121548778D01*
X189181125Y-121518435D01*
X189176535Y-121487493D01*
X189175000Y-121456250D01*
X189175000Y-120743750D01*
X189176535Y-120712507D01*
X189181125Y-120681565D01*
X189188725Y-120651222D01*
X189199263Y-120621770D01*
X189212638Y-120593492D01*
X189228719Y-120566662D01*
X189247353Y-120541537D01*
X189268360Y-120518360D01*
X189291537Y-120497353D01*
X189316662Y-120478719D01*
X189343492Y-120462638D01*
X189371770Y-120449263D01*
X189401222Y-120438725D01*
X189431565Y-120431125D01*
X189462507Y-120426535D01*
X189493750Y-120425000D01*
X190131250Y-120425000D01*
X190162493Y-120426535D01*
X190162493Y-120426535D01*
G37*
D13*
X189812500Y-121100000D03*
D12*
G36*
X206337493Y-118726535D02*
G01*
X206368435Y-118731125D01*
X206398778Y-118738725D01*
X206428230Y-118749263D01*
X206456508Y-118762638D01*
X206483338Y-118778719D01*
X206508463Y-118797353D01*
X206531640Y-118818360D01*
X206552647Y-118841537D01*
X206571281Y-118866662D01*
X206587362Y-118893492D01*
X206600737Y-118921770D01*
X206611275Y-118951222D01*
X206618875Y-118981565D01*
X206623465Y-119012507D01*
X206625000Y-119043750D01*
X206625000Y-119756250D01*
X206623465Y-119787493D01*
X206618875Y-119818435D01*
X206611275Y-119848778D01*
X206600737Y-119878230D01*
X206587362Y-119906508D01*
X206571281Y-119933338D01*
X206552647Y-119958463D01*
X206531640Y-119981640D01*
X206508463Y-120002647D01*
X206483338Y-120021281D01*
X206456508Y-120037362D01*
X206428230Y-120050737D01*
X206398778Y-120061275D01*
X206368435Y-120068875D01*
X206337493Y-120073465D01*
X206306250Y-120075000D01*
X205668750Y-120075000D01*
X205637507Y-120073465D01*
X205606565Y-120068875D01*
X205576222Y-120061275D01*
X205546770Y-120050737D01*
X205518492Y-120037362D01*
X205491662Y-120021281D01*
X205466537Y-120002647D01*
X205443360Y-119981640D01*
X205422353Y-119958463D01*
X205403719Y-119933338D01*
X205387638Y-119906508D01*
X205374263Y-119878230D01*
X205363725Y-119848778D01*
X205356125Y-119818435D01*
X205351535Y-119787493D01*
X205350000Y-119756250D01*
X205350000Y-119043750D01*
X205351535Y-119012507D01*
X205356125Y-118981565D01*
X205363725Y-118951222D01*
X205374263Y-118921770D01*
X205387638Y-118893492D01*
X205403719Y-118866662D01*
X205422353Y-118841537D01*
X205443360Y-118818360D01*
X205466537Y-118797353D01*
X205491662Y-118778719D01*
X205518492Y-118762638D01*
X205546770Y-118749263D01*
X205576222Y-118738725D01*
X205606565Y-118731125D01*
X205637507Y-118726535D01*
X205668750Y-118725000D01*
X206306250Y-118725000D01*
X206337493Y-118726535D01*
X206337493Y-118726535D01*
G37*
D13*
X205987500Y-119400000D03*
D12*
G36*
X204762493Y-118726535D02*
G01*
X204793435Y-118731125D01*
X204823778Y-118738725D01*
X204853230Y-118749263D01*
X204881508Y-118762638D01*
X204908338Y-118778719D01*
X204933463Y-118797353D01*
X204956640Y-118818360D01*
X204977647Y-118841537D01*
X204996281Y-118866662D01*
X205012362Y-118893492D01*
X205025737Y-118921770D01*
X205036275Y-118951222D01*
X205043875Y-118981565D01*
X205048465Y-119012507D01*
X205050000Y-119043750D01*
X205050000Y-119756250D01*
X205048465Y-119787493D01*
X205043875Y-119818435D01*
X205036275Y-119848778D01*
X205025737Y-119878230D01*
X205012362Y-119906508D01*
X204996281Y-119933338D01*
X204977647Y-119958463D01*
X204956640Y-119981640D01*
X204933463Y-120002647D01*
X204908338Y-120021281D01*
X204881508Y-120037362D01*
X204853230Y-120050737D01*
X204823778Y-120061275D01*
X204793435Y-120068875D01*
X204762493Y-120073465D01*
X204731250Y-120075000D01*
X204093750Y-120075000D01*
X204062507Y-120073465D01*
X204031565Y-120068875D01*
X204001222Y-120061275D01*
X203971770Y-120050737D01*
X203943492Y-120037362D01*
X203916662Y-120021281D01*
X203891537Y-120002647D01*
X203868360Y-119981640D01*
X203847353Y-119958463D01*
X203828719Y-119933338D01*
X203812638Y-119906508D01*
X203799263Y-119878230D01*
X203788725Y-119848778D01*
X203781125Y-119818435D01*
X203776535Y-119787493D01*
X203775000Y-119756250D01*
X203775000Y-119043750D01*
X203776535Y-119012507D01*
X203781125Y-118981565D01*
X203788725Y-118951222D01*
X203799263Y-118921770D01*
X203812638Y-118893492D01*
X203828719Y-118866662D01*
X203847353Y-118841537D01*
X203868360Y-118818360D01*
X203891537Y-118797353D01*
X203916662Y-118778719D01*
X203943492Y-118762638D01*
X203971770Y-118749263D01*
X204001222Y-118738725D01*
X204031565Y-118731125D01*
X204062507Y-118726535D01*
X204093750Y-118725000D01*
X204731250Y-118725000D01*
X204762493Y-118726535D01*
X204762493Y-118726535D01*
G37*
D13*
X204412500Y-119400000D03*
D12*
G36*
X201462493Y-118726535D02*
G01*
X201493435Y-118731125D01*
X201523778Y-118738725D01*
X201553230Y-118749263D01*
X201581508Y-118762638D01*
X201608338Y-118778719D01*
X201633463Y-118797353D01*
X201656640Y-118818360D01*
X201677647Y-118841537D01*
X201696281Y-118866662D01*
X201712362Y-118893492D01*
X201725737Y-118921770D01*
X201736275Y-118951222D01*
X201743875Y-118981565D01*
X201748465Y-119012507D01*
X201750000Y-119043750D01*
X201750000Y-119756250D01*
X201748465Y-119787493D01*
X201743875Y-119818435D01*
X201736275Y-119848778D01*
X201725737Y-119878230D01*
X201712362Y-119906508D01*
X201696281Y-119933338D01*
X201677647Y-119958463D01*
X201656640Y-119981640D01*
X201633463Y-120002647D01*
X201608338Y-120021281D01*
X201581508Y-120037362D01*
X201553230Y-120050737D01*
X201523778Y-120061275D01*
X201493435Y-120068875D01*
X201462493Y-120073465D01*
X201431250Y-120075000D01*
X200793750Y-120075000D01*
X200762507Y-120073465D01*
X200731565Y-120068875D01*
X200701222Y-120061275D01*
X200671770Y-120050737D01*
X200643492Y-120037362D01*
X200616662Y-120021281D01*
X200591537Y-120002647D01*
X200568360Y-119981640D01*
X200547353Y-119958463D01*
X200528719Y-119933338D01*
X200512638Y-119906508D01*
X200499263Y-119878230D01*
X200488725Y-119848778D01*
X200481125Y-119818435D01*
X200476535Y-119787493D01*
X200475000Y-119756250D01*
X200475000Y-119043750D01*
X200476535Y-119012507D01*
X200481125Y-118981565D01*
X200488725Y-118951222D01*
X200499263Y-118921770D01*
X200512638Y-118893492D01*
X200528719Y-118866662D01*
X200547353Y-118841537D01*
X200568360Y-118818360D01*
X200591537Y-118797353D01*
X200616662Y-118778719D01*
X200643492Y-118762638D01*
X200671770Y-118749263D01*
X200701222Y-118738725D01*
X200731565Y-118731125D01*
X200762507Y-118726535D01*
X200793750Y-118725000D01*
X201431250Y-118725000D01*
X201462493Y-118726535D01*
X201462493Y-118726535D01*
G37*
D13*
X201112500Y-119400000D03*
D12*
G36*
X203037493Y-118726535D02*
G01*
X203068435Y-118731125D01*
X203098778Y-118738725D01*
X203128230Y-118749263D01*
X203156508Y-118762638D01*
X203183338Y-118778719D01*
X203208463Y-118797353D01*
X203231640Y-118818360D01*
X203252647Y-118841537D01*
X203271281Y-118866662D01*
X203287362Y-118893492D01*
X203300737Y-118921770D01*
X203311275Y-118951222D01*
X203318875Y-118981565D01*
X203323465Y-119012507D01*
X203325000Y-119043750D01*
X203325000Y-119756250D01*
X203323465Y-119787493D01*
X203318875Y-119818435D01*
X203311275Y-119848778D01*
X203300737Y-119878230D01*
X203287362Y-119906508D01*
X203271281Y-119933338D01*
X203252647Y-119958463D01*
X203231640Y-119981640D01*
X203208463Y-120002647D01*
X203183338Y-120021281D01*
X203156508Y-120037362D01*
X203128230Y-120050737D01*
X203098778Y-120061275D01*
X203068435Y-120068875D01*
X203037493Y-120073465D01*
X203006250Y-120075000D01*
X202368750Y-120075000D01*
X202337507Y-120073465D01*
X202306565Y-120068875D01*
X202276222Y-120061275D01*
X202246770Y-120050737D01*
X202218492Y-120037362D01*
X202191662Y-120021281D01*
X202166537Y-120002647D01*
X202143360Y-119981640D01*
X202122353Y-119958463D01*
X202103719Y-119933338D01*
X202087638Y-119906508D01*
X202074263Y-119878230D01*
X202063725Y-119848778D01*
X202056125Y-119818435D01*
X202051535Y-119787493D01*
X202050000Y-119756250D01*
X202050000Y-119043750D01*
X202051535Y-119012507D01*
X202056125Y-118981565D01*
X202063725Y-118951222D01*
X202074263Y-118921770D01*
X202087638Y-118893492D01*
X202103719Y-118866662D01*
X202122353Y-118841537D01*
X202143360Y-118818360D01*
X202166537Y-118797353D01*
X202191662Y-118778719D01*
X202218492Y-118762638D01*
X202246770Y-118749263D01*
X202276222Y-118738725D01*
X202306565Y-118731125D01*
X202337507Y-118726535D01*
X202368750Y-118725000D01*
X203006250Y-118725000D01*
X203037493Y-118726535D01*
X203037493Y-118726535D01*
G37*
D13*
X202687500Y-119400000D03*
D12*
G36*
X186337493Y-116526535D02*
G01*
X186368435Y-116531125D01*
X186398778Y-116538725D01*
X186428230Y-116549263D01*
X186456508Y-116562638D01*
X186483338Y-116578719D01*
X186508463Y-116597353D01*
X186531640Y-116618360D01*
X186552647Y-116641537D01*
X186571281Y-116666662D01*
X186587362Y-116693492D01*
X186600737Y-116721770D01*
X186611275Y-116751222D01*
X186618875Y-116781565D01*
X186623465Y-116812507D01*
X186625000Y-116843750D01*
X186625000Y-117556250D01*
X186623465Y-117587493D01*
X186618875Y-117618435D01*
X186611275Y-117648778D01*
X186600737Y-117678230D01*
X186587362Y-117706508D01*
X186571281Y-117733338D01*
X186552647Y-117758463D01*
X186531640Y-117781640D01*
X186508463Y-117802647D01*
X186483338Y-117821281D01*
X186456508Y-117837362D01*
X186428230Y-117850737D01*
X186398778Y-117861275D01*
X186368435Y-117868875D01*
X186337493Y-117873465D01*
X186306250Y-117875000D01*
X185668750Y-117875000D01*
X185637507Y-117873465D01*
X185606565Y-117868875D01*
X185576222Y-117861275D01*
X185546770Y-117850737D01*
X185518492Y-117837362D01*
X185491662Y-117821281D01*
X185466537Y-117802647D01*
X185443360Y-117781640D01*
X185422353Y-117758463D01*
X185403719Y-117733338D01*
X185387638Y-117706508D01*
X185374263Y-117678230D01*
X185363725Y-117648778D01*
X185356125Y-117618435D01*
X185351535Y-117587493D01*
X185350000Y-117556250D01*
X185350000Y-116843750D01*
X185351535Y-116812507D01*
X185356125Y-116781565D01*
X185363725Y-116751222D01*
X185374263Y-116721770D01*
X185387638Y-116693492D01*
X185403719Y-116666662D01*
X185422353Y-116641537D01*
X185443360Y-116618360D01*
X185466537Y-116597353D01*
X185491662Y-116578719D01*
X185518492Y-116562638D01*
X185546770Y-116549263D01*
X185576222Y-116538725D01*
X185606565Y-116531125D01*
X185637507Y-116526535D01*
X185668750Y-116525000D01*
X186306250Y-116525000D01*
X186337493Y-116526535D01*
X186337493Y-116526535D01*
G37*
D13*
X185987500Y-117200000D03*
D12*
G36*
X184762493Y-116526535D02*
G01*
X184793435Y-116531125D01*
X184823778Y-116538725D01*
X184853230Y-116549263D01*
X184881508Y-116562638D01*
X184908338Y-116578719D01*
X184933463Y-116597353D01*
X184956640Y-116618360D01*
X184977647Y-116641537D01*
X184996281Y-116666662D01*
X185012362Y-116693492D01*
X185025737Y-116721770D01*
X185036275Y-116751222D01*
X185043875Y-116781565D01*
X185048465Y-116812507D01*
X185050000Y-116843750D01*
X185050000Y-117556250D01*
X185048465Y-117587493D01*
X185043875Y-117618435D01*
X185036275Y-117648778D01*
X185025737Y-117678230D01*
X185012362Y-117706508D01*
X184996281Y-117733338D01*
X184977647Y-117758463D01*
X184956640Y-117781640D01*
X184933463Y-117802647D01*
X184908338Y-117821281D01*
X184881508Y-117837362D01*
X184853230Y-117850737D01*
X184823778Y-117861275D01*
X184793435Y-117868875D01*
X184762493Y-117873465D01*
X184731250Y-117875000D01*
X184093750Y-117875000D01*
X184062507Y-117873465D01*
X184031565Y-117868875D01*
X184001222Y-117861275D01*
X183971770Y-117850737D01*
X183943492Y-117837362D01*
X183916662Y-117821281D01*
X183891537Y-117802647D01*
X183868360Y-117781640D01*
X183847353Y-117758463D01*
X183828719Y-117733338D01*
X183812638Y-117706508D01*
X183799263Y-117678230D01*
X183788725Y-117648778D01*
X183781125Y-117618435D01*
X183776535Y-117587493D01*
X183775000Y-117556250D01*
X183775000Y-116843750D01*
X183776535Y-116812507D01*
X183781125Y-116781565D01*
X183788725Y-116751222D01*
X183799263Y-116721770D01*
X183812638Y-116693492D01*
X183828719Y-116666662D01*
X183847353Y-116641537D01*
X183868360Y-116618360D01*
X183891537Y-116597353D01*
X183916662Y-116578719D01*
X183943492Y-116562638D01*
X183971770Y-116549263D01*
X184001222Y-116538725D01*
X184031565Y-116531125D01*
X184062507Y-116526535D01*
X184093750Y-116525000D01*
X184731250Y-116525000D01*
X184762493Y-116526535D01*
X184762493Y-116526535D01*
G37*
D13*
X184412500Y-117200000D03*
D12*
G36*
X193462493Y-118726535D02*
G01*
X193493435Y-118731125D01*
X193523778Y-118738725D01*
X193553230Y-118749263D01*
X193581508Y-118762638D01*
X193608338Y-118778719D01*
X193633463Y-118797353D01*
X193656640Y-118818360D01*
X193677647Y-118841537D01*
X193696281Y-118866662D01*
X193712362Y-118893492D01*
X193725737Y-118921770D01*
X193736275Y-118951222D01*
X193743875Y-118981565D01*
X193748465Y-119012507D01*
X193750000Y-119043750D01*
X193750000Y-119756250D01*
X193748465Y-119787493D01*
X193743875Y-119818435D01*
X193736275Y-119848778D01*
X193725737Y-119878230D01*
X193712362Y-119906508D01*
X193696281Y-119933338D01*
X193677647Y-119958463D01*
X193656640Y-119981640D01*
X193633463Y-120002647D01*
X193608338Y-120021281D01*
X193581508Y-120037362D01*
X193553230Y-120050737D01*
X193523778Y-120061275D01*
X193493435Y-120068875D01*
X193462493Y-120073465D01*
X193431250Y-120075000D01*
X192793750Y-120075000D01*
X192762507Y-120073465D01*
X192731565Y-120068875D01*
X192701222Y-120061275D01*
X192671770Y-120050737D01*
X192643492Y-120037362D01*
X192616662Y-120021281D01*
X192591537Y-120002647D01*
X192568360Y-119981640D01*
X192547353Y-119958463D01*
X192528719Y-119933338D01*
X192512638Y-119906508D01*
X192499263Y-119878230D01*
X192488725Y-119848778D01*
X192481125Y-119818435D01*
X192476535Y-119787493D01*
X192475000Y-119756250D01*
X192475000Y-119043750D01*
X192476535Y-119012507D01*
X192481125Y-118981565D01*
X192488725Y-118951222D01*
X192499263Y-118921770D01*
X192512638Y-118893492D01*
X192528719Y-118866662D01*
X192547353Y-118841537D01*
X192568360Y-118818360D01*
X192591537Y-118797353D01*
X192616662Y-118778719D01*
X192643492Y-118762638D01*
X192671770Y-118749263D01*
X192701222Y-118738725D01*
X192731565Y-118731125D01*
X192762507Y-118726535D01*
X192793750Y-118725000D01*
X193431250Y-118725000D01*
X193462493Y-118726535D01*
X193462493Y-118726535D01*
G37*
D13*
X193112500Y-119400000D03*
D12*
G36*
X195037493Y-118726535D02*
G01*
X195068435Y-118731125D01*
X195098778Y-118738725D01*
X195128230Y-118749263D01*
X195156508Y-118762638D01*
X195183338Y-118778719D01*
X195208463Y-118797353D01*
X195231640Y-118818360D01*
X195252647Y-118841537D01*
X195271281Y-118866662D01*
X195287362Y-118893492D01*
X195300737Y-118921770D01*
X195311275Y-118951222D01*
X195318875Y-118981565D01*
X195323465Y-119012507D01*
X195325000Y-119043750D01*
X195325000Y-119756250D01*
X195323465Y-119787493D01*
X195318875Y-119818435D01*
X195311275Y-119848778D01*
X195300737Y-119878230D01*
X195287362Y-119906508D01*
X195271281Y-119933338D01*
X195252647Y-119958463D01*
X195231640Y-119981640D01*
X195208463Y-120002647D01*
X195183338Y-120021281D01*
X195156508Y-120037362D01*
X195128230Y-120050737D01*
X195098778Y-120061275D01*
X195068435Y-120068875D01*
X195037493Y-120073465D01*
X195006250Y-120075000D01*
X194368750Y-120075000D01*
X194337507Y-120073465D01*
X194306565Y-120068875D01*
X194276222Y-120061275D01*
X194246770Y-120050737D01*
X194218492Y-120037362D01*
X194191662Y-120021281D01*
X194166537Y-120002647D01*
X194143360Y-119981640D01*
X194122353Y-119958463D01*
X194103719Y-119933338D01*
X194087638Y-119906508D01*
X194074263Y-119878230D01*
X194063725Y-119848778D01*
X194056125Y-119818435D01*
X194051535Y-119787493D01*
X194050000Y-119756250D01*
X194050000Y-119043750D01*
X194051535Y-119012507D01*
X194056125Y-118981565D01*
X194063725Y-118951222D01*
X194074263Y-118921770D01*
X194087638Y-118893492D01*
X194103719Y-118866662D01*
X194122353Y-118841537D01*
X194143360Y-118818360D01*
X194166537Y-118797353D01*
X194191662Y-118778719D01*
X194218492Y-118762638D01*
X194246770Y-118749263D01*
X194276222Y-118738725D01*
X194306565Y-118731125D01*
X194337507Y-118726535D01*
X194368750Y-118725000D01*
X195006250Y-118725000D01*
X195037493Y-118726535D01*
X195037493Y-118726535D01*
G37*
D13*
X194687500Y-119400000D03*
D12*
G36*
X191737493Y-118726535D02*
G01*
X191768435Y-118731125D01*
X191798778Y-118738725D01*
X191828230Y-118749263D01*
X191856508Y-118762638D01*
X191883338Y-118778719D01*
X191908463Y-118797353D01*
X191931640Y-118818360D01*
X191952647Y-118841537D01*
X191971281Y-118866662D01*
X191987362Y-118893492D01*
X192000737Y-118921770D01*
X192011275Y-118951222D01*
X192018875Y-118981565D01*
X192023465Y-119012507D01*
X192025000Y-119043750D01*
X192025000Y-119756250D01*
X192023465Y-119787493D01*
X192018875Y-119818435D01*
X192011275Y-119848778D01*
X192000737Y-119878230D01*
X191987362Y-119906508D01*
X191971281Y-119933338D01*
X191952647Y-119958463D01*
X191931640Y-119981640D01*
X191908463Y-120002647D01*
X191883338Y-120021281D01*
X191856508Y-120037362D01*
X191828230Y-120050737D01*
X191798778Y-120061275D01*
X191768435Y-120068875D01*
X191737493Y-120073465D01*
X191706250Y-120075000D01*
X191068750Y-120075000D01*
X191037507Y-120073465D01*
X191006565Y-120068875D01*
X190976222Y-120061275D01*
X190946770Y-120050737D01*
X190918492Y-120037362D01*
X190891662Y-120021281D01*
X190866537Y-120002647D01*
X190843360Y-119981640D01*
X190822353Y-119958463D01*
X190803719Y-119933338D01*
X190787638Y-119906508D01*
X190774263Y-119878230D01*
X190763725Y-119848778D01*
X190756125Y-119818435D01*
X190751535Y-119787493D01*
X190750000Y-119756250D01*
X190750000Y-119043750D01*
X190751535Y-119012507D01*
X190756125Y-118981565D01*
X190763725Y-118951222D01*
X190774263Y-118921770D01*
X190787638Y-118893492D01*
X190803719Y-118866662D01*
X190822353Y-118841537D01*
X190843360Y-118818360D01*
X190866537Y-118797353D01*
X190891662Y-118778719D01*
X190918492Y-118762638D01*
X190946770Y-118749263D01*
X190976222Y-118738725D01*
X191006565Y-118731125D01*
X191037507Y-118726535D01*
X191068750Y-118725000D01*
X191706250Y-118725000D01*
X191737493Y-118726535D01*
X191737493Y-118726535D01*
G37*
D13*
X191387500Y-119400000D03*
D12*
G36*
X190162493Y-118726535D02*
G01*
X190193435Y-118731125D01*
X190223778Y-118738725D01*
X190253230Y-118749263D01*
X190281508Y-118762638D01*
X190308338Y-118778719D01*
X190333463Y-118797353D01*
X190356640Y-118818360D01*
X190377647Y-118841537D01*
X190396281Y-118866662D01*
X190412362Y-118893492D01*
X190425737Y-118921770D01*
X190436275Y-118951222D01*
X190443875Y-118981565D01*
X190448465Y-119012507D01*
X190450000Y-119043750D01*
X190450000Y-119756250D01*
X190448465Y-119787493D01*
X190443875Y-119818435D01*
X190436275Y-119848778D01*
X190425737Y-119878230D01*
X190412362Y-119906508D01*
X190396281Y-119933338D01*
X190377647Y-119958463D01*
X190356640Y-119981640D01*
X190333463Y-120002647D01*
X190308338Y-120021281D01*
X190281508Y-120037362D01*
X190253230Y-120050737D01*
X190223778Y-120061275D01*
X190193435Y-120068875D01*
X190162493Y-120073465D01*
X190131250Y-120075000D01*
X189493750Y-120075000D01*
X189462507Y-120073465D01*
X189431565Y-120068875D01*
X189401222Y-120061275D01*
X189371770Y-120050737D01*
X189343492Y-120037362D01*
X189316662Y-120021281D01*
X189291537Y-120002647D01*
X189268360Y-119981640D01*
X189247353Y-119958463D01*
X189228719Y-119933338D01*
X189212638Y-119906508D01*
X189199263Y-119878230D01*
X189188725Y-119848778D01*
X189181125Y-119818435D01*
X189176535Y-119787493D01*
X189175000Y-119756250D01*
X189175000Y-119043750D01*
X189176535Y-119012507D01*
X189181125Y-118981565D01*
X189188725Y-118951222D01*
X189199263Y-118921770D01*
X189212638Y-118893492D01*
X189228719Y-118866662D01*
X189247353Y-118841537D01*
X189268360Y-118818360D01*
X189291537Y-118797353D01*
X189316662Y-118778719D01*
X189343492Y-118762638D01*
X189371770Y-118749263D01*
X189401222Y-118738725D01*
X189431565Y-118731125D01*
X189462507Y-118726535D01*
X189493750Y-118725000D01*
X190131250Y-118725000D01*
X190162493Y-118726535D01*
X190162493Y-118726535D01*
G37*
D13*
X189812500Y-119400000D03*
D12*
G36*
X184762493Y-119326535D02*
G01*
X184793435Y-119331125D01*
X184823778Y-119338725D01*
X184853230Y-119349263D01*
X184881508Y-119362638D01*
X184908338Y-119378719D01*
X184933463Y-119397353D01*
X184956640Y-119418360D01*
X184977647Y-119441537D01*
X184996281Y-119466662D01*
X185012362Y-119493492D01*
X185025737Y-119521770D01*
X185036275Y-119551222D01*
X185043875Y-119581565D01*
X185048465Y-119612507D01*
X185050000Y-119643750D01*
X185050000Y-120356250D01*
X185048465Y-120387493D01*
X185043875Y-120418435D01*
X185036275Y-120448778D01*
X185025737Y-120478230D01*
X185012362Y-120506508D01*
X184996281Y-120533338D01*
X184977647Y-120558463D01*
X184956640Y-120581640D01*
X184933463Y-120602647D01*
X184908338Y-120621281D01*
X184881508Y-120637362D01*
X184853230Y-120650737D01*
X184823778Y-120661275D01*
X184793435Y-120668875D01*
X184762493Y-120673465D01*
X184731250Y-120675000D01*
X184093750Y-120675000D01*
X184062507Y-120673465D01*
X184031565Y-120668875D01*
X184001222Y-120661275D01*
X183971770Y-120650737D01*
X183943492Y-120637362D01*
X183916662Y-120621281D01*
X183891537Y-120602647D01*
X183868360Y-120581640D01*
X183847353Y-120558463D01*
X183828719Y-120533338D01*
X183812638Y-120506508D01*
X183799263Y-120478230D01*
X183788725Y-120448778D01*
X183781125Y-120418435D01*
X183776535Y-120387493D01*
X183775000Y-120356250D01*
X183775000Y-119643750D01*
X183776535Y-119612507D01*
X183781125Y-119581565D01*
X183788725Y-119551222D01*
X183799263Y-119521770D01*
X183812638Y-119493492D01*
X183828719Y-119466662D01*
X183847353Y-119441537D01*
X183868360Y-119418360D01*
X183891537Y-119397353D01*
X183916662Y-119378719D01*
X183943492Y-119362638D01*
X183971770Y-119349263D01*
X184001222Y-119338725D01*
X184031565Y-119331125D01*
X184062507Y-119326535D01*
X184093750Y-119325000D01*
X184731250Y-119325000D01*
X184762493Y-119326535D01*
X184762493Y-119326535D01*
G37*
D13*
X184412500Y-120000000D03*
D12*
G36*
X186337493Y-119326535D02*
G01*
X186368435Y-119331125D01*
X186398778Y-119338725D01*
X186428230Y-119349263D01*
X186456508Y-119362638D01*
X186483338Y-119378719D01*
X186508463Y-119397353D01*
X186531640Y-119418360D01*
X186552647Y-119441537D01*
X186571281Y-119466662D01*
X186587362Y-119493492D01*
X186600737Y-119521770D01*
X186611275Y-119551222D01*
X186618875Y-119581565D01*
X186623465Y-119612507D01*
X186625000Y-119643750D01*
X186625000Y-120356250D01*
X186623465Y-120387493D01*
X186618875Y-120418435D01*
X186611275Y-120448778D01*
X186600737Y-120478230D01*
X186587362Y-120506508D01*
X186571281Y-120533338D01*
X186552647Y-120558463D01*
X186531640Y-120581640D01*
X186508463Y-120602647D01*
X186483338Y-120621281D01*
X186456508Y-120637362D01*
X186428230Y-120650737D01*
X186398778Y-120661275D01*
X186368435Y-120668875D01*
X186337493Y-120673465D01*
X186306250Y-120675000D01*
X185668750Y-120675000D01*
X185637507Y-120673465D01*
X185606565Y-120668875D01*
X185576222Y-120661275D01*
X185546770Y-120650737D01*
X185518492Y-120637362D01*
X185491662Y-120621281D01*
X185466537Y-120602647D01*
X185443360Y-120581640D01*
X185422353Y-120558463D01*
X185403719Y-120533338D01*
X185387638Y-120506508D01*
X185374263Y-120478230D01*
X185363725Y-120448778D01*
X185356125Y-120418435D01*
X185351535Y-120387493D01*
X185350000Y-120356250D01*
X185350000Y-119643750D01*
X185351535Y-119612507D01*
X185356125Y-119581565D01*
X185363725Y-119551222D01*
X185374263Y-119521770D01*
X185387638Y-119493492D01*
X185403719Y-119466662D01*
X185422353Y-119441537D01*
X185443360Y-119418360D01*
X185466537Y-119397353D01*
X185491662Y-119378719D01*
X185518492Y-119362638D01*
X185546770Y-119349263D01*
X185576222Y-119338725D01*
X185606565Y-119331125D01*
X185637507Y-119326535D01*
X185668750Y-119325000D01*
X186306250Y-119325000D01*
X186337493Y-119326535D01*
X186337493Y-119326535D01*
G37*
D13*
X185987500Y-120000000D03*
D12*
G36*
X206337493Y-120426535D02*
G01*
X206368435Y-120431125D01*
X206398778Y-120438725D01*
X206428230Y-120449263D01*
X206456508Y-120462638D01*
X206483338Y-120478719D01*
X206508463Y-120497353D01*
X206531640Y-120518360D01*
X206552647Y-120541537D01*
X206571281Y-120566662D01*
X206587362Y-120593492D01*
X206600737Y-120621770D01*
X206611275Y-120651222D01*
X206618875Y-120681565D01*
X206623465Y-120712507D01*
X206625000Y-120743750D01*
X206625000Y-121456250D01*
X206623465Y-121487493D01*
X206618875Y-121518435D01*
X206611275Y-121548778D01*
X206600737Y-121578230D01*
X206587362Y-121606508D01*
X206571281Y-121633338D01*
X206552647Y-121658463D01*
X206531640Y-121681640D01*
X206508463Y-121702647D01*
X206483338Y-121721281D01*
X206456508Y-121737362D01*
X206428230Y-121750737D01*
X206398778Y-121761275D01*
X206368435Y-121768875D01*
X206337493Y-121773465D01*
X206306250Y-121775000D01*
X205668750Y-121775000D01*
X205637507Y-121773465D01*
X205606565Y-121768875D01*
X205576222Y-121761275D01*
X205546770Y-121750737D01*
X205518492Y-121737362D01*
X205491662Y-121721281D01*
X205466537Y-121702647D01*
X205443360Y-121681640D01*
X205422353Y-121658463D01*
X205403719Y-121633338D01*
X205387638Y-121606508D01*
X205374263Y-121578230D01*
X205363725Y-121548778D01*
X205356125Y-121518435D01*
X205351535Y-121487493D01*
X205350000Y-121456250D01*
X205350000Y-120743750D01*
X205351535Y-120712507D01*
X205356125Y-120681565D01*
X205363725Y-120651222D01*
X205374263Y-120621770D01*
X205387638Y-120593492D01*
X205403719Y-120566662D01*
X205422353Y-120541537D01*
X205443360Y-120518360D01*
X205466537Y-120497353D01*
X205491662Y-120478719D01*
X205518492Y-120462638D01*
X205546770Y-120449263D01*
X205576222Y-120438725D01*
X205606565Y-120431125D01*
X205637507Y-120426535D01*
X205668750Y-120425000D01*
X206306250Y-120425000D01*
X206337493Y-120426535D01*
X206337493Y-120426535D01*
G37*
D13*
X205987500Y-121100000D03*
D12*
G36*
X204762493Y-120426535D02*
G01*
X204793435Y-120431125D01*
X204823778Y-120438725D01*
X204853230Y-120449263D01*
X204881508Y-120462638D01*
X204908338Y-120478719D01*
X204933463Y-120497353D01*
X204956640Y-120518360D01*
X204977647Y-120541537D01*
X204996281Y-120566662D01*
X205012362Y-120593492D01*
X205025737Y-120621770D01*
X205036275Y-120651222D01*
X205043875Y-120681565D01*
X205048465Y-120712507D01*
X205050000Y-120743750D01*
X205050000Y-121456250D01*
X205048465Y-121487493D01*
X205043875Y-121518435D01*
X205036275Y-121548778D01*
X205025737Y-121578230D01*
X205012362Y-121606508D01*
X204996281Y-121633338D01*
X204977647Y-121658463D01*
X204956640Y-121681640D01*
X204933463Y-121702647D01*
X204908338Y-121721281D01*
X204881508Y-121737362D01*
X204853230Y-121750737D01*
X204823778Y-121761275D01*
X204793435Y-121768875D01*
X204762493Y-121773465D01*
X204731250Y-121775000D01*
X204093750Y-121775000D01*
X204062507Y-121773465D01*
X204031565Y-121768875D01*
X204001222Y-121761275D01*
X203971770Y-121750737D01*
X203943492Y-121737362D01*
X203916662Y-121721281D01*
X203891537Y-121702647D01*
X203868360Y-121681640D01*
X203847353Y-121658463D01*
X203828719Y-121633338D01*
X203812638Y-121606508D01*
X203799263Y-121578230D01*
X203788725Y-121548778D01*
X203781125Y-121518435D01*
X203776535Y-121487493D01*
X203775000Y-121456250D01*
X203775000Y-120743750D01*
X203776535Y-120712507D01*
X203781125Y-120681565D01*
X203788725Y-120651222D01*
X203799263Y-120621770D01*
X203812638Y-120593492D01*
X203828719Y-120566662D01*
X203847353Y-120541537D01*
X203868360Y-120518360D01*
X203891537Y-120497353D01*
X203916662Y-120478719D01*
X203943492Y-120462638D01*
X203971770Y-120449263D01*
X204001222Y-120438725D01*
X204031565Y-120431125D01*
X204062507Y-120426535D01*
X204093750Y-120425000D01*
X204731250Y-120425000D01*
X204762493Y-120426535D01*
X204762493Y-120426535D01*
G37*
D13*
X204412500Y-121100000D03*
D12*
G36*
X201462493Y-120426535D02*
G01*
X201493435Y-120431125D01*
X201523778Y-120438725D01*
X201553230Y-120449263D01*
X201581508Y-120462638D01*
X201608338Y-120478719D01*
X201633463Y-120497353D01*
X201656640Y-120518360D01*
X201677647Y-120541537D01*
X201696281Y-120566662D01*
X201712362Y-120593492D01*
X201725737Y-120621770D01*
X201736275Y-120651222D01*
X201743875Y-120681565D01*
X201748465Y-120712507D01*
X201750000Y-120743750D01*
X201750000Y-121456250D01*
X201748465Y-121487493D01*
X201743875Y-121518435D01*
X201736275Y-121548778D01*
X201725737Y-121578230D01*
X201712362Y-121606508D01*
X201696281Y-121633338D01*
X201677647Y-121658463D01*
X201656640Y-121681640D01*
X201633463Y-121702647D01*
X201608338Y-121721281D01*
X201581508Y-121737362D01*
X201553230Y-121750737D01*
X201523778Y-121761275D01*
X201493435Y-121768875D01*
X201462493Y-121773465D01*
X201431250Y-121775000D01*
X200793750Y-121775000D01*
X200762507Y-121773465D01*
X200731565Y-121768875D01*
X200701222Y-121761275D01*
X200671770Y-121750737D01*
X200643492Y-121737362D01*
X200616662Y-121721281D01*
X200591537Y-121702647D01*
X200568360Y-121681640D01*
X200547353Y-121658463D01*
X200528719Y-121633338D01*
X200512638Y-121606508D01*
X200499263Y-121578230D01*
X200488725Y-121548778D01*
X200481125Y-121518435D01*
X200476535Y-121487493D01*
X200475000Y-121456250D01*
X200475000Y-120743750D01*
X200476535Y-120712507D01*
X200481125Y-120681565D01*
X200488725Y-120651222D01*
X200499263Y-120621770D01*
X200512638Y-120593492D01*
X200528719Y-120566662D01*
X200547353Y-120541537D01*
X200568360Y-120518360D01*
X200591537Y-120497353D01*
X200616662Y-120478719D01*
X200643492Y-120462638D01*
X200671770Y-120449263D01*
X200701222Y-120438725D01*
X200731565Y-120431125D01*
X200762507Y-120426535D01*
X200793750Y-120425000D01*
X201431250Y-120425000D01*
X201462493Y-120426535D01*
X201462493Y-120426535D01*
G37*
D13*
X201112500Y-121100000D03*
D12*
G36*
X203037493Y-120426535D02*
G01*
X203068435Y-120431125D01*
X203098778Y-120438725D01*
X203128230Y-120449263D01*
X203156508Y-120462638D01*
X203183338Y-120478719D01*
X203208463Y-120497353D01*
X203231640Y-120518360D01*
X203252647Y-120541537D01*
X203271281Y-120566662D01*
X203287362Y-120593492D01*
X203300737Y-120621770D01*
X203311275Y-120651222D01*
X203318875Y-120681565D01*
X203323465Y-120712507D01*
X203325000Y-120743750D01*
X203325000Y-121456250D01*
X203323465Y-121487493D01*
X203318875Y-121518435D01*
X203311275Y-121548778D01*
X203300737Y-121578230D01*
X203287362Y-121606508D01*
X203271281Y-121633338D01*
X203252647Y-121658463D01*
X203231640Y-121681640D01*
X203208463Y-121702647D01*
X203183338Y-121721281D01*
X203156508Y-121737362D01*
X203128230Y-121750737D01*
X203098778Y-121761275D01*
X203068435Y-121768875D01*
X203037493Y-121773465D01*
X203006250Y-121775000D01*
X202368750Y-121775000D01*
X202337507Y-121773465D01*
X202306565Y-121768875D01*
X202276222Y-121761275D01*
X202246770Y-121750737D01*
X202218492Y-121737362D01*
X202191662Y-121721281D01*
X202166537Y-121702647D01*
X202143360Y-121681640D01*
X202122353Y-121658463D01*
X202103719Y-121633338D01*
X202087638Y-121606508D01*
X202074263Y-121578230D01*
X202063725Y-121548778D01*
X202056125Y-121518435D01*
X202051535Y-121487493D01*
X202050000Y-121456250D01*
X202050000Y-120743750D01*
X202051535Y-120712507D01*
X202056125Y-120681565D01*
X202063725Y-120651222D01*
X202074263Y-120621770D01*
X202087638Y-120593492D01*
X202103719Y-120566662D01*
X202122353Y-120541537D01*
X202143360Y-120518360D01*
X202166537Y-120497353D01*
X202191662Y-120478719D01*
X202218492Y-120462638D01*
X202246770Y-120449263D01*
X202276222Y-120438725D01*
X202306565Y-120431125D01*
X202337507Y-120426535D01*
X202368750Y-120425000D01*
X203006250Y-120425000D01*
X203037493Y-120426535D01*
X203037493Y-120426535D01*
G37*
D13*
X202687500Y-121100000D03*
D12*
G36*
X199825493Y-116826535D02*
G01*
X199856435Y-116831125D01*
X199886778Y-116838725D01*
X199916230Y-116849263D01*
X199944508Y-116862638D01*
X199971338Y-116878719D01*
X199996463Y-116897353D01*
X200019640Y-116918360D01*
X200040647Y-116941537D01*
X200059281Y-116966662D01*
X200075362Y-116993492D01*
X200088737Y-117021770D01*
X200099275Y-117051222D01*
X200106875Y-117081565D01*
X200111465Y-117112507D01*
X200113000Y-117143750D01*
X200113000Y-117856250D01*
X200111465Y-117887493D01*
X200106875Y-117918435D01*
X200099275Y-117948778D01*
X200088737Y-117978230D01*
X200075362Y-118006508D01*
X200059281Y-118033338D01*
X200040647Y-118058463D01*
X200019640Y-118081640D01*
X199996463Y-118102647D01*
X199971338Y-118121281D01*
X199944508Y-118137362D01*
X199916230Y-118150737D01*
X199886778Y-118161275D01*
X199856435Y-118168875D01*
X199825493Y-118173465D01*
X199794250Y-118175000D01*
X199156750Y-118175000D01*
X199125507Y-118173465D01*
X199094565Y-118168875D01*
X199064222Y-118161275D01*
X199034770Y-118150737D01*
X199006492Y-118137362D01*
X198979662Y-118121281D01*
X198954537Y-118102647D01*
X198931360Y-118081640D01*
X198910353Y-118058463D01*
X198891719Y-118033338D01*
X198875638Y-118006508D01*
X198862263Y-117978230D01*
X198851725Y-117948778D01*
X198844125Y-117918435D01*
X198839535Y-117887493D01*
X198838000Y-117856250D01*
X198838000Y-117143750D01*
X198839535Y-117112507D01*
X198844125Y-117081565D01*
X198851725Y-117051222D01*
X198862263Y-117021770D01*
X198875638Y-116993492D01*
X198891719Y-116966662D01*
X198910353Y-116941537D01*
X198931360Y-116918360D01*
X198954537Y-116897353D01*
X198979662Y-116878719D01*
X199006492Y-116862638D01*
X199034770Y-116849263D01*
X199064222Y-116838725D01*
X199094565Y-116831125D01*
X199125507Y-116826535D01*
X199156750Y-116825000D01*
X199794250Y-116825000D01*
X199825493Y-116826535D01*
X199825493Y-116826535D01*
G37*
D13*
X199475500Y-117500000D03*
D12*
G36*
X198250493Y-116826535D02*
G01*
X198281435Y-116831125D01*
X198311778Y-116838725D01*
X198341230Y-116849263D01*
X198369508Y-116862638D01*
X198396338Y-116878719D01*
X198421463Y-116897353D01*
X198444640Y-116918360D01*
X198465647Y-116941537D01*
X198484281Y-116966662D01*
X198500362Y-116993492D01*
X198513737Y-117021770D01*
X198524275Y-117051222D01*
X198531875Y-117081565D01*
X198536465Y-117112507D01*
X198538000Y-117143750D01*
X198538000Y-117856250D01*
X198536465Y-117887493D01*
X198531875Y-117918435D01*
X198524275Y-117948778D01*
X198513737Y-117978230D01*
X198500362Y-118006508D01*
X198484281Y-118033338D01*
X198465647Y-118058463D01*
X198444640Y-118081640D01*
X198421463Y-118102647D01*
X198396338Y-118121281D01*
X198369508Y-118137362D01*
X198341230Y-118150737D01*
X198311778Y-118161275D01*
X198281435Y-118168875D01*
X198250493Y-118173465D01*
X198219250Y-118175000D01*
X197581750Y-118175000D01*
X197550507Y-118173465D01*
X197519565Y-118168875D01*
X197489222Y-118161275D01*
X197459770Y-118150737D01*
X197431492Y-118137362D01*
X197404662Y-118121281D01*
X197379537Y-118102647D01*
X197356360Y-118081640D01*
X197335353Y-118058463D01*
X197316719Y-118033338D01*
X197300638Y-118006508D01*
X197287263Y-117978230D01*
X197276725Y-117948778D01*
X197269125Y-117918435D01*
X197264535Y-117887493D01*
X197263000Y-117856250D01*
X197263000Y-117143750D01*
X197264535Y-117112507D01*
X197269125Y-117081565D01*
X197276725Y-117051222D01*
X197287263Y-117021770D01*
X197300638Y-116993492D01*
X197316719Y-116966662D01*
X197335353Y-116941537D01*
X197356360Y-116918360D01*
X197379537Y-116897353D01*
X197404662Y-116878719D01*
X197431492Y-116862638D01*
X197459770Y-116849263D01*
X197489222Y-116838725D01*
X197519565Y-116831125D01*
X197550507Y-116826535D01*
X197581750Y-116825000D01*
X198219250Y-116825000D01*
X198250493Y-116826535D01*
X198250493Y-116826535D01*
G37*
D13*
X197900500Y-117500000D03*
D12*
G36*
X201862493Y-102326535D02*
G01*
X201893435Y-102331125D01*
X201923778Y-102338725D01*
X201953230Y-102349263D01*
X201981508Y-102362638D01*
X202008338Y-102378719D01*
X202033463Y-102397353D01*
X202056640Y-102418360D01*
X202077647Y-102441537D01*
X202096281Y-102466662D01*
X202112362Y-102493492D01*
X202125737Y-102521770D01*
X202136275Y-102551222D01*
X202143875Y-102581565D01*
X202148465Y-102612507D01*
X202150000Y-102643750D01*
X202150000Y-103356250D01*
X202148465Y-103387493D01*
X202143875Y-103418435D01*
X202136275Y-103448778D01*
X202125737Y-103478230D01*
X202112362Y-103506508D01*
X202096281Y-103533338D01*
X202077647Y-103558463D01*
X202056640Y-103581640D01*
X202033463Y-103602647D01*
X202008338Y-103621281D01*
X201981508Y-103637362D01*
X201953230Y-103650737D01*
X201923778Y-103661275D01*
X201893435Y-103668875D01*
X201862493Y-103673465D01*
X201831250Y-103675000D01*
X201193750Y-103675000D01*
X201162507Y-103673465D01*
X201131565Y-103668875D01*
X201101222Y-103661275D01*
X201071770Y-103650737D01*
X201043492Y-103637362D01*
X201016662Y-103621281D01*
X200991537Y-103602647D01*
X200968360Y-103581640D01*
X200947353Y-103558463D01*
X200928719Y-103533338D01*
X200912638Y-103506508D01*
X200899263Y-103478230D01*
X200888725Y-103448778D01*
X200881125Y-103418435D01*
X200876535Y-103387493D01*
X200875000Y-103356250D01*
X200875000Y-102643750D01*
X200876535Y-102612507D01*
X200881125Y-102581565D01*
X200888725Y-102551222D01*
X200899263Y-102521770D01*
X200912638Y-102493492D01*
X200928719Y-102466662D01*
X200947353Y-102441537D01*
X200968360Y-102418360D01*
X200991537Y-102397353D01*
X201016662Y-102378719D01*
X201043492Y-102362638D01*
X201071770Y-102349263D01*
X201101222Y-102338725D01*
X201131565Y-102331125D01*
X201162507Y-102326535D01*
X201193750Y-102325000D01*
X201831250Y-102325000D01*
X201862493Y-102326535D01*
X201862493Y-102326535D01*
G37*
D13*
X201512500Y-103000000D03*
D12*
G36*
X203437493Y-102326535D02*
G01*
X203468435Y-102331125D01*
X203498778Y-102338725D01*
X203528230Y-102349263D01*
X203556508Y-102362638D01*
X203583338Y-102378719D01*
X203608463Y-102397353D01*
X203631640Y-102418360D01*
X203652647Y-102441537D01*
X203671281Y-102466662D01*
X203687362Y-102493492D01*
X203700737Y-102521770D01*
X203711275Y-102551222D01*
X203718875Y-102581565D01*
X203723465Y-102612507D01*
X203725000Y-102643750D01*
X203725000Y-103356250D01*
X203723465Y-103387493D01*
X203718875Y-103418435D01*
X203711275Y-103448778D01*
X203700737Y-103478230D01*
X203687362Y-103506508D01*
X203671281Y-103533338D01*
X203652647Y-103558463D01*
X203631640Y-103581640D01*
X203608463Y-103602647D01*
X203583338Y-103621281D01*
X203556508Y-103637362D01*
X203528230Y-103650737D01*
X203498778Y-103661275D01*
X203468435Y-103668875D01*
X203437493Y-103673465D01*
X203406250Y-103675000D01*
X202768750Y-103675000D01*
X202737507Y-103673465D01*
X202706565Y-103668875D01*
X202676222Y-103661275D01*
X202646770Y-103650737D01*
X202618492Y-103637362D01*
X202591662Y-103621281D01*
X202566537Y-103602647D01*
X202543360Y-103581640D01*
X202522353Y-103558463D01*
X202503719Y-103533338D01*
X202487638Y-103506508D01*
X202474263Y-103478230D01*
X202463725Y-103448778D01*
X202456125Y-103418435D01*
X202451535Y-103387493D01*
X202450000Y-103356250D01*
X202450000Y-102643750D01*
X202451535Y-102612507D01*
X202456125Y-102581565D01*
X202463725Y-102551222D01*
X202474263Y-102521770D01*
X202487638Y-102493492D01*
X202503719Y-102466662D01*
X202522353Y-102441537D01*
X202543360Y-102418360D01*
X202566537Y-102397353D01*
X202591662Y-102378719D01*
X202618492Y-102362638D01*
X202646770Y-102349263D01*
X202676222Y-102338725D01*
X202706565Y-102331125D01*
X202737507Y-102326535D01*
X202768750Y-102325000D01*
X203406250Y-102325000D01*
X203437493Y-102326535D01*
X203437493Y-102326535D01*
G37*
D13*
X203087500Y-103000000D03*
D12*
G36*
X184762493Y-100626535D02*
G01*
X184793435Y-100631125D01*
X184823778Y-100638725D01*
X184853230Y-100649263D01*
X184881508Y-100662638D01*
X184908338Y-100678719D01*
X184933463Y-100697353D01*
X184956640Y-100718360D01*
X184977647Y-100741537D01*
X184996281Y-100766662D01*
X185012362Y-100793492D01*
X185025737Y-100821770D01*
X185036275Y-100851222D01*
X185043875Y-100881565D01*
X185048465Y-100912507D01*
X185050000Y-100943750D01*
X185050000Y-101656250D01*
X185048465Y-101687493D01*
X185043875Y-101718435D01*
X185036275Y-101748778D01*
X185025737Y-101778230D01*
X185012362Y-101806508D01*
X184996281Y-101833338D01*
X184977647Y-101858463D01*
X184956640Y-101881640D01*
X184933463Y-101902647D01*
X184908338Y-101921281D01*
X184881508Y-101937362D01*
X184853230Y-101950737D01*
X184823778Y-101961275D01*
X184793435Y-101968875D01*
X184762493Y-101973465D01*
X184731250Y-101975000D01*
X184093750Y-101975000D01*
X184062507Y-101973465D01*
X184031565Y-101968875D01*
X184001222Y-101961275D01*
X183971770Y-101950737D01*
X183943492Y-101937362D01*
X183916662Y-101921281D01*
X183891537Y-101902647D01*
X183868360Y-101881640D01*
X183847353Y-101858463D01*
X183828719Y-101833338D01*
X183812638Y-101806508D01*
X183799263Y-101778230D01*
X183788725Y-101748778D01*
X183781125Y-101718435D01*
X183776535Y-101687493D01*
X183775000Y-101656250D01*
X183775000Y-100943750D01*
X183776535Y-100912507D01*
X183781125Y-100881565D01*
X183788725Y-100851222D01*
X183799263Y-100821770D01*
X183812638Y-100793492D01*
X183828719Y-100766662D01*
X183847353Y-100741537D01*
X183868360Y-100718360D01*
X183891537Y-100697353D01*
X183916662Y-100678719D01*
X183943492Y-100662638D01*
X183971770Y-100649263D01*
X184001222Y-100638725D01*
X184031565Y-100631125D01*
X184062507Y-100626535D01*
X184093750Y-100625000D01*
X184731250Y-100625000D01*
X184762493Y-100626535D01*
X184762493Y-100626535D01*
G37*
D13*
X184412500Y-101300000D03*
D12*
G36*
X186337493Y-100626535D02*
G01*
X186368435Y-100631125D01*
X186398778Y-100638725D01*
X186428230Y-100649263D01*
X186456508Y-100662638D01*
X186483338Y-100678719D01*
X186508463Y-100697353D01*
X186531640Y-100718360D01*
X186552647Y-100741537D01*
X186571281Y-100766662D01*
X186587362Y-100793492D01*
X186600737Y-100821770D01*
X186611275Y-100851222D01*
X186618875Y-100881565D01*
X186623465Y-100912507D01*
X186625000Y-100943750D01*
X186625000Y-101656250D01*
X186623465Y-101687493D01*
X186618875Y-101718435D01*
X186611275Y-101748778D01*
X186600737Y-101778230D01*
X186587362Y-101806508D01*
X186571281Y-101833338D01*
X186552647Y-101858463D01*
X186531640Y-101881640D01*
X186508463Y-101902647D01*
X186483338Y-101921281D01*
X186456508Y-101937362D01*
X186428230Y-101950737D01*
X186398778Y-101961275D01*
X186368435Y-101968875D01*
X186337493Y-101973465D01*
X186306250Y-101975000D01*
X185668750Y-101975000D01*
X185637507Y-101973465D01*
X185606565Y-101968875D01*
X185576222Y-101961275D01*
X185546770Y-101950737D01*
X185518492Y-101937362D01*
X185491662Y-101921281D01*
X185466537Y-101902647D01*
X185443360Y-101881640D01*
X185422353Y-101858463D01*
X185403719Y-101833338D01*
X185387638Y-101806508D01*
X185374263Y-101778230D01*
X185363725Y-101748778D01*
X185356125Y-101718435D01*
X185351535Y-101687493D01*
X185350000Y-101656250D01*
X185350000Y-100943750D01*
X185351535Y-100912507D01*
X185356125Y-100881565D01*
X185363725Y-100851222D01*
X185374263Y-100821770D01*
X185387638Y-100793492D01*
X185403719Y-100766662D01*
X185422353Y-100741537D01*
X185443360Y-100718360D01*
X185466537Y-100697353D01*
X185491662Y-100678719D01*
X185518492Y-100662638D01*
X185546770Y-100649263D01*
X185576222Y-100638725D01*
X185606565Y-100631125D01*
X185637507Y-100626535D01*
X185668750Y-100625000D01*
X186306250Y-100625000D01*
X186337493Y-100626535D01*
X186337493Y-100626535D01*
G37*
D13*
X185987500Y-101300000D03*
D15*
X190050000Y-113000000D03*
X191000000Y-113000000D03*
X191950000Y-113000000D03*
X191950000Y-110800000D03*
X190050000Y-110800000D03*
D16*
X198050000Y-102800000D03*
X189550000Y-102800000D03*
D17*
X202200000Y-117500000D03*
X208200000Y-101400000D03*
X208200000Y-104000000D03*
D18*
X194025000Y-114950000D03*
X194675000Y-114950000D03*
X195325000Y-114950000D03*
X195975000Y-114950000D03*
X196625000Y-114950000D03*
X197275000Y-114950000D03*
X197925000Y-114950000D03*
X198575000Y-114950000D03*
X198575000Y-109050000D03*
X197925000Y-109050000D03*
X197275000Y-109050000D03*
X196625000Y-109050000D03*
X195975000Y-109050000D03*
X195325000Y-109050000D03*
X194675000Y-109050000D03*
X194025000Y-109050000D03*
D10*
X180000000Y-102000000D03*
D19*
X206700000Y-107160000D03*
D20*
X206700000Y-109700000D03*
X206700000Y-112240000D03*
X206700000Y-114780000D03*
D21*
X201700000Y-111700000D03*
X200400000Y-111700000D03*
X201050000Y-113700000D03*
D12*
G36*
X202137493Y-109226535D02*
G01*
X202168435Y-109231125D01*
X202198778Y-109238725D01*
X202228230Y-109249263D01*
X202256508Y-109262638D01*
X202283338Y-109278719D01*
X202308463Y-109297353D01*
X202331640Y-109318360D01*
X202352647Y-109341537D01*
X202371281Y-109366662D01*
X202387362Y-109393492D01*
X202400737Y-109421770D01*
X202411275Y-109451222D01*
X202418875Y-109481565D01*
X202423465Y-109512507D01*
X202425000Y-109543750D01*
X202425000Y-110256250D01*
X202423465Y-110287493D01*
X202418875Y-110318435D01*
X202411275Y-110348778D01*
X202400737Y-110378230D01*
X202387362Y-110406508D01*
X202371281Y-110433338D01*
X202352647Y-110458463D01*
X202331640Y-110481640D01*
X202308463Y-110502647D01*
X202283338Y-110521281D01*
X202256508Y-110537362D01*
X202228230Y-110550737D01*
X202198778Y-110561275D01*
X202168435Y-110568875D01*
X202137493Y-110573465D01*
X202106250Y-110575000D01*
X201468750Y-110575000D01*
X201437507Y-110573465D01*
X201406565Y-110568875D01*
X201376222Y-110561275D01*
X201346770Y-110550737D01*
X201318492Y-110537362D01*
X201291662Y-110521281D01*
X201266537Y-110502647D01*
X201243360Y-110481640D01*
X201222353Y-110458463D01*
X201203719Y-110433338D01*
X201187638Y-110406508D01*
X201174263Y-110378230D01*
X201163725Y-110348778D01*
X201156125Y-110318435D01*
X201151535Y-110287493D01*
X201150000Y-110256250D01*
X201150000Y-109543750D01*
X201151535Y-109512507D01*
X201156125Y-109481565D01*
X201163725Y-109451222D01*
X201174263Y-109421770D01*
X201187638Y-109393492D01*
X201203719Y-109366662D01*
X201222353Y-109341537D01*
X201243360Y-109318360D01*
X201266537Y-109297353D01*
X201291662Y-109278719D01*
X201318492Y-109262638D01*
X201346770Y-109249263D01*
X201376222Y-109238725D01*
X201406565Y-109231125D01*
X201437507Y-109226535D01*
X201468750Y-109225000D01*
X202106250Y-109225000D01*
X202137493Y-109226535D01*
X202137493Y-109226535D01*
G37*
D13*
X201787500Y-109900000D03*
D12*
G36*
X200562493Y-109226535D02*
G01*
X200593435Y-109231125D01*
X200623778Y-109238725D01*
X200653230Y-109249263D01*
X200681508Y-109262638D01*
X200708338Y-109278719D01*
X200733463Y-109297353D01*
X200756640Y-109318360D01*
X200777647Y-109341537D01*
X200796281Y-109366662D01*
X200812362Y-109393492D01*
X200825737Y-109421770D01*
X200836275Y-109451222D01*
X200843875Y-109481565D01*
X200848465Y-109512507D01*
X200850000Y-109543750D01*
X200850000Y-110256250D01*
X200848465Y-110287493D01*
X200843875Y-110318435D01*
X200836275Y-110348778D01*
X200825737Y-110378230D01*
X200812362Y-110406508D01*
X200796281Y-110433338D01*
X200777647Y-110458463D01*
X200756640Y-110481640D01*
X200733463Y-110502647D01*
X200708338Y-110521281D01*
X200681508Y-110537362D01*
X200653230Y-110550737D01*
X200623778Y-110561275D01*
X200593435Y-110568875D01*
X200562493Y-110573465D01*
X200531250Y-110575000D01*
X199893750Y-110575000D01*
X199862507Y-110573465D01*
X199831565Y-110568875D01*
X199801222Y-110561275D01*
X199771770Y-110550737D01*
X199743492Y-110537362D01*
X199716662Y-110521281D01*
X199691537Y-110502647D01*
X199668360Y-110481640D01*
X199647353Y-110458463D01*
X199628719Y-110433338D01*
X199612638Y-110406508D01*
X199599263Y-110378230D01*
X199588725Y-110348778D01*
X199581125Y-110318435D01*
X199576535Y-110287493D01*
X199575000Y-110256250D01*
X199575000Y-109543750D01*
X199576535Y-109512507D01*
X199581125Y-109481565D01*
X199588725Y-109451222D01*
X199599263Y-109421770D01*
X199612638Y-109393492D01*
X199628719Y-109366662D01*
X199647353Y-109341537D01*
X199668360Y-109318360D01*
X199691537Y-109297353D01*
X199716662Y-109278719D01*
X199743492Y-109262638D01*
X199771770Y-109249263D01*
X199801222Y-109238725D01*
X199831565Y-109231125D01*
X199862507Y-109226535D01*
X199893750Y-109225000D01*
X200531250Y-109225000D01*
X200562493Y-109226535D01*
X200562493Y-109226535D01*
G37*
D13*
X200212500Y-109900000D03*
D12*
G36*
X200674493Y-114726535D02*
G01*
X200705435Y-114731125D01*
X200735778Y-114738725D01*
X200765230Y-114749263D01*
X200793508Y-114762638D01*
X200820338Y-114778719D01*
X200845463Y-114797353D01*
X200868640Y-114818360D01*
X200889647Y-114841537D01*
X200908281Y-114866662D01*
X200924362Y-114893492D01*
X200937737Y-114921770D01*
X200948275Y-114951222D01*
X200955875Y-114981565D01*
X200960465Y-115012507D01*
X200962000Y-115043750D01*
X200962000Y-115756250D01*
X200960465Y-115787493D01*
X200955875Y-115818435D01*
X200948275Y-115848778D01*
X200937737Y-115878230D01*
X200924362Y-115906508D01*
X200908281Y-115933338D01*
X200889647Y-115958463D01*
X200868640Y-115981640D01*
X200845463Y-116002647D01*
X200820338Y-116021281D01*
X200793508Y-116037362D01*
X200765230Y-116050737D01*
X200735778Y-116061275D01*
X200705435Y-116068875D01*
X200674493Y-116073465D01*
X200643250Y-116075000D01*
X200005750Y-116075000D01*
X199974507Y-116073465D01*
X199943565Y-116068875D01*
X199913222Y-116061275D01*
X199883770Y-116050737D01*
X199855492Y-116037362D01*
X199828662Y-116021281D01*
X199803537Y-116002647D01*
X199780360Y-115981640D01*
X199759353Y-115958463D01*
X199740719Y-115933338D01*
X199724638Y-115906508D01*
X199711263Y-115878230D01*
X199700725Y-115848778D01*
X199693125Y-115818435D01*
X199688535Y-115787493D01*
X199687000Y-115756250D01*
X199687000Y-115043750D01*
X199688535Y-115012507D01*
X199693125Y-114981565D01*
X199700725Y-114951222D01*
X199711263Y-114921770D01*
X199724638Y-114893492D01*
X199740719Y-114866662D01*
X199759353Y-114841537D01*
X199780360Y-114818360D01*
X199803537Y-114797353D01*
X199828662Y-114778719D01*
X199855492Y-114762638D01*
X199883770Y-114749263D01*
X199913222Y-114738725D01*
X199943565Y-114731125D01*
X199974507Y-114726535D01*
X200005750Y-114725000D01*
X200643250Y-114725000D01*
X200674493Y-114726535D01*
X200674493Y-114726535D01*
G37*
D13*
X200324500Y-115400000D03*
D12*
G36*
X202249493Y-114726535D02*
G01*
X202280435Y-114731125D01*
X202310778Y-114738725D01*
X202340230Y-114749263D01*
X202368508Y-114762638D01*
X202395338Y-114778719D01*
X202420463Y-114797353D01*
X202443640Y-114818360D01*
X202464647Y-114841537D01*
X202483281Y-114866662D01*
X202499362Y-114893492D01*
X202512737Y-114921770D01*
X202523275Y-114951222D01*
X202530875Y-114981565D01*
X202535465Y-115012507D01*
X202537000Y-115043750D01*
X202537000Y-115756250D01*
X202535465Y-115787493D01*
X202530875Y-115818435D01*
X202523275Y-115848778D01*
X202512737Y-115878230D01*
X202499362Y-115906508D01*
X202483281Y-115933338D01*
X202464647Y-115958463D01*
X202443640Y-115981640D01*
X202420463Y-116002647D01*
X202395338Y-116021281D01*
X202368508Y-116037362D01*
X202340230Y-116050737D01*
X202310778Y-116061275D01*
X202280435Y-116068875D01*
X202249493Y-116073465D01*
X202218250Y-116075000D01*
X201580750Y-116075000D01*
X201549507Y-116073465D01*
X201518565Y-116068875D01*
X201488222Y-116061275D01*
X201458770Y-116050737D01*
X201430492Y-116037362D01*
X201403662Y-116021281D01*
X201378537Y-116002647D01*
X201355360Y-115981640D01*
X201334353Y-115958463D01*
X201315719Y-115933338D01*
X201299638Y-115906508D01*
X201286263Y-115878230D01*
X201275725Y-115848778D01*
X201268125Y-115818435D01*
X201263535Y-115787493D01*
X201262000Y-115756250D01*
X201262000Y-115043750D01*
X201263535Y-115012507D01*
X201268125Y-114981565D01*
X201275725Y-114951222D01*
X201286263Y-114921770D01*
X201299638Y-114893492D01*
X201315719Y-114866662D01*
X201334353Y-114841537D01*
X201355360Y-114818360D01*
X201378537Y-114797353D01*
X201403662Y-114778719D01*
X201430492Y-114762638D01*
X201458770Y-114749263D01*
X201488222Y-114738725D01*
X201518565Y-114731125D01*
X201549507Y-114726535D01*
X201580750Y-114725000D01*
X202218250Y-114725000D01*
X202249493Y-114726535D01*
X202249493Y-114726535D01*
G37*
D13*
X201899500Y-115400000D03*
D12*
G36*
X202125493Y-107426535D02*
G01*
X202156435Y-107431125D01*
X202186778Y-107438725D01*
X202216230Y-107449263D01*
X202244508Y-107462638D01*
X202271338Y-107478719D01*
X202296463Y-107497353D01*
X202319640Y-107518360D01*
X202340647Y-107541537D01*
X202359281Y-107566662D01*
X202375362Y-107593492D01*
X202388737Y-107621770D01*
X202399275Y-107651222D01*
X202406875Y-107681565D01*
X202411465Y-107712507D01*
X202413000Y-107743750D01*
X202413000Y-108456250D01*
X202411465Y-108487493D01*
X202406875Y-108518435D01*
X202399275Y-108548778D01*
X202388737Y-108578230D01*
X202375362Y-108606508D01*
X202359281Y-108633338D01*
X202340647Y-108658463D01*
X202319640Y-108681640D01*
X202296463Y-108702647D01*
X202271338Y-108721281D01*
X202244508Y-108737362D01*
X202216230Y-108750737D01*
X202186778Y-108761275D01*
X202156435Y-108768875D01*
X202125493Y-108773465D01*
X202094250Y-108775000D01*
X201456750Y-108775000D01*
X201425507Y-108773465D01*
X201394565Y-108768875D01*
X201364222Y-108761275D01*
X201334770Y-108750737D01*
X201306492Y-108737362D01*
X201279662Y-108721281D01*
X201254537Y-108702647D01*
X201231360Y-108681640D01*
X201210353Y-108658463D01*
X201191719Y-108633338D01*
X201175638Y-108606508D01*
X201162263Y-108578230D01*
X201151725Y-108548778D01*
X201144125Y-108518435D01*
X201139535Y-108487493D01*
X201138000Y-108456250D01*
X201138000Y-107743750D01*
X201139535Y-107712507D01*
X201144125Y-107681565D01*
X201151725Y-107651222D01*
X201162263Y-107621770D01*
X201175638Y-107593492D01*
X201191719Y-107566662D01*
X201210353Y-107541537D01*
X201231360Y-107518360D01*
X201254537Y-107497353D01*
X201279662Y-107478719D01*
X201306492Y-107462638D01*
X201334770Y-107449263D01*
X201364222Y-107438725D01*
X201394565Y-107431125D01*
X201425507Y-107426535D01*
X201456750Y-107425000D01*
X202094250Y-107425000D01*
X202125493Y-107426535D01*
X202125493Y-107426535D01*
G37*
D13*
X201775500Y-108100000D03*
D12*
G36*
X200550493Y-107426535D02*
G01*
X200581435Y-107431125D01*
X200611778Y-107438725D01*
X200641230Y-107449263D01*
X200669508Y-107462638D01*
X200696338Y-107478719D01*
X200721463Y-107497353D01*
X200744640Y-107518360D01*
X200765647Y-107541537D01*
X200784281Y-107566662D01*
X200800362Y-107593492D01*
X200813737Y-107621770D01*
X200824275Y-107651222D01*
X200831875Y-107681565D01*
X200836465Y-107712507D01*
X200838000Y-107743750D01*
X200838000Y-108456250D01*
X200836465Y-108487493D01*
X200831875Y-108518435D01*
X200824275Y-108548778D01*
X200813737Y-108578230D01*
X200800362Y-108606508D01*
X200784281Y-108633338D01*
X200765647Y-108658463D01*
X200744640Y-108681640D01*
X200721463Y-108702647D01*
X200696338Y-108721281D01*
X200669508Y-108737362D01*
X200641230Y-108750737D01*
X200611778Y-108761275D01*
X200581435Y-108768875D01*
X200550493Y-108773465D01*
X200519250Y-108775000D01*
X199881750Y-108775000D01*
X199850507Y-108773465D01*
X199819565Y-108768875D01*
X199789222Y-108761275D01*
X199759770Y-108750737D01*
X199731492Y-108737362D01*
X199704662Y-108721281D01*
X199679537Y-108702647D01*
X199656360Y-108681640D01*
X199635353Y-108658463D01*
X199616719Y-108633338D01*
X199600638Y-108606508D01*
X199587263Y-108578230D01*
X199576725Y-108548778D01*
X199569125Y-108518435D01*
X199564535Y-108487493D01*
X199563000Y-108456250D01*
X199563000Y-107743750D01*
X199564535Y-107712507D01*
X199569125Y-107681565D01*
X199576725Y-107651222D01*
X199587263Y-107621770D01*
X199600638Y-107593492D01*
X199616719Y-107566662D01*
X199635353Y-107541537D01*
X199656360Y-107518360D01*
X199679537Y-107497353D01*
X199704662Y-107478719D01*
X199731492Y-107462638D01*
X199759770Y-107449263D01*
X199789222Y-107438725D01*
X199819565Y-107431125D01*
X199850507Y-107426535D01*
X199881750Y-107425000D01*
X200519250Y-107425000D01*
X200550493Y-107426535D01*
X200550493Y-107426535D01*
G37*
D13*
X200200500Y-108100000D03*
M02*
