M48
; DRILL file {KiCad (5.1.2)-1} date 2021/06/27 21:29:47
; FORMAT={-:-/ absolute / metric / decimal}
; #@! TF.CreationDate,2021-06-27T21:29:47+09:00
; #@! TF.GenerationSoftware,Kicad,Pcbnew,(5.1.2)-1
FMAT,2
METRIC
T1C0.400
T2C0.500
T3C0.762
T4C1.000
T5C3.200
%
G90
G05
T1
X188.589Y-119.766
X189.222Y-112.013
X189.9Y-105.0
X192.285Y-118.156
X194.219Y-117.555
X195.507Y-106.877
X195.58Y-110.49
X196.38Y-107.607
X196.731Y-113.525
X196.737Y-117.75
X197.409Y-110.572
X200.184Y-120.255
X200.582Y-117.255
X201.011Y-101.855
X203.841Y-117.436
X204.609Y-106.532
X204.8Y-101.1
T2
X202.2Y-117.5
X208.2Y-104.0
X208.2Y-101.4
T3
X185.2Y-108.0
X185.2Y-110.0
X185.2Y-112.0
X185.2Y-114.0
T4
X206.7Y-107.16
X206.7Y-109.7
X206.7Y-112.24
X206.7Y-114.78
T5
X180.0Y-102.0
X180.0Y-120.0
T0
M30
